<svg width="29" height="28" viewBox="0 0 29 28" fill="none" xmlns="http://www.w3.org/2000/svg">
<g opacity="0.6">
<g clip-path="url(#clip0)">
<path d="M26.746 26.9061H25.5466V9.49013C25.5466 8.6795 24.887 8.02002 24.0765 8.02002H21.3955C20.5848 8.02002 19.9254 8.67955 19.9254 9.49013V26.9061H16.8797V17.3809C16.8797 16.5703 16.2202 15.9108 15.4096 15.9108H12.7286C11.918 15.9108 11.2585 16.5704 11.2585 17.3809V26.9061H8.21282V21.9731C8.21282 21.1625 7.55329 20.503 6.74271 20.503H4.06166C3.25103 20.503 2.59155 21.1625 2.59155 21.9731V26.9061H1.32739C1.02535 26.9061 0.780518 27.151 0.780518 27.453C0.780518 27.755 1.02535 27.9999 1.32739 27.9999H26.746C27.0481 27.9999 27.2929 27.755 27.2929 27.453C27.2929 27.151 27.0481 26.9061 26.746 26.9061ZM7.11896 26.9061H3.68524V21.9731C3.68524 21.7656 3.85406 21.5967 4.0616 21.5967H6.7426C6.95014 21.5967 7.11896 21.7656 7.11896 21.9731V26.9061ZM15.7859 26.9061H12.3522V17.3809C12.3522 17.1734 12.521 17.0046 12.7285 17.0046H15.4095C15.617 17.0046 15.7859 17.1734 15.7859 17.3809V26.9061ZM24.4528 26.9061H21.0191V9.49013C21.0191 9.28259 21.1879 9.11377 21.3955 9.11377H24.0765C24.284 9.11377 24.4528 9.28259 24.4528 9.49013V26.9061Z" fill="#333333"/>
<path d="M25.5454 0.575094C25.5531 0.425852 25.5006 0.274094 25.3866 0.160125C25.2726 0.0461562 25.1209 -0.00639844 24.9716 0.0013125C24.9628 0.000929688 24.9541 0 24.9451 0H21.6366C21.3345 0 21.0897 0.244836 21.0897 0.546875C21.0897 0.848914 21.3345 1.09375 21.6366 1.09375H23.6795L18.2733 6.50005L16.2345 4.4613C16.132 4.35876 15.9929 4.30112 15.8478 4.30112C15.7028 4.30112 15.5637 4.35876 15.4611 4.4613L5.63001 14.2925C5.41646 14.506 5.41646 14.8523 5.63001 15.0659C5.73682 15.1726 5.87676 15.226 6.01671 15.226C6.15666 15.226 6.29666 15.1726 6.40341 15.0658L15.8478 5.62133L17.8866 7.66008C18.1001 7.87363 18.4464 7.87363 18.66 7.66008L24.453 1.8672V3.71618C24.453 4.01822 24.6978 4.26305 24.9998 4.26305C25.3019 4.26305 25.5467 4.01822 25.5467 3.71618V0.601562C25.5467 0.592648 25.5458 0.583953 25.5454 0.575094Z" fill="#4F4F4F"/>
<path d="M4.17334 17.134C4.47537 17.134 4.72021 16.8892 4.72021 16.5872C4.72021 16.2851 4.47537 16.0403 4.17334 16.0403C3.87131 16.0403 3.62646 16.2851 3.62646 16.5872C3.62646 16.8892 3.87131 17.134 4.17334 17.134Z" fill="black"/>
</g>
</g>
<defs>
<clipPath id="clip0">
<rect x="0.0367432" width="28" height="28" fill="white"/>
</clipPath>
</defs>
</svg>
