<svg width="29" height="28" viewBox="0 0 29 28" fill="none" xmlns="http://www.w3.org/2000/svg">
<g opacity="0.6">
<g clip-path="url(#clip0)">
<path d="M24.8952 5.17868L24.569 4.77734L19.598 9.74781L19.816 10.067C20.6074 11.2295 21.026 12.5898 21.026 14.0005C21.026 15.4113 20.6079 16.7716 19.816 17.9341L19.598 18.2533L24.5685 23.2237L24.8947 22.8224C26.9135 20.3379 28.0256 17.2047 28.0256 14.001C28.0256 10.7973 26.914 7.66321 24.8952 5.17868Z" fill="#4F4F4F"/>
<path d="M17.9596 19.7899C16.7971 20.5819 15.4368 21 14.026 21C10.6698 21 7.77922 18.6083 7.15342 15.3127L7.08155 14.9333H0.0474854L0.100219 15.4481C0.835685 22.6039 6.82255 28 14.026 28C17.2297 28 20.3629 26.8879 22.8474 24.8691L23.2488 24.5429L18.2783 19.572L17.9596 19.7899Z" fill="#333333"/>
<path d="M14.026 1.86667C16.2777 1.86667 18.4892 2.5004 20.3932 3.67313L17.996 6.0704C16.77 5.45487 15.4172 5.13333 14.026 5.13333C10.1714 5.13333 6.80202 7.62347 5.61529 11.2H2.21562C3.48262 5.78293 8.31262 1.86667 14.026 1.86667ZM14.026 0C6.82255 0 0.835685 5.39607 0.100219 12.5519L0.0474854 13.0667H7.08155L7.15342 12.6873C7.77922 9.39167 10.6698 7 14.026 7C15.4363 7 16.7966 7.41813 17.9596 8.21007L18.2788 8.428L23.2492 3.45707L22.8479 3.13087C20.3629 1.11207 17.2297 0 14.026 0Z" fill="#828282"/>
</g>
</g>
<defs>
<clipPath id="clip0">
<rect x="0.0367432" width="28" height="28" fill="white"/>
</clipPath>
</defs>
</svg>
