<svg width="134" height="134" viewBox="0 0 134 134" fill="none" xmlns="http://www.w3.org/2000/svg">
<circle cx="67" cy="67" r="67" fill="#7DDFC3"/>
<g clip-path="url(#clip0)">
<path d="M35.3061 55.6986C34.4945 55.6986 33.8367 55.0408 33.8367 54.2292C33.8367 53.4176 34.4945 52.7598 35.3061 52.7598C36.1177 52.7598 36.7755 53.4176 36.7755 54.2292C36.7755 55.0408 36.1177 55.6986 35.3061 55.6986ZM98.6939 52.7598C97.8823 52.7598 97.2245 53.4176 97.2245 54.2292C97.2245 55.0408 97.8823 55.6986 98.6939 55.6986C99.5054 55.6986 100.163 55.0408 100.163 54.2292C100.163 53.4176 99.5054 52.7598 98.6939 52.7598ZM103.034 46.8734C102.691 47.4319 102.393 48.0263 102.111 48.6138C101.271 50.3654 98.6229 49.095 99.4633 47.3434C99.7789 46.6854 100.146 46.0417 100.494 45.3974C101.788 43.0042 100.66 41.1835 99.8437 40.4201C97.638 38.3566 95.4744 39.3994 94.7636 39.8385C90.5012 42.4867 86.487 45.5738 82.8022 49.0166C85.6232 48.613 88.4429 49.4809 90.5477 51.4074C92.6691 53.3494 93.7852 56.1098 93.6097 58.9806C93.4622 61.392 92.5061 63.6809 90.905 65.4779C93.6796 65.3579 95.3355 63.6562 95.733 61.6466L95.9724 60.4276C96.3509 58.514 99.2324 59.0838 98.8539 60.9975L98.6145 62.2165C97.894 65.6595 95.1368 68.0472 91.7824 68.3452L83.2559 69.0852C85.8501 70.0767 88.2634 71.4643 90.5203 73.2584C93.6781 75.7688 95.5026 79.5232 95.526 83.5587C95.549 87.561 93.7881 91.3003 90.6947 93.8182C89.2313 95.0093 87.6553 96.0796 85.9449 96.862C80.2701 99.4576 75.5515 95.9138 74.4676 91.9524L72.2855 83.8074V83.8072V83.8071L71.406 80.5246V89.5512C71.406 91.8821 69.6436 93.9542 66.8407 93.9542C64.458 93.9542 62.5941 91.9045 62.5941 89.4807V80.5248L61.7146 83.8072V83.8074V83.8075L59.5325 91.9526C58.4486 95.914 53.73 99.4577 48.0552 96.8621C46.3448 96.0798 44.7688 95.0094 43.3054 93.8183C40.212 91.3005 38.4511 87.5611 38.4741 83.5589C38.4975 79.5231 40.3219 75.7688 43.4798 73.2586C45.7368 71.4645 48.15 70.0769 50.7442 69.0854L42.2178 68.3452C38.8633 68.0472 36.1061 65.6595 35.3856 62.2165L35.1462 60.9975C34.7677 59.0838 37.6492 58.514 38.0277 60.4276L38.2671 61.6466C38.6646 63.6562 40.3204 65.3579 43.0951 65.4779C41.494 63.6809 40.5379 61.392 40.3905 58.9806C40.2149 56.1098 41.331 53.3494 43.4525 51.4074C45.557 49.4809 48.3767 48.613 51.1979 49.0166C47.5132 45.5738 43.4989 42.4867 39.2364 39.8385C38.5255 39.3994 36.3619 38.3566 34.1563 40.4201C33.3403 41.1835 32.2116 43.0042 33.5057 45.3974C33.854 46.0417 34.2211 46.6854 34.5367 47.3434C35.377 49.095 32.729 50.3654 31.8887 48.6138C31.6068 48.0263 31.3093 47.4319 30.9664 46.8734C29.4022 44.326 29.7102 40.6591 32.084 38.3376C34.7903 35.691 38.2663 35.7982 40.7858 37.3433C45.6559 40.3298 50.1823 43.9052 54.2901 47.8882C57.7977 51.2882 60.9963 55.0148 63.8256 58.9909C62.9214 55.3282 61.9092 51.8978 60.8073 48.7699C60.5378 48.0049 60.9395 47.1662 61.7045 46.8968C62.4697 46.6271 63.3081 47.0289 63.5776 47.794C64.8122 51.2982 66.0125 55.0149 66.9999 59.1501C67.9836 55.0386 69.1939 51.2805 70.4222 47.794C70.6917 47.0289 71.5301 46.6271 72.2953 46.8968C73.0603 47.1662 73.462 48.0049 73.1925 48.7699C72.0906 51.8978 71.0782 55.3282 70.1743 58.9909C73.0035 55.0148 76.2021 51.288 79.7097 47.8882C83.8175 43.9052 88.3439 40.3298 93.214 37.3433C95.7335 35.7982 99.2095 35.6909 101.916 38.3376C104.29 40.6591 104.598 44.326 103.034 46.8734ZM61.419 67.0641V64.7308C61.419 63.6712 61.716 62.6795 62.231 61.8346C60.6972 59.5957 59.0395 57.4344 57.2706 55.3636C55.574 53.5156 53.3044 52.3019 50.8289 51.9294C48.8659 51.6345 46.9001 52.2334 45.4357 53.5739C43.9715 54.9143 43.201 56.8196 43.3222 58.8011C43.5548 62.6066 46.5756 65.7307 50.3621 66.1033L61.419 67.0641ZM57.1138 89.63C55.6172 90.457 52.9015 91.389 49.7335 90.4915C47.2419 89.7857 45.1927 88.1233 43.959 85.8255C42.7393 83.5534 42.2564 80.5085 43.7732 77.0646C42.2695 78.8799 41.4254 81.1622 41.4115 83.5756C41.3935 86.6837 42.7597 89.5867 45.1596 91.54C46.4507 92.5908 47.8596 93.496 49.3494 94.2252C52.8771 95.9517 56.1744 93.6019 56.6952 91.1924L57.1138 89.63ZM61.9363 71.6293C61.7663 71.1375 61.6387 70.6436 61.5527 70.1494C56.4795 70.1364 49.1303 70.8979 46.0633 79.3286C44.918 82.4768 46.7183 86.647 50.5402 87.667C53.6983 88.5099 57.8233 86.988 58.8791 83.0406V83.0403L61.9363 71.6293ZM68.4686 74.4692C68.4686 73.2768 68.6895 72.1769 69.1638 71.008C69.4956 70.1903 69.6435 69.4634 69.6435 68.6511V64.7308C69.6435 63.2732 68.4576 62.0872 66.9999 62.0872C65.5423 62.0872 64.3563 63.2732 64.3563 64.7308V68.651C64.3563 69.4395 64.5254 70.2508 64.8588 71.0625C65.3049 72.1487 65.5312 73.2949 65.5312 74.4691V89.4807C65.5312 90.301 66.1648 91.0188 66.945 91.0188C67.8147 91.0188 68.4686 90.3755 68.4686 89.5512V74.4692ZM84.2663 90.4915C81.0983 91.389 78.3826 90.457 76.886 89.63L77.3046 91.1922C77.8254 93.6017 81.1227 95.9516 84.6504 94.225C86.1404 93.4958 87.5491 92.5908 88.8402 91.5399C91.2401 89.5865 92.6063 86.6836 92.5884 83.5755C92.5744 81.1619 91.7304 78.8796 90.2266 77.0646C91.7434 80.5083 91.2605 83.5534 90.0408 85.8255C88.8071 88.1233 86.7579 89.7857 84.2663 90.4915ZM72.4532 70.1494C72.3683 70.6445 72.2411 71.1358 72.0653 71.6356L75.1207 83.0404V83.0407C76.1765 86.9882 80.3017 88.51 83.4596 87.6672C87.2815 86.647 89.0818 82.4768 87.9365 79.3287C84.8708 70.9011 77.5262 70.137 72.4532 70.1494ZM76.7293 55.3637C74.9605 57.4344 73.3028 59.5958 71.7689 61.8348C72.2838 62.6795 72.581 63.6712 72.581 64.731V67.0641L83.6379 66.1036C87.4244 65.731 90.4451 62.6068 90.6778 58.8014C90.7989 56.8199 90.0286 54.9146 88.5642 53.5742C87.0998 52.2337 85.134 51.6348 83.171 51.9297C80.6954 52.302 78.4258 53.5158 76.7293 55.3637Z" fill="white"/>
</g>
<defs>
<clipPath id="clip0">
<rect x="30" y="30" width="74" height="74" fill="white"/>
</clipPath>
</defs>
</svg>
