<svg width="134" height="134" viewBox="0 0 134 134" fill="none" xmlns="http://www.w3.org/2000/svg">
<circle cx="67" cy="67" r="67" fill="#7DDFC3"/>
<path d="M93.0974 74.696C103.211 71.4153 103.42 59.2916 103.42 58.786C103.42 58.5191 103.334 58.2594 103.174 58.046C102.878 57.6266 95.5887 47.945 85.4754 51.238C82.6861 52.1787 80.0758 53.5839 77.7547 55.3943C78.7682 52.6273 79.3021 49.7076 79.3334 46.761C79.3334 36.1296 67.8757 32.1829 67.3947 32.0226C67.1387 31.9361 66.8614 31.9361 66.6054 32.0226C66.1244 32.1829 54.6667 36.1296 54.6667 46.8226C54.7011 49.7689 55.2349 52.6881 56.2454 55.456C53.9207 53.6221 51.3017 52.1959 48.5 51.238C38.399 47.945 31.1224 57.6266 30.8264 58.046C30.6663 58.2594 30.5797 58.5191 30.5797 58.786C30.5797 59.2916 30.7894 71.4153 40.9027 74.696C43.7127 75.5808 46.6537 75.9771 49.5977 75.8676C47.1524 77.5065 45.0045 79.5502 43.246 81.911C36.993 90.5443 43.949 100.411 44.2574 100.855C44.406 101.077 44.6291 101.239 44.8864 101.311C46.8632 101.877 48.9105 102.16 50.9667 102.15C59.7234 102.15 64.5334 96.9083 67 88.5833C69.5284 96.9576 74.3137 102.15 83.0334 102.15C85.0861 102.154 87.1291 101.868 89.1014 101.299C89.3587 101.227 89.5817 101.065 89.7304 100.843C90.0387 100.423 96.9947 90.5073 90.7417 81.8986C88.9808 79.5444 86.838 77.5017 84.4024 75.8553C87.3455 75.966 90.286 75.574 93.0974 74.696ZM67 34.5263C68.8747 35.2663 76.8667 38.9046 76.8667 46.7733C76.8667 53.8896 72.846 61.2773 68.3814 66.778C68.1594 66.6916 68.2334 67.888 68.2334 52.94C68.2334 52.2588 67.6812 51.7066 67 51.7066C66.3189 51.7066 65.7667 52.2588 65.7667 52.94V65.7913C64.27 63.5558 62.591 61.4479 60.747 59.489C58.5173 55.6111 57.2763 51.2442 57.1334 46.7733C57.1334 38.9293 65.1254 35.2786 67 34.5263ZM41.6674 72.3526C34.2057 69.886 33.1944 61.191 33.034 59.1806C34.2674 57.6266 40.2367 51.1516 47.723 53.5813C54.5064 55.789 60.2784 61.8816 64.1264 67.851C64.003 68.0113 65.0637 68.2703 50.9297 63.6946C50.292 63.5126 49.6245 63.8675 49.4188 64.498C49.213 65.1285 49.5427 65.8088 50.165 66.038L62.3874 70.0093C59.7913 70.7437 57.2622 71.6968 54.827 72.8583C50.4651 73.7674 45.9467 73.5938 41.6674 72.3526ZM61.2034 94.9596C56.603 101.311 47.9944 99.5723 46.0334 99.079C44.948 97.3646 40.6314 89.7056 45.244 83.3663C49.388 77.6683 57.0347 73.9806 63.8797 72.18C63.9907 72.3526 64.558 71.4646 55.8507 83.4526C55.5247 84.0031 55.6737 84.7114 56.1939 85.0839C56.714 85.4563 57.4326 85.3692 57.8487 84.8833L65.409 74.474C65.3034 77.1556 65.4231 79.8413 65.7667 82.503C65.3048 86.97 63.7364 91.2513 61.2034 94.9596ZM67 71.44C66.3189 71.44 65.7667 70.8878 65.7667 70.2066C65.7667 69.5255 66.3189 68.9733 67 68.9733C67.6812 68.9733 68.2334 69.5255 68.2334 70.2066C68.2334 70.8878 67.6812 71.44 67 71.44ZM88.756 83.3663C93.3687 89.7056 89.052 97.3646 87.9667 99.079C86.0057 99.5723 77.397 101.311 72.7967 94.9596C68.6034 89.1876 67.5304 80.8873 67.8634 73.7833C68.0607 73.7833 67.3454 72.8336 76.102 84.8833C76.3396 85.2844 76.7831 85.5173 77.2481 85.4852C77.7132 85.4531 78.1205 85.1615 78.3007 84.7315C78.4809 84.3016 78.4033 83.8067 78.1 83.4526L70.5767 73.0433C73.1259 73.9886 75.7497 74.7188 78.4207 75.2263C82.4772 77.0576 86.0251 79.8519 88.756 83.3663ZM70.7 70.441C70.7 70.2313 69.775 70.6136 83.8227 66.038C84.445 65.8088 84.7747 65.1285 84.569 64.498C84.3633 63.8675 83.6958 63.5126 83.058 63.6946L70.8357 67.6166C72.4994 65.4942 73.9844 63.2378 75.2757 60.8703C78.2797 57.5693 82.0431 55.0505 86.24 53.532C93.64 51.0653 99.6464 57.5773 100.929 59.1313C100.806 61.154 99.819 69.8736 92.2957 72.3033C85.574 74.5603 77.36 73.031 70.7 70.441Z" fill="white"/>
</svg>
