<svg width="134" height="134" viewBox="0 0 134 134" fill="none" xmlns="http://www.w3.org/2000/svg">
<circle cx="67" cy="67" r="67" fill="#7DDFC3"/>
<g clip-path="url(#clip0)">
<path d="M103.498 93.4987C100.509 86.1318 93.5944 81.0154 85.7293 80.2731C83.9907 77.0952 81.4701 74.4061 78.3971 72.4607C75.4057 70.5669 72.0019 69.4579 68.4744 69.2157V61.0992H74.3264C86.0655 61.0992 95.6157 51.5489 95.6157 39.8099V32.4836C95.6157 31.6694 94.9556 31.0093 94.1413 31.0093H86.8152C77.8227 31.0093 70.1147 36.6135 67.0001 44.5127C63.8851 36.6135 56.1773 31.0093 47.1848 31.0093H39.8587C39.0444 31.0093 38.3843 31.6694 38.3843 32.4836V39.8099C38.3843 51.549 47.9347 61.0992 59.6736 61.0992H65.5257V69.2157C61.9983 69.4579 58.5946 70.5671 55.6031 72.4607C52.53 74.4061 50.0091 77.0951 48.2709 80.2731C40.4056 81.0154 33.4914 86.1318 30.5022 93.4987C29.6438 95.614 29.8966 98.0131 31.178 99.916C32.4746 101.842 34.6327 102.991 36.9503 102.991H97.0496C99.3673 102.991 101.525 101.842 102.822 99.916C104.103 98.013 104.356 95.614 103.498 93.4987ZM68.4743 52.2989C68.4743 42.1856 76.7019 33.9579 86.8152 33.9579H92.667V39.8098C92.667 49.9229 84.4394 58.1505 74.3262 58.1505H70.5594L86.6284 42.0815C87.2041 41.5059 87.2041 40.5723 86.6284 39.9964C86.0528 39.4207 85.1192 39.4209 84.5433 39.9964L68.4743 56.0657V52.2989ZM47.3714 42.0815L63.4404 58.1507H59.6736C49.5606 58.1507 41.3331 49.9231 41.3331 39.8098V33.9579H47.1848C57.2981 33.9579 65.5257 42.1854 65.5257 52.2987V56.0655L49.4566 39.9965C48.8809 39.4209 47.9475 39.421 47.3714 39.9965C46.7958 40.5722 46.7958 41.5057 47.3714 42.0815ZM100.376 98.2689C99.617 99.396 98.4046 100.042 97.0496 100.042H36.9504C35.5955 100.042 34.3828 99.396 33.6238 98.2689C32.8803 97.1647 32.7384 95.83 33.2344 94.6072C35.9029 88.0308 42.2001 83.5353 49.2774 83.1546C49.8081 83.1259 50.2824 82.8141 50.5187 82.338C53.6499 76.0311 59.9652 72.1131 67.0001 72.1131C73.2129 72.1131 78.8628 75.1704 82.2555 80.2287C80.7266 80.3325 79.2174 80.598 77.7528 81.0236C76.9709 81.2508 76.5211 82.0689 76.7484 82.8508C76.9359 83.4954 77.5244 83.9141 78.1635 83.9141C78.2995 83.9141 78.4383 83.895 78.5756 83.8551C80.2381 83.3719 81.9683 83.127 83.7176 83.127L84.7225 83.1547C91.7998 83.5354 98.097 88.0309 100.765 94.6074C101.262 95.83 101.12 97.1647 100.376 98.2689Z" fill="white"/>
<path d="M74.2239 84.0015C73.7835 83.3167 72.8712 83.1188 72.1864 83.5592C71.9435 83.7156 71.6999 83.8794 71.4628 84.046C70.7965 84.5142 70.636 85.4338 71.104 86.0998C71.3911 86.5084 71.8476 86.7266 72.3116 86.7266C72.6044 86.7266 72.9001 86.6396 73.158 86.4584C73.3623 86.3146 73.5722 86.1735 73.7816 86.0388C74.4664 85.5986 74.6644 84.6864 74.2239 84.0015Z" fill="white"/>
</g>
<defs>
<clipPath id="clip0">
<rect x="30" y="30" width="74" height="74" fill="white"/>
</clipPath>
</defs>
</svg>
