<svg width="134" height="134" viewBox="0 0 134 134" fill="none" xmlns="http://www.w3.org/2000/svg">
<circle cx="67" cy="67" r="67" fill="#7DDFC3"/>
<path d="M103.576 35.9363C103.277 35.6371 102.862 35.4841 102.44 35.518C93.9725 36.1909 85.776 38.303 78.0775 41.796C72.5989 44.2824 67.481 47.422 62.7888 51.1691C62.2288 44.1147 60.3939 37.2834 57.3187 30.8241C57.1369 30.4419 56.7964 30.1585 56.3877 30.0495C55.9789 29.9394 55.5425 30.0151 55.1942 30.255C50.6324 33.3952 46.5528 37.1552 43.0683 41.4308C42.5635 42.0495 42.6567 42.9602 43.2755 43.4643C43.8942 43.9685 44.8043 43.8759 45.3085 43.2571C48.2578 39.6382 51.656 36.4083 55.4268 33.6362C58.2 39.9499 59.7441 46.6181 60.0303 53.4895C58.878 54.5068 57.7523 55.5609 56.6576 56.655C54.1068 59.2058 51.7678 61.9197 49.6416 64.7787C49.4892 64.9125 49.365 65.0779 49.2791 65.2654C46.3563 69.2648 43.8536 73.5465 41.7985 78.0755C39.0733 84.082 37.1882 90.3923 36.172 96.8973C32.3724 86.3341 31.8615 74.7942 34.7899 63.8647C35.7531 60.2706 37.0742 56.7747 38.7177 53.4742C39.0733 52.7595 38.7826 51.8923 38.0678 51.5361C37.3536 51.1804 36.4859 51.4711 36.1302 52.1859C34.4009 55.6591 33.0104 59.3368 31.9975 63.1166C30.1751 69.9191 29.5953 76.8916 30.2762 83.8398C30.9333 90.5509 32.7433 97.0559 35.6554 103.174C35.6577 103.179 35.6605 103.183 35.6633 103.188C35.7328 103.33 35.8248 103.46 35.9388 103.575C36.211 103.847 36.5791 103.998 36.9607 103.998C36.9985 103.998 37.0369 103.996 37.0753 103.993C45.5428 103.32 53.7398 101.208 61.4378 97.7148C65.9668 95.6597 70.2485 93.157 74.248 90.2342C74.4354 90.1484 74.6003 90.0242 74.7346 89.8717C77.5931 87.7456 80.3075 85.4065 82.8583 82.8558C89.1013 76.6127 94.1006 69.4054 97.7167 61.4359C101.21 53.7373 103.322 45.5408 103.995 37.0734C104.029 36.6511 103.876 36.2355 103.576 35.9363ZM96.4775 56.8922H84.6649L100.669 40.8876C99.9067 46.3945 98.493 51.7653 96.4775 56.8922ZM82.6212 54.8484V43.0358C87.7481 41.0197 93.1188 39.6061 98.6257 38.8433L82.6212 54.8484ZM79.7305 44.2463V57.7385L66.6449 70.8242V51.8816C66.6449 51.8765 66.6437 51.8714 66.6437 51.8658C70.7273 48.8538 75.118 46.3025 79.7305 44.2463ZM58.7013 58.6994C60.3154 57.0853 62.0035 55.5609 63.7542 54.1218V73.7153L52.0382 85.4308V66.416C54.0599 63.6987 56.2832 61.1174 58.7013 58.6994ZM49.1476 70.6124V88.3214L38.8458 98.6232C40.2313 88.6223 43.7644 79.0686 49.1476 70.6124ZM40.8896 100.668L51.1919 90.3652H68.9009C60.4447 95.7489 50.891 99.2821 40.8896 100.668ZM80.814 80.8115C78.3959 83.2295 75.8141 85.4534 73.0974 87.4746H54.0825L65.798 75.7591H74.8046C75.603 75.7591 76.25 75.1121 76.25 74.3138C76.25 73.5155 75.603 72.8685 74.8046 72.8685H68.6886L81.7743 59.7828H95.2665C91.8006 67.5587 86.9227 74.7028 80.814 80.8115Z" fill="white"/>
<path d="M81.6802 73.2921C81.4115 73.0233 81.0383 72.8687 80.6583 72.8687C80.2784 72.8687 79.9052 73.0233 79.6364 73.2921C79.3677 73.5608 79.213 73.934 79.213 74.314C79.213 74.6939 79.3677 75.0671 79.6364 75.3358C79.9052 75.6046 80.2784 75.7593 80.6583 75.7593C81.0383 75.7593 81.4115 75.6046 81.6802 75.3358C81.9489 75.0671 82.1036 74.6939 82.1036 74.314C82.1036 73.934 81.9489 73.5608 81.6802 73.2921Z" fill="white"/>
<path d="M40.3425 49.1135C40.7225 49.1135 41.0957 48.96 41.3644 48.6901C41.6331 48.4208 41.7878 48.0482 41.7878 47.6682C41.7878 47.2877 41.6331 46.9151 41.3644 46.6463C41.0957 46.3776 40.7225 46.2229 40.3425 46.2229C39.9609 46.2229 39.5894 46.3776 39.3206 46.6463C39.0508 46.9151 38.8972 47.2877 38.8972 47.6682C38.8972 48.0499 39.0508 48.4208 39.3206 48.6901C39.5894 48.96 39.9609 49.1135 40.3425 49.1135Z" fill="white"/>
</svg>
