<svg width="134" height="134" viewBox="0 0 134 134" fill="none" xmlns="http://www.w3.org/2000/svg">
<circle cx="67" cy="67" r="67" fill="#7DDFC3"/>
<path d="M63.6526 56.0256C63.6526 54.0078 62.0112 52.3672 59.9941 52.3672C57.9768 52.3672 56.3357 54.0078 56.3357 56.0256C56.3357 58.0424 57.9768 59.6841 59.9941 59.6841C62.0112 59.6841 63.6526 58.0424 63.6526 56.0256ZM58.3682 56.0256C58.3682 55.1289 59.0974 54.3997 59.9941 54.3997C60.8911 54.3997 61.6201 55.1289 61.6201 56.0256C61.6201 56.9215 60.8911 57.6516 59.9941 57.6516C59.0974 57.6516 58.3682 56.9215 58.3682 56.0256Z" fill="white"/>
<path d="M73.4669 64.7595C73.4669 66.7771 75.1081 68.418 77.1254 68.418C79.1418 68.418 80.7838 66.7771 80.7838 64.7595C80.7838 62.7422 79.1418 61.1011 77.1254 61.1011C75.1081 61.1011 73.4669 62.7422 73.4669 64.7595ZM77.1254 63.1335C78.0216 63.1335 78.7513 63.8625 78.7513 64.7595C78.7513 65.6557 78.0216 66.3855 77.1254 66.3855C76.2284 66.3855 75.4994 65.6557 75.4994 64.7595C75.4994 63.8625 76.2284 63.1335 77.1254 63.1335Z" fill="white"/>
<path d="M54.8105 74.802C54.8105 77.6607 57.136 79.9861 59.9942 79.9861C62.8524 79.9861 65.1778 77.6607 65.1778 74.802C65.1778 71.9438 62.8524 69.6189 59.9942 69.6189C57.136 69.6189 54.8105 71.9438 54.8105 74.802ZM59.9942 71.6514C61.7318 71.6514 63.1453 73.0649 63.1453 74.802C63.1453 76.5399 61.7318 77.9537 59.9942 77.9537C58.2563 77.9537 56.843 76.5399 56.843 74.802C56.843 73.0646 58.2563 71.6514 59.9942 71.6514Z" fill="white"/>
<path d="M97.8658 63.1782C96.2087 63.1782 94.8613 64.3064 94.4134 65.8204H89.9609C89.3867 63.9229 88.2745 63.0173 88.0425 61.9961C87.7374 60.6544 88.7596 58.4778 87.8981 56.6927C87.0322 54.8969 84.6675 54.3148 83.8396 53.2779C83.5735 52.9446 83.3865 52.4427 83.205 51.9056L91.0359 44.0749C91.6917 44.4692 92.4072 44.748 93.192 44.748C94.3321 44.748 95.403 44.3042 96.2092 43.4979C97.8726 41.8348 97.8726 39.1276 96.2092 37.4639C94.5421 35.797 91.843 35.7968 90.1755 37.4639C88.7663 38.8729 88.6249 40.9964 89.6021 42.6343L82.3947 49.8417C81.7689 48.6379 80.9768 47.9748 79.1771 47.7146C78.6213 47.6344 78.1064 48.0195 78.0257 48.5748C77.9455 49.1303 78.3306 49.6455 78.8869 49.7262C80.3291 49.9349 80.544 50.3338 81.1345 52.1427C81.8773 54.4177 82.2998 54.9402 84.3391 56.1586C86.3054 57.3342 86.3919 57.5567 86.0965 59.7748C85.7754 62.1856 85.9455 62.8354 87.2252 64.7738C88.4921 66.696 88.4921 66.9781 87.2252 68.8992C85.9412 70.8461 85.777 71.497 86.0965 73.8991C86.3924 76.121 86.3014 76.3419 84.338 77.5153C82.3001 78.7329 81.8773 79.2553 81.1345 81.5314C80.4286 83.6934 80.2375 83.8365 77.9915 84.0449C75.6011 84.2661 74.9984 84.5647 73.3694 86.2679C71.7825 87.9269 71.5432 87.9622 69.4614 87.185C68.6246 86.873 67.7601 86.5508 66.8371 86.5508C65.0227 86.5508 63.1884 87.8958 62.0868 87.6456C61.4941 87.5112 60.9169 86.9072 60.3052 86.2679C58.6806 84.5693 58.0817 84.2671 55.6829 84.0444C53.436 83.8365 53.245 83.6926 52.5396 81.5306C51.796 79.2551 51.374 78.7329 49.3353 77.5147C47.3692 76.3394 47.2823 76.1177 47.5774 73.8988C47.8971 71.4994 47.7335 70.8466 46.4489 68.8992C45.182 66.9781 45.182 66.6952 46.4489 64.7736C47.7332 62.8273 47.8974 62.1755 47.5774 59.774C47.2823 57.5553 47.3692 57.3331 49.3359 56.1581C50.0873 55.709 50.8646 55.2448 51.4231 54.5451C51.9843 53.8419 52.2667 52.9779 52.5396 52.1419C52.8119 51.3086 53.0688 50.5214 53.5322 50.1514C53.9902 49.7851 54.8122 49.7092 55.6829 49.6284C58.076 49.4065 58.6774 49.1076 60.3052 47.4054C61.8889 45.7494 62.1261 45.7093 64.213 46.4881C66.4853 47.3361 67.1883 47.3361 69.4614 46.4881C72.0231 45.5323 71.8451 45.9551 73.9632 48.01C74.3653 48.4003 75.0089 48.3913 75.3995 47.9881C75.7908 47.5854 75.7813 46.9418 75.3778 46.5507C75.2003 46.3792 75.0252 46.1949 74.838 46.0001C72.6337 43.6966 71.5537 43.5386 68.7506 44.5844C68.4405 44.6995 68.1425 44.806 67.8533 44.8955V39.2604C69.3668 38.8119 70.4952 37.465 70.4952 35.8076C70.4952 33.7903 68.8538 32.1492 66.8368 32.1492C64.8195 32.1492 63.1783 33.7903 63.1783 35.8076C63.1783 37.465 64.3065 38.8119 65.8206 39.2604V44.8955C65.5319 44.806 65.2339 44.6995 64.923 44.5844C62.1206 43.5386 61.0402 43.6963 58.8359 46.0003C58.3375 46.5214 57.8668 47.0136 57.3994 47.2396C56.9148 47.4732 56.2251 47.5369 55.4948 47.6046C53.4504 47.7943 52.2049 48.0596 51.2792 49.8417L45.595 44.1575C46.6606 42.4232 46.5224 40.1539 45.0216 38.6525C43.2661 36.8965 40.4087 36.8965 38.6527 38.6525C35.0164 42.2893 39.4518 48.4854 44.1577 45.5949L50.4686 51.9056C49.9884 53.3253 49.8074 53.5085 48.2925 54.4134C45.5991 56.0231 45.1598 57.0179 45.5628 60.0428C45.6601 60.7734 45.7519 61.4642 45.6308 61.9961C45.3988 63.0173 44.2867 63.9226 43.7127 65.8204H39.2605C38.812 64.3064 37.4652 63.1782 35.8077 63.1782C33.7904 63.1782 32.1493 64.8194 32.1493 66.8367C32.1493 68.8537 33.7904 70.4951 35.8077 70.4951C37.4652 70.4951 38.812 69.3667 39.2605 67.8529H43.7127C44.2867 69.7507 45.3988 70.6555 45.6313 71.6769C45.9362 73.0184 44.914 75.1961 45.7752 76.9803C46.6416 78.7768 49.0061 79.3583 49.8345 80.3951C50.1003 80.7287 50.2871 81.2309 50.4686 81.7677L46.6186 85.6175C45.2316 84.8641 43.4805 85.0186 42.3092 86.1907C40.003 88.4974 41.6588 92.4339 44.8961 92.4339C47.611 92.4339 49.4253 89.5765 48.056 87.0549L51.2794 83.8314C52.7875 86.734 55.8132 85.6687 57.3994 86.434C58.5985 87.0126 59.6703 89.1811 61.6366 89.6277C63.1019 89.961 64.5106 89.1846 65.8206 88.7781V94.4132C64.3065 94.8612 63.1783 96.2086 63.1783 97.8657C63.1783 99.8827 64.8195 101.524 66.8368 101.524C68.8538 101.524 70.4952 99.8827 70.4952 97.8657C70.4952 96.2086 69.3668 94.8612 67.853 94.4132V88.7781C69.1823 89.1898 70.5741 89.9608 72.0375 89.6277C73.9987 89.1819 75.0846 87.0083 76.2742 86.434C77.8799 85.659 80.8776 86.75 82.3947 83.8314L83.4616 84.8994C83.8589 85.2958 84.5022 85.2958 84.8995 84.8994C85.2962 84.5021 85.2962 83.8585 84.8995 83.4615L83.205 81.7672C83.6854 80.3461 83.8675 80.1643 85.3811 79.2597C88.0739 77.6502 88.514 76.6551 88.1108 73.6305C87.858 71.7317 87.91 71.5515 88.9211 70.0184C89.3457 69.3751 89.7224 68.6404 89.9603 67.8529H94.4125C94.8613 69.3667 96.2087 70.4951 97.8658 70.4951C99.8829 70.4951 101.524 68.8537 101.524 66.8367C101.524 64.8194 99.8829 63.1782 97.8658 63.1782ZM93.192 38.2469C95.1778 38.2469 96.17 40.6633 94.7724 42.0611C93.8987 42.934 92.4858 42.9343 91.6121 42.0611C90.2137 40.6628 91.2069 38.2469 93.192 38.2469ZM65.2108 35.8076C65.2108 34.9109 65.9401 34.1816 66.8368 34.1816C67.7338 34.1816 68.4628 34.9109 68.4628 35.8076C68.4628 36.7046 67.7338 37.4336 66.8368 37.4336C65.9401 37.4336 65.2108 36.7046 65.2108 35.8076ZM40.0903 43.5844C39.1266 42.621 39.1266 41.0533 40.0903 40.0894C41.0534 39.1265 42.6211 39.1265 43.5845 40.0894C44.5482 41.0533 44.5482 42.621 43.5845 43.5844C42.6211 44.5481 41.0534 44.5475 40.0903 43.5844ZM35.8077 68.4626C34.911 68.4626 34.1818 67.7337 34.1818 66.8367C34.1818 65.9399 34.911 65.2107 35.8077 65.2107C36.7047 65.2107 37.4337 65.9399 37.4337 66.8367C37.4337 67.7337 36.7047 68.4626 35.8077 68.4626ZM46.046 89.9272C45.4113 90.5616 44.3799 90.5616 43.746 89.9272C42.7208 88.902 43.4569 87.1524 44.8956 87.1524C46.3338 87.1524 47.072 88.9012 46.046 89.9272ZM68.4628 97.8657C68.4628 98.7627 67.7338 99.4917 66.8368 99.4917C65.9401 99.4917 65.2108 98.7627 65.2108 97.8657C65.2108 96.969 65.9401 96.2397 66.8368 96.2397C67.7338 96.2397 68.4628 96.969 68.4628 97.8657ZM97.8658 68.4626C96.9691 68.4626 96.2399 67.7337 96.2399 66.8367C96.2399 65.9399 96.9691 65.2107 97.8658 65.2107C98.7628 65.2107 99.4918 65.9399 99.4918 66.8367C99.4918 67.7337 98.7628 68.4626 97.8658 68.4626Z" fill="white"/>
<path d="M89.5644 88.127L87.8298 86.3918C87.432 85.9954 86.7889 85.9954 86.3919 86.3918C85.9949 86.7888 85.9949 87.4325 86.3919 87.8297L88.1271 89.5644C87.094 91.2635 87.2328 93.4789 88.7002 94.946C90.4262 96.672 93.2202 96.6726 94.9461 94.946C96.6721 93.2201 96.6721 90.4264 94.9461 88.7002C93.479 87.2327 91.2638 87.094 89.5644 88.127ZM93.509 93.509C92.5774 94.4406 91.0698 94.4406 90.1376 93.509C89.2083 92.5795 89.2083 91.067 90.1376 90.1375C91.0671 89.2083 92.5793 89.2083 93.509 90.1375C94.4407 91.0692 94.441 92.5773 93.509 93.509Z" fill="white"/>
</svg>
