<svg width="134" height="134" viewBox="0 0 134 134" fill="none" xmlns="http://www.w3.org/2000/svg">
<circle cx="67" cy="67" r="67" fill="#7DDFC3"/>
<g clip-path="url(#clip0)">
<path d="M89.5812 44.4077C87.5355 42.362 84.7153 41.4027 81.8429 41.7762C81.0513 41.8791 80.4932 42.6042 80.5959 43.3958C80.6988 44.1874 81.4247 44.7457 82.2155 44.6427C84.1908 44.3858 86.1307 45.0453 87.5373 46.4519C90.0165 48.9313 90.0165 52.9657 87.5373 55.4451C86.3362 56.6463 84.7393 57.3078 83.0408 57.3078C81.3421 57.3078 79.7455 56.6463 78.5443 55.4451C77.1028 54.0035 76.4498 52.0187 76.7525 49.9995C76.8708 49.2101 76.3268 48.4741 75.5374 48.3558C74.7473 48.2378 74.0122 48.7816 73.8938 49.5708C73.4602 52.4632 74.4346 55.4233 76.5003 57.4889C78.2473 59.2361 80.5699 60.1981 83.0407 60.1981C85.5111 60.1981 87.834 59.236 89.5809 57.4887C93.1875 53.8821 93.1875 48.0141 89.5812 44.4077Z" fill="white"/>
<path d="M78.5623 44.3946C77.9992 43.8289 77.0841 43.8269 76.5183 44.39L76.5025 44.4057C75.937 44.9688 75.9349 45.884 76.498 46.4497C76.7804 46.7334 77.1514 46.8753 77.5223 46.8753C77.8911 46.8753 78.26 46.735 78.5421 46.4543L78.5578 46.4385C79.1234 45.8754 79.1254 44.9603 78.5623 44.3946Z" fill="white"/>
<path d="M72.7207 61.269C70.9736 59.5218 68.6508 58.5598 66.1803 58.5598C63.7097 58.5598 61.3868 59.5219 59.6399 61.2689C57.8929 63.0158 56.9308 65.3387 56.9308 67.8093C56.9308 70.2799 57.8929 72.6027 59.6399 74.3497C61.3953 76.105 63.7211 77.0603 66.1605 77.0603C66.5638 77.0603 66.9704 77.0341 67.3783 76.9812C68.1699 76.8785 68.728 76.1534 68.6253 75.3618C68.5224 74.5702 67.798 74.0115 67.0057 74.1148C65.0301 74.3708 63.0904 73.712 61.6839 72.3054C60.4826 71.1044 59.8212 69.5075 59.8212 67.809C59.8212 66.1103 60.4826 64.5136 61.6839 63.3124C62.885 62.1113 64.4817 61.4498 66.1804 61.4498C67.8791 61.4498 69.4757 62.1113 70.6769 63.3125C72.1184 64.7539 72.7714 66.7387 72.4687 68.7581C72.3504 69.5474 72.8944 70.2833 73.6838 70.4017C74.4748 70.5202 75.2092 69.9761 75.3274 69.1866C75.7608 66.2946 74.7864 63.3346 72.7207 61.269Z" fill="white"/>
<path d="M72.723 72.3077C72.1598 71.7419 71.2446 71.74 70.6789 72.3031L70.6632 72.3189C70.0976 72.8819 70.0956 73.7971 70.6587 74.3628C70.9411 74.6465 71.312 74.7884 71.683 74.7884C72.0517 74.7884 72.4206 74.6482 72.7028 74.3674L72.7185 74.3517C73.2841 73.7886 73.2861 72.8734 72.723 72.3077Z" fill="white"/>
<path d="M99.0154 51.8775C98.2452 51.6675 97.4509 52.1212 97.2408 52.8913C97.2393 52.8966 97.2367 52.9064 97.2354 52.9116C97.0338 53.6839 97.4953 54.4789 98.2676 54.6803C98.3909 54.7124 98.5145 54.7279 98.636 54.7279C99.2766 54.7279 99.8602 54.3012 100.03 53.6522C100.24 52.882 99.7856 52.0875 99.0154 51.8775Z" fill="white"/>
<path d="M102.544 56.99H98.2551C98.1052 56.7766 97.898 56.5994 97.6401 56.49C96.9054 56.1781 96.0568 56.5207 95.7449 57.2554C95.6636 57.447 95.58 57.6384 95.495 57.8295C95.4862 57.8484 95.4771 57.867 95.4692 57.8864C90.3816 69.2625 78.8416 79.4983 67.776 82.3722C61.826 83.9173 56.8928 83.1119 53.8851 80.1044C51.876 78.0952 50.8496 75.2271 50.85 71.7705C50.8501 70.0523 51.1041 68.1889 51.6172 66.2132C54.9661 53.3183 68.1813 40.1029 81.0763 36.7542C86.6614 35.3037 91.4109 35.939 94.4497 38.543C96.766 40.5281 97.9964 43.6326 97.9961 47.4077C97.996 48.0156 97.964 48.6407 97.8996 49.2814C97.8948 49.3303 97.8922 49.3788 97.8922 49.4269C97.8918 50.1604 98.4476 50.7891 99.193 50.8641C99.9872 50.9439 100.696 50.3649 100.776 49.5707C100.85 48.8312 100.887 48.1072 100.887 47.4011C100.888 43.7118 99.8824 40.5047 97.97 38.0636L103.566 32.4673C104.131 31.9029 104.131 30.9877 103.566 30.4235C103.002 29.8591 102.087 29.8591 101.522 30.4235L95.9272 36.0182C92.1544 33.0551 86.649 32.3204 80.3498 33.9564C78.7608 34.369 77.1577 34.9227 75.5572 35.6038V31.4453C75.5572 30.6471 74.91 30 74.1119 30C73.3138 30 72.6666 30.6471 72.6666 31.4453V36.975C68.8838 38.9559 65.1746 41.6312 61.7676 44.862L58.6507 41.7449C58.0862 41.1805 57.1713 41.1805 56.6066 41.7449C56.0422 42.3093 56.0422 43.2245 56.6066 43.789L59.7237 46.9061C56.4336 50.3759 53.7198 54.1588 51.7287 58.014H46.0732C45.2751 58.014 44.6279 58.6611 44.6279 59.4593C44.6279 60.2576 45.2751 60.9046 46.0732 60.9046H50.3778C49.7373 62.4353 49.2139 63.9676 48.8194 65.4871C48.2438 67.7031 47.9591 69.812 47.9588 71.7786C47.9588 72.1083 47.9695 72.4323 47.9854 72.7539C46.7477 74.2057 46.5127 75.6677 46.3229 76.8641C46.1393 78.022 46.0068 78.8585 45.1103 79.755C44.1827 80.6825 43.2469 80.8448 42.062 81.05C40.7639 81.2749 39.1484 81.5549 37.6776 83.0256C36.2008 84.5024 35.9055 86.1431 35.6685 87.4616C35.4557 88.6433 35.2879 89.5765 34.408 90.4572C33.8439 91.0218 33.8444 91.9368 34.4089 92.5011C34.6912 92.7831 35.0609 92.924 35.4304 92.924C35.8006 92.924 36.1706 92.7826 36.4528 92.5002C37.9724 90.9793 38.2723 89.3128 38.5131 87.9736C38.7209 86.8182 38.8851 85.9058 39.7214 85.0697C40.5443 84.2467 41.3878 84.1006 42.5552 83.8984C43.9022 83.665 45.5786 83.3745 47.1539 81.7994C48.4773 80.4761 48.8624 79.1107 49.0749 77.9321C49.5526 79.1148 50.1798 80.1989 50.9598 81.1669C50.1366 82.4041 49.9408 83.6196 49.779 84.6411C49.5955 85.799 49.4629 86.6355 48.5664 87.5319C47.6388 88.4593 46.7029 88.6216 45.5182 88.8269C44.22 89.0517 42.6046 89.3317 41.1337 90.8024C39.6569 92.2792 39.3616 93.9199 39.1246 95.2385C38.9119 96.4202 38.7439 97.3534 37.865 98.2331C36.9846 99.1129 36.0512 99.2808 34.8697 99.4934C33.5511 99.7308 31.9103 100.026 30.4336 101.503C29.8692 102.067 29.8692 102.982 30.4336 103.546C30.7159 103.829 31.0857 103.97 31.4556 103.97C31.8254 103.97 32.1953 103.829 32.4775 103.546C33.3136 102.71 34.2262 102.546 35.3814 102.338C36.7206 102.097 38.3872 101.798 39.909 100.277C41.4285 98.7563 41.7284 97.0898 41.9692 95.7505C42.1771 94.5952 42.3413 93.6828 43.1775 92.8467C44.0005 92.0237 44.8439 91.8774 46.0113 91.6752C47.3583 91.4418 49.0347 91.1513 50.6101 89.5762C52.1707 88.0156 52.4272 86.3956 52.6336 85.0938C52.7455 84.3875 52.84 83.7993 53.0977 83.2411C54.3603 84.2012 55.8064 84.9166 57.4077 85.382C56.9967 86.2957 56.8555 87.1733 56.7339 87.9407C56.5504 89.0986 56.4179 89.9351 55.5213 90.8315C54.5937 91.7589 53.6578 91.9212 52.4731 92.1265C51.1749 92.3514 49.5595 92.6313 48.0886 94.102C46.6118 95.5788 46.3165 97.2195 46.0795 98.5381C45.8668 99.7198 45.6988 100.653 44.8191 101.534C44.255 102.098 44.2554 103.013 44.8199 103.577C45.1022 103.859 45.4719 104 45.8415 104C46.2116 104 46.5816 103.859 46.8639 103.577C48.3835 102.056 48.6834 100.389 48.9243 99.0499C49.1321 97.8945 49.2963 96.9821 50.1326 96.146C50.9555 95.323 51.799 95.1768 52.9663 94.9746C54.3134 94.7411 55.9898 94.4506 57.5651 92.8756C59.1258 91.3149 59.3824 89.6949 59.5887 88.3931C59.7409 87.4326 59.8591 86.6898 60.4031 85.9448C60.9903 86.0004 61.5909 86.0318 62.2071 86.0318C64.1745 86.0318 66.285 85.7469 68.5018 85.1711C69.8871 84.8114 71.279 84.3433 72.6659 83.7797V87.4988C72.6659 88.297 73.3131 88.9441 74.1112 88.9441C74.9093 88.9441 75.5565 88.297 75.5565 87.4988V82.4634C79.6157 80.4162 83.5576 77.5916 87.0778 74.2616L90.2084 77.3923C90.4907 77.6745 90.8605 77.8156 91.2304 77.8156C91.6003 77.8156 91.9701 77.6745 92.2524 77.3923C92.8168 76.8279 92.8168 75.9127 92.2524 75.3482L89.123 72.2188C92.6511 68.5012 95.6399 64.2817 97.7311 59.8815H102.543C103.342 59.8815 103.989 59.2344 103.989 58.4362C103.989 57.6378 103.342 56.99 102.544 56.99Z" fill="white"/>
</g>
<defs>
<clipPath id="clip0">
<rect x="30" y="30" width="74" height="74" fill="white"/>
</clipPath>
</defs>
</svg>
