<svg width="134" height="134" viewBox="0 0 134 134" fill="none" xmlns="http://www.w3.org/2000/svg">
<circle cx="67" cy="67" r="67" fill="#7DDFC3"/>
<g clip-path="url(#clip0)">
<path d="M68.9833 90.5618C68.9833 91.3644 68.3308 92.0184 67.5268 92.0184C66.7242 92.0184 66.0702 91.3644 66.0702 90.5618C66.0702 89.7593 66.7242 89.1053 67.5268 89.1053C68.3308 89.1053 68.9833 89.7593 68.9833 90.5618ZM104 65.4322C104 68.6341 101.727 71.4672 98.283 71.8104C97.1344 71.9248 96.2104 72.4687 95.6103 73.3601C93.6309 76.3198 91.8172 79.4318 90.3755 82.6776C88.378 87.1742 83.2286 92.0184 75.8145 92.0184H74.0841C74.0827 92.0184 74.0827 92.0184 74.0812 92.0184C73.2787 92.0184 72.6247 91.3658 72.6247 90.5618C72.6247 89.7593 73.2787 89.1053 74.0812 89.1053H75.8145C80.8993 89.1053 85.5777 86.1019 87.7333 81.4526C89.2904 78.0939 91.1256 74.8268 93.1881 71.7419C94.2528 70.1426 96.0047 69.1337 97.9859 68.9118C99.9646 68.6903 101.092 67.0693 101.087 65.4322C101.083 64.2828 100.593 63.3479 99.6551 62.6502C98.5088 61.8083 97.2467 61.1405 95.8972 60.6839C93.5653 59.8947 90.4272 60.4138 88.5024 63.0944C80.0958 74.8024 68.4869 78.3636 64.6385 79.342C63.6253 80.5532 58.9466 85.5589 50.781 85.5589C45.718 85.5589 40.8984 86.7575 36.4574 89.1054H60.9724C61.7764 89.1054 62.4289 89.7594 62.4289 90.562C62.4289 91.3645 61.7764 92.0185 60.9724 92.0185H31.4556C30.1354 92.0185 29.4281 90.2921 30.5788 89.3982C34.0598 86.6937 38.8126 84.5763 42.5228 83.6756C39.4878 82.2166 36.7366 79.9764 34.8476 76.9036C27.1472 64.3772 33.2186 51.2467 41.4698 46.1263C53.3083 38.7799 69.4337 41.0914 77.7257 53.9274C80.0789 57.5702 81.6371 61.6688 82.3047 65.9238C83.6006 64.6038 84.8032 63.1978 85.8972 61.7187C85.9693 56.035 87.2678 50.5832 89.767 45.5079C90.1223 44.7862 90.9955 44.4893 91.7171 44.8447C92.4388 45.2001 92.7357 46.0733 92.3803 46.7949C90.6088 50.3921 89.4899 54.195 89.0358 58.1434C92.724 54.4505 97.1424 51.5473 102.004 49.6474C102.753 49.3546 103.598 49.7244 103.891 50.4738C104.184 51.2231 103.814 52.0677 103.065 52.3606C99.8755 53.607 96.8942 55.3234 94.213 57.4351C95.11 57.4709 95.9941 57.6368 96.8454 57.9298C98.4695 58.4891 99.9999 59.28 101.378 60.3011C103.418 61.8117 104 63.926 104 65.4322ZM75.215 68.1541C72.9968 69.7269 70.6047 71.041 68.0966 72.0731C67.8587 73.2893 67.4812 74.4774 66.9715 75.6124C71.6128 74.0285 75.8679 71.605 79.6648 68.3803C79.2861 63.8141 77.8267 59.3457 75.2786 55.5075C70.0269 47.5967 62.3564 44.7426 55.507 44.8571C49.1923 44.9627 42.4612 47.1748 37.525 53.9615C33.226 59.8723 33.067 69.0942 37.2944 75.3228C42.2548 82.6313 52.0648 84.9461 59.4421 80.0881C66.2197 75.625 66.8399 67.1395 63.3756 61.8063C60.1094 56.7779 53.3781 55.3181 48.3411 58.5714C44.2181 61.2344 43.0303 66.7553 45.6931 70.8783C47.6373 73.8885 51.6607 74.7441 54.6787 72.8116C57.5932 70.9453 57.4805 67.2524 56.2332 65.586C55.7513 64.9419 55.9907 64.0086 56.6665 63.5722C57.3422 63.1358 58.2326 63.3369 58.6804 64.0055C60.6659 66.9701 60.6378 72.4113 56.259 75.2587C51.9082 78.088 46.0618 76.8185 43.2459 72.4587C39.7114 66.9863 41.2881 59.6587 46.7605 56.1243C53.1467 52 61.698 53.8397 65.8225 60.2259C66.3687 61.0716 66.8246 61.9497 67.1944 62.8491C67.849 62.501 68.4903 62.1301 69.1084 61.7333C69.7854 61.2991 70.6865 61.4954 71.1209 62.1724C71.5554 62.8494 71.3588 63.7505 70.6818 64.1849C69.8402 64.725 68.9628 65.2264 68.0631 65.6837C68.2746 66.7027 68.3848 67.7332 68.3971 68.7608C70.1905 67.9227 71.9105 66.9256 73.5296 65.7777C74.1858 65.3124 75.095 65.4673 75.5603 66.1234C76.026 66.7798 75.8711 67.6888 75.215 68.1541Z" fill="white"/>
</g>
<defs>
<clipPath id="clip0">
<rect x="30" y="30" width="74" height="74" fill="white"/>
</clipPath>
</defs>
</svg>
