<svg width="134" height="134" viewBox="0 0 134 134" fill="none" xmlns="http://www.w3.org/2000/svg">
<circle cx="67" cy="67" r="67" fill="#7DDFC3"/>
<g clip-path="url(#clip0)">
<path d="M89.7475 60.6493C89.6746 59.1313 89.4928 57.6054 89.2071 56.114C89.1201 55.6605 88.8241 55.2747 88.4083 55.0736C84.38 53.1249 81.0813 49.8327 79.1199 45.8033C78.9181 45.389 78.5327 45.094 78.0799 45.0076C76.6223 44.7296 74.3675 44.4491 72.6157 44.4491C67.0957 44.4491 61.6854 46.8193 57.3817 51.1229C54.2332 54.2714 47.2389 62.8792 47.2389 75.6615C47.2389 81.845 52.3544 86.8908 58.6422 86.9093H58.6476C67.6021 86.9093 76.5685 83.185 83.2477 76.6914C87.6625 72.3996 90.0315 66.5525 89.7475 60.6493ZM86.4625 57.3644C86.5831 58.0883 86.6738 58.8194 86.74 59.5515L79.8432 60.9997L73.1566 54.313L73.9187 47.4201C74.9145 47.4877 75.9701 47.6173 76.8347 47.7561C78.9956 51.843 82.3752 55.216 86.4625 57.3644ZM73.7338 80.0825L72.0811 70.1616L76.878 70.2402L80.3267 75.4223C78.308 77.2482 76.088 78.8112 73.7338 80.0825ZM68.9877 69.374L69.8041 74.2747L62.4039 75.6634L58.5562 71.8156L59.9449 64.4154L64.8456 65.2318L68.9877 69.374ZM60.8583 51.8948C63.8813 49.3511 67.3807 47.8154 70.975 47.4549L70.2861 53.686L65.8556 54.8237L60.8583 51.8948ZM62.9755 78.5293L70.2844 77.1579L70.9919 81.4055C67.742 82.7946 64.3029 83.6508 60.8339 83.9056L62.9755 78.5293ZM76.5599 67.3126L70.967 67.221L67.0158 63.2698L67.0837 57.5254L71.1835 56.4726L77.7359 63.0248L76.5599 67.3126ZM58.6711 53.9999L64.1649 57.2199L64.1066 62.1466L54.0651 60.4739C55.3302 58.1229 56.8779 55.9356 58.6711 53.9999ZM52.7489 63.2169L57.0617 63.9353L55.6891 71.2499L50.2437 73.4587C50.5016 69.9575 51.3658 66.4749 52.7489 63.2169ZM50.2196 76.6218L56.6295 74.0218L60.2023 77.5946L57.6793 83.9285C53.7767 83.48 50.6712 80.4374 50.2196 76.6218ZM82.4249 73.3006L79.2543 68.5367L80.5426 63.8388L86.8222 62.5202C86.6116 66.4217 85.0648 70.2141 82.4249 73.3006ZM103.882 68.6714C103.501 64.4385 101.804 60.3592 98.974 56.8744C98.0077 55.6842 96.698 55.1036 95.0005 55.1166C94.6884 53.5045 94.3348 52.3103 94.1567 51.6895C94.0172 51.205 93.6443 50.83 93.1599 50.6904C93.0368 50.6548 92.9149 50.6168 92.7933 50.5778L93.1594 49.1501C94.4602 48.4175 95.6509 47.5143 96.7059 46.4592C99.946 43.2191 101.695 38.7196 101.505 34.1146C101.474 33.355 100.865 32.7465 100.106 32.715C95.4991 32.5254 91.0009 34.274 87.7608 37.5142C86.7057 38.5694 85.8026 39.7601 85.07 41.0606L83.6448 41.4261C83.6064 41.306 83.5687 41.1856 83.5336 41.0642C83.3941 40.5797 83.0191 40.2067 82.5346 40.0673C81.8849 39.8809 80.6066 39.5024 78.8791 39.1804C78.9355 37.3951 78.3578 36.0266 77.1262 35.0265C73.6408 32.1965 69.5615 30.4994 65.3287 30.1182C57.4129 29.405 49.468 31.943 43.5303 37.0809C42.6944 37.8042 42.3698 38.9562 42.7034 40.0161C43.0356 41.0712 43.9572 41.8263 45.0512 41.9398C48.283 42.275 54.0606 42.5311 58.5465 42.7077C56.721 43.8526 54.9067 45.2905 53.1498 47.0909C45.9378 54.4813 43.1601 62.5322 42.0837 68.2072C42.081 68.2063 42.0783 68.2052 42.0754 68.2043C41.0372 67.8618 39.9296 67.9531 38.9567 68.4613C34.9729 70.5421 32.0063 73.609 30.139 77.577C29.995 77.8833 29.9616 78.2301 30.0448 78.5581C30.532 80.4798 31.7962 82.1025 33.8586 83.2855C36.8669 85.0113 39.4419 83.7839 40.4838 83.064C41.0187 82.6945 41.5198 82.2654 41.9872 81.7811C42.526 84.6751 43.3636 87.2843 44.2186 89.2319C44.3467 89.5237 44.5933 89.8303 44.9913 90.0046C46.8551 90.821 49.3234 91.6236 52.0673 92.1637C51.6454 92.588 51.2658 93.038 50.9356 93.516C50.2159 94.5578 48.9885 97.1329 50.7141 100.141C51.8971 102.203 53.52 103.468 55.4416 103.955C55.7697 104.038 56.1164 104.005 56.4226 103.861C60.3905 101.994 63.4575 99.0269 65.5384 95.0431C66.0071 94.1456 66.1202 93.1338 65.8664 92.1675C68.4625 91.6852 71.5677 90.8476 74.8876 89.385C76.6363 88.6171 75.4409 85.8948 73.6922 86.6625C68.9765 88.7725 63.9323 89.9092 58.9205 89.9086C54.6558 89.9086 50.5369 89.1121 46.6804 87.5428C45.1111 83.6863 44.3146 79.5672 44.3146 75.3027C44.3135 65.8922 48.322 56.3671 55.2551 49.1178C64.6553 39.2879 75.8934 41.381 80.9783 42.6681C81.3978 43.8913 82.5238 46.6456 85.0622 49.184C87.6004 51.7222 90.3321 52.8256 91.5552 53.245C92.8424 58.33 94.9354 69.568 85.1055 78.9681C84.8288 79.2327 84.5489 79.493 84.2658 79.749C82.8307 81.0475 84.7999 83.2236 86.2349 81.925C86.535 81.6483 86.8344 81.3644 87.1326 81.0735C88.8281 79.4189 90.203 77.7135 91.3137 75.9958C91.4895 80.3959 91.7383 85.8457 92.0602 88.9486C92.1737 90.0426 92.9287 90.9642 93.9839 91.2965C95.0437 91.63 96.1959 91.3055 96.9191 90.4695C102.057 84.5321 104.595 76.5872 103.882 68.6714ZM58.9207 92.8304C59.5725 92.824 60.9777 92.8153 62.9066 92.6047C63.0872 92.8713 63.1851 93.2447 62.9486 93.6903C61.2135 96.9595 58.8557 99.3569 55.6854 100.969C54.7357 100.591 53.9275 99.8275 53.2259 98.6476C52.5745 97.552 52.618 96.2219 53.34 95.1769C54.0064 94.2122 54.9268 93.4072 56.1382 92.7294C57.0573 92.8029 57.9881 92.8397 58.9207 92.8304ZM38.8229 80.6602C37.778 81.3821 36.4478 81.4258 35.3522 80.7743C34.1723 80.0726 33.4085 79.2645 33.0308 78.3148C34.643 75.1446 37.0403 72.7868 40.3095 71.0517C40.9012 70.7376 41.3656 71.0128 41.6215 71.2889C41.4076 73.2331 41.3994 74.6481 41.393 75.3031C41.3857 76.0454 41.4077 76.7866 41.4536 77.522C40.739 78.9029 39.876 79.9328 38.8229 80.6602ZM64.2461 40.0156C59.9818 39.8533 49.5617 39.44 45.7027 39.0684C51.0148 34.596 58.0515 32.3965 65.0666 33.0286C68.7186 33.3573 72.2518 34.8327 75.284 37.2946C75.5101 37.4783 75.9135 37.8067 75.959 38.7698C72.6894 38.4601 68.5732 38.5778 64.2461 40.0156ZM84.8445 44.1347L86.4164 43.7316C86.8221 43.6276 87.1637 43.3542 87.3545 42.9812C87.9982 41.7212 88.8301 40.577 89.8268 39.5802C92.1968 37.2103 95.2614 35.8411 98.5732 35.6464C98.3786 38.9583 97.0094 42.0231 94.6394 44.393C93.6429 45.3897 92.4986 46.2216 91.2385 46.8653C90.8653 47.056 90.592 47.3976 90.4879 47.8035L90.0846 49.3767C88.9996 48.7502 88.003 47.9835 87.1232 47.1004C86.239 46.2194 85.4714 45.2214 84.8445 44.1347ZM94.9316 88.2974C94.5811 84.6576 94.1937 75.1808 94.0144 70.538C95.6679 65.9141 95.7818 61.4983 95.4332 58.0571C96.2407 58.1454 96.5353 58.5069 96.7053 58.7163C99.1674 61.7485 100.643 65.2817 100.971 68.9336C101.604 75.9486 99.4043 82.9853 94.9316 88.2974ZM81.4948 84.8265C81.4948 85.6331 80.841 86.2869 80.0343 86.2869C79.2277 86.2869 78.5739 85.6331 78.5739 84.8265C78.5739 84.0198 79.2277 83.366 80.0343 83.366C80.841 83.366 81.4948 84.0198 81.4948 84.8265Z" fill="white"/>
</g>
<defs>
<clipPath id="clip0">
<rect x="35" y="27" width="74" height="74" fill="white"/>
</clipPath>
</defs>
</svg>
