<svg width="74" height="74" viewBox="0 0 74 74" fill="none" xmlns="http://www.w3.org/2000/svg">
<path d="M73.5764 5.93632C73.2772 5.6371 72.8623 5.4841 72.44 5.51797C63.9725 6.19094 55.776 8.30302 48.0775 11.796C42.5989 14.2824 37.481 17.422 32.7888 21.1691C32.2288 14.1147 30.3939 7.28339 27.3187 0.824107C27.1369 0.441891 26.7964 0.158475 26.3877 0.0495122C25.9789 -0.0605797 25.5425 0.0150733 25.1942 0.255017C20.6324 3.39518 16.5528 7.15524 13.0683 11.4308C12.5635 12.0495 12.6567 12.9602 13.2755 13.4643C13.8942 13.9685 14.8043 13.8759 15.3085 13.2571C18.2578 9.63823 21.656 6.40831 25.4268 3.63625C28.2 9.94988 29.7441 16.6181 30.0303 23.4895C28.878 24.5068 27.7523 25.5609 26.6576 26.655C24.1068 29.2058 21.7678 31.9197 19.6416 34.7787C19.4892 34.9125 19.365 35.0779 19.2791 35.2654C16.3563 39.2648 13.8536 43.5465 11.7985 48.0755C9.07334 54.082 7.18823 60.3923 6.172 66.8973C2.37241 56.3341 1.86148 44.7942 4.78992 33.8647C5.75308 30.2706 7.07418 26.7747 8.71766 23.4742C9.07334 22.7595 8.78258 21.8923 8.06783 21.5361C7.35365 21.1804 6.4859 21.4711 6.13022 22.1859C4.40093 25.6591 3.01038 29.3368 1.99754 33.1166C0.175094 39.9191 -0.404723 46.8916 0.276153 53.8398C0.933316 60.5509 2.74334 67.0559 5.65541 73.1737C5.65767 73.1793 5.66049 73.1833 5.66331 73.1883C5.73276 73.33 5.82478 73.4605 5.93883 73.5745C6.21095 73.8466 6.57905 73.9979 6.9607 73.9979C6.99853 73.9979 7.03692 73.9962 7.07531 73.9934C15.5428 73.3204 23.7398 71.2078 31.4378 67.7148C35.9668 65.6597 40.2485 63.157 44.248 60.2342C44.4354 60.1484 44.6003 60.0242 44.7346 59.8717C47.5931 57.7456 50.3075 55.4065 52.8583 52.8558C59.1013 46.6127 64.1006 39.4054 67.7167 31.4359C71.2098 23.7373 73.3224 15.5408 73.9954 7.07337C74.0287 6.65107 73.8757 6.23555 73.5764 5.93632ZM66.4775 26.8922H54.6649L70.6695 10.8876C69.9067 16.3945 68.493 21.7653 66.4775 26.8922ZM52.6212 24.8484V13.0358C57.7481 11.0197 63.1188 9.60605 68.6257 8.84331L52.6212 24.8484ZM49.7305 14.2463V27.7385L36.6449 40.8242V21.8816C36.6449 21.8765 36.6437 21.8714 36.6437 21.8658C40.7273 18.8538 45.118 16.3025 49.7305 14.2463ZM28.7013 28.6994C30.3154 27.0853 32.0035 25.5609 33.7542 24.1218V43.7153L22.0382 55.4308V36.416C24.0599 33.6987 26.2832 31.1174 28.7013 28.6994ZM19.1476 40.6124V58.3214L8.84582 68.6232C10.2313 58.6223 13.7644 49.0686 19.1476 40.6124ZM10.8896 70.6675L21.1919 60.3652H38.9009C30.4447 65.7489 20.891 69.2821 10.8896 70.6675ZM50.814 50.8115C48.3959 53.2295 45.8141 55.4534 43.0974 57.4746H24.0825L35.798 45.7591H44.8046C45.603 45.7591 46.25 45.1121 46.25 44.3138C46.25 43.5155 45.603 42.8685 44.8046 42.8685H38.6886L51.7743 29.7828H65.2665C61.8006 37.5587 56.9227 44.7028 50.814 50.8115Z" fill="white"/>
</svg>
