<svg width="74" height="72" viewBox="0 0 74 72" fill="none" xmlns="http://www.w3.org/2000/svg">
<path d="M63.0974 43.696C73.2107 40.4153 73.4204 28.2916 73.4204 27.786C73.4204 27.5191 73.3338 27.2594 73.1737 27.046C72.8777 26.6266 65.5887 16.945 55.4754 20.238C52.6861 21.1787 50.0758 22.5839 47.7547 24.3943C48.7682 21.6273 49.3021 18.7076 49.3334 15.761C49.3334 5.12962 37.8757 1.18295 37.3947 1.02262C37.1387 0.936146 36.8614 0.936146 36.6054 1.02262C36.1244 1.18295 24.6667 5.12962 24.6667 15.8226C24.7011 18.7689 25.2349 21.6881 26.2454 24.456C23.9207 22.6221 21.3017 21.1959 18.5 20.238C8.39904 16.945 1.12238 26.6266 0.826379 27.046C0.666265 27.2594 0.579712 27.5191 0.579712 27.786C0.579712 28.2916 0.789379 40.4153 10.9027 43.696C13.7127 44.5808 16.6537 44.9771 19.5977 44.8676C17.1524 46.5065 15.0045 48.5502 13.246 50.911C6.99304 59.5443 13.949 69.411 14.2574 69.855C14.406 70.0771 14.6291 70.2389 14.8864 70.3113C16.8632 70.8773 18.9105 71.1597 20.9667 71.15C29.7234 71.15 34.5334 65.9083 37 57.5833C39.5284 65.9576 44.3137 71.15 53.0334 71.15C55.0861 71.1545 57.1291 70.868 59.1014 70.299C59.3587 70.2266 59.5817 70.0648 59.7304 69.8426C60.0387 69.4233 66.9947 59.5073 60.7417 50.8986C58.9808 48.5444 56.838 46.5017 54.4024 44.8553C57.3455 44.966 60.286 44.574 63.0974 43.696ZM37 3.52628C38.8747 4.26628 46.8667 7.90462 46.8667 15.7733C46.8667 22.8896 42.846 30.2773 38.3814 35.778C38.1594 35.6916 38.2334 36.888 38.2334 21.94C38.2334 21.2588 37.6812 20.7066 37 20.7066C36.3189 20.7066 35.7667 21.2588 35.7667 21.94V34.7913C34.27 32.5558 32.591 30.4479 30.747 28.489C28.5173 24.6111 27.2763 20.2442 27.1334 15.7733C27.1334 7.92928 35.1254 4.27862 37 3.52628ZM11.6674 41.3526C4.20571 38.886 3.19438 30.191 3.03404 28.1806C4.26738 26.6266 10.2367 20.1516 17.723 22.5813C24.5064 24.789 30.2784 30.8816 34.1264 36.851C34.003 37.0113 35.0637 37.2703 20.9297 32.6946C20.292 32.5126 19.6245 32.8675 19.4188 33.498C19.213 34.1285 19.5427 34.8088 20.165 35.038L32.3874 39.0093C29.7913 39.7437 27.2622 40.6968 24.827 41.8583C20.4651 42.7674 15.9467 42.5938 11.6674 41.3526ZM31.2034 63.9596C26.603 70.3113 17.9944 68.5723 16.0334 68.079C14.948 66.3646 10.6314 58.7056 15.244 52.3663C19.388 46.6683 27.0347 42.9806 33.8797 41.18C33.9907 41.3526 34.558 40.4646 25.8507 52.4526C25.5247 53.0031 25.6737 53.7114 26.1939 54.0839C26.714 54.4563 27.4326 54.3692 27.8487 53.8833L35.409 43.474C35.3034 46.1556 35.4231 48.8413 35.7667 51.503C35.3048 55.97 33.7364 60.2513 31.2034 63.9596ZM37 40.44C36.3189 40.44 35.7667 39.8878 35.7667 39.2066C35.7667 38.5255 36.3189 37.9733 37 37.9733C37.6812 37.9733 38.2334 38.5255 38.2334 39.2066C38.2334 39.8878 37.6812 40.44 37 40.44ZM58.756 52.3663C63.3687 58.7056 59.052 66.3646 57.9667 68.079C56.0057 68.5723 47.397 70.3113 42.7967 63.9596C38.6034 58.1876 37.5304 49.8873 37.8634 42.7833C38.0607 42.7833 37.3454 41.8336 46.102 53.8833C46.3396 54.2844 46.7831 54.5173 47.2481 54.4852C47.7132 54.4531 48.1205 54.1615 48.3007 53.7315C48.4809 53.3016 48.4033 52.8067 48.1 52.4526L40.5767 42.0433C43.1259 42.9886 45.7497 43.7188 48.4207 44.2263C52.4772 46.0576 56.0251 48.8519 58.756 52.3663ZM40.7 39.441C40.7 39.2313 39.775 39.6136 53.8227 35.038C54.445 34.8088 54.7747 34.1285 54.569 33.498C54.3633 32.8675 53.6958 32.5126 53.058 32.6946L40.8357 36.6166C42.4994 34.4942 43.9844 32.2378 45.2757 29.8703C48.2797 26.5693 52.0431 24.0505 56.24 22.532C63.64 20.0653 69.6464 26.5773 70.929 28.1313C70.8057 30.154 69.819 38.8736 62.2957 41.3033C55.574 43.5603 47.36 42.031 40.7 39.441Z" fill="white"/>
</svg>
