<svg width="62" height="74" viewBox="0 0 62 74" fill="none" xmlns="http://www.w3.org/2000/svg">
<path d="M53.4023 62.1791L52.9764 61.9332C53.077 61.5664 53.1319 61.1808 53.1319 60.7823C53.1319 60.2124 53.0208 59.6683 52.8209 59.1691L53.3812 58.6087C53.9456 58.0443 53.9456 57.1291 53.3812 56.5646C52.8168 56.0001 51.9016 56.0002 51.3371 56.5646L50.9129 56.9888C50.281 56.6315 49.5523 56.4264 48.776 56.4264C48.3843 56.4264 48.0164 56.2741 47.7399 55.9976C47.4632 55.721 47.3109 55.3531 47.3109 54.9615C47.3109 54.4625 47.2255 53.9834 47.0704 53.5367L47.6899 52.9172C48.2543 52.3528 48.2543 51.4376 47.6899 50.8731C47.1255 50.3086 46.2103 50.3087 45.6458 50.8731L45.2545 51.2644C44.5866 50.8475 43.7988 50.6056 42.9552 50.6056C42.8249 50.6056 42.6965 50.6124 42.5691 50.6236L42.1915 49.9695C41.7924 49.2782 40.9083 49.0413 40.2172 49.4405C39.5259 49.8396 39.289 50.7235 39.6882 51.4148L39.9294 51.8325C39.5247 52.224 39.1956 52.6928 38.966 53.2151H38.2267C37.4284 53.2151 36.7814 53.8622 36.7814 54.6604C36.7814 55.4586 37.4284 56.1057 38.2267 56.1057H38.665C38.7538 56.9035 38.9334 57.6811 39.2023 58.4252L38.7259 58.7002C38.0346 59.0994 37.7979 59.9832 38.1969 60.6746C38.4647 61.1383 38.9503 61.3974 39.4498 61.3974C39.695 61.3974 39.9437 61.3349 40.1712 61.2035L40.5658 60.9757C40.8712 61.3906 41.2092 61.7859 41.5804 62.1571C41.7746 62.3513 41.977 62.5343 42.1837 62.7108L41.9008 63.2008C41.5016 63.8921 41.7385 64.776 42.4298 65.1751C42.6574 65.3066 42.9059 65.369 43.1512 65.369C43.6507 65.369 44.1364 65.1097 44.4041 64.6461L44.6287 64.2571C45.3529 64.5807 46.1142 64.8185 46.9006 64.9643V65.5109C46.9006 66.3092 47.5476 66.9563 48.3459 66.9563C49.1441 66.9563 49.7912 66.3092 49.7912 65.5109V65.0175C50.3504 64.8835 50.8677 64.6416 51.3202 64.3147L51.9572 64.6823C52.1848 64.8139 52.4332 64.8763 52.6785 64.8763C53.178 64.8763 53.6638 64.617 53.9314 64.1534C54.3305 63.4621 54.0935 62.5781 53.4023 62.1791ZM44.4203 54.9613C44.4203 56.1251 44.8732 57.219 45.6958 58.0416C46.5183 58.864 47.6123 59.3171 48.776 59.3171C49.5839 59.3171 50.2413 59.9744 50.2413 60.7823C50.2413 61.5902 49.5839 62.2474 48.776 62.2474C46.8302 62.2474 45.0006 61.4895 43.6242 60.1131C42.2478 58.7369 41.4899 56.9073 41.4899 54.9613C41.4899 54.1534 42.1472 53.4962 42.9552 53.4962C43.7631 53.4962 44.4203 54.1535 44.4203 54.9613Z" fill="white"/>
<path d="M46.8985 42.2697C46.8985 42.2657 46.8988 42.2615 46.8988 42.2573C46.8988 39.4927 46.2002 36.4353 44.8224 33.153C45.4555 32.8181 46.0457 32.3854 46.5728 31.8602C47.9577 30.4806 48.752 28.5865 48.752 26.6636C48.752 23.9712 47.0818 21.3184 46.0863 19.9766C45.2956 18.9108 43.2682 16.4321 41.5255 16.4321C39.7827 16.4321 37.7554 18.9108 36.9647 19.9766C36.8603 20.1173 36.7482 20.2731 36.6317 20.4412C34.4967 18.0695 30.7997 14.4536 28.11 14.4536C25.1438 14.4536 20.9009 18.9332 19.2144 20.8591C18.6886 21.4596 18.7492 22.3727 19.3497 22.8985C19.9502 23.4243 20.8634 23.3638 21.3892 22.7633C24.9745 18.6687 27.4655 17.3441 28.11 17.3441C28.9832 17.3441 31.7639 19.1808 35.1277 23.1058C34.651 24.2016 34.2991 25.4281 34.2991 26.6634C34.2991 28.5864 35.0934 30.4805 36.4783 31.86C37.8438 33.2203 39.6276 33.9683 41.4932 33.9683H41.5473C41.7057 33.9683 41.863 33.9611 42.0199 33.9504C43.3386 36.999 44.0087 39.7901 44.0087 42.257C44.0087 42.261 44.0084 42.2652 44.0084 42.2694C35.9168 43.002 29.5552 49.8223 29.5552 58.1014C29.5552 58.1762 29.557 58.2505 29.558 58.3249C29.0954 58.3674 28.6296 58.3908 28.1617 58.3908C28.1231 58.3908 28.0847 58.3908 28.0462 58.3908C23.9569 58.3908 20.053 56.7444 17.0482 53.7512C13.9746 50.6893 12.2118 46.4998 12.2118 42.257C12.2118 39.608 12.9825 36.5831 14.503 33.2665C14.8356 32.5408 14.517 31.683 13.7915 31.3504C13.0656 31.0177 12.2079 31.3365 11.8754 32.0619C10.1807 35.7592 9.32129 39.1892 9.32129 42.257C9.32129 47.2628 11.3941 52.1987 15.0083 55.7991C18.5591 59.3363 23.1863 61.2817 28.0353 61.2814C28.0581 61.2814 28.0819 61.2814 28.1048 61.2813C28.6896 61.2827 29.2759 61.2552 29.8594 61.2005C31.3053 68.4884 37.7474 73.9998 45.4537 73.9998C54.22 73.9998 61.352 66.8678 61.352 58.1014C61.3515 49.8226 54.9899 43.0025 46.8985 42.2697ZM37.1894 26.6636C37.1894 23.8537 40.3272 20.0939 41.5253 19.3895C42.7235 20.0939 45.8612 23.8536 45.8612 26.6636C45.8612 27.8234 45.3769 28.9711 44.5326 29.8123C43.7129 30.6289 42.6531 31.078 41.5356 31.078C41.5304 31.078 41.525 31.078 41.5198 31.078C41.5146 31.078 41.5094 31.078 41.5042 31.078C40.3977 31.078 39.3377 30.6289 38.5181 29.8123C37.6737 28.9713 37.1894 27.8236 37.1894 26.6636ZM45.4531 71.1095C38.2806 71.1095 32.4453 65.2742 32.4453 58.1017C32.4453 50.9293 38.2806 45.094 45.4531 45.094C52.6256 45.094 58.4609 50.9293 58.4609 58.1017C58.4609 65.2742 52.6256 71.1095 45.4531 71.1095Z" fill="white"/>
<path d="M15.3746 18.6678C17.0381 17.0106 17.9923 14.7363 17.9923 12.428C17.9923 9.16646 15.9492 5.92593 14.7313 4.28448C13.9856 3.27941 11.3913 0 9.32044 0C7.24959 0 4.65526 3.27941 3.90948 4.28448C2.69165 5.92578 0.64856 9.16632 0.64856 12.428C0.64856 14.7363 1.60276 17.0106 3.26631 18.6678C4.90486 20.3001 7.04421 21.1978 9.28271 21.1978H9.34732C11.5965 21.1978 13.736 20.3001 15.3746 18.6678ZM9.31495 18.3073C9.30786 18.3073 9.30093 18.3073 9.29384 18.3073C7.81457 18.3073 6.39903 17.7085 5.30623 16.6199C4.18322 15.5011 3.53904 13.9731 3.53904 12.428C3.53904 10.7433 4.44251 8.50957 6.01804 6.29954C7.42086 4.3316 8.78336 3.19298 9.32029 2.92806C9.85723 3.19298 11.2199 4.33146 12.6225 6.29939C14.1979 8.50942 15.1015 10.7432 15.1015 12.4278C15.1015 13.9731 14.4574 15.5011 13.3344 16.6198C12.2414 17.7084 10.8262 18.3072 9.3359 18.3072C9.32897 18.3073 9.32188 18.3073 9.31495 18.3073Z" fill="white"/>
<path d="M16.3628 25.542C15.5646 25.542 14.9181 26.1891 14.9181 26.9873C14.9181 27.7856 15.5656 28.4326 16.3638 28.4326C17.1621 28.4326 17.8091 27.7856 17.8091 26.9873C17.8091 26.1891 17.1621 25.542 16.3638 25.542H16.3628Z" fill="white"/>
</svg>
