<svg width="69" height="71" viewBox="0 0 69 71" fill="none" xmlns="http://www.w3.org/2000/svg">
<path d="M54.7475 30.6493C54.6746 29.1313 54.4928 27.6054 54.2071 26.114C54.1201 25.6605 53.8241 25.2747 53.4083 25.0736C49.38 23.1249 46.0813 19.8327 44.1199 15.8033C43.9181 15.389 43.5327 15.094 43.0799 15.0076C41.6223 14.7296 39.3675 14.4491 37.6157 14.4491C32.0957 14.4491 26.6854 16.8193 22.3817 21.1229C19.2332 24.2714 12.2389 32.8792 12.2389 45.6615C12.2389 51.845 17.3544 56.8908 23.6422 56.9093H23.6476C32.6021 56.9093 41.5685 53.185 48.2477 46.6914C52.6625 42.3996 55.0315 36.5525 54.7475 30.6493ZM51.4625 27.3644C51.5831 28.0883 51.6738 28.8194 51.74 29.5515L44.8432 30.9997L38.1566 24.313L38.9187 17.4201C39.9145 17.4877 40.9701 17.6173 41.8347 17.7561C43.9956 21.843 47.3752 25.216 51.4625 27.3644ZM38.7338 50.0825L37.0811 40.1616L41.878 40.2402L45.3267 45.4223C43.308 47.2482 41.088 48.8112 38.7338 50.0825ZM33.9877 39.374L34.8041 44.2747L27.4039 45.6634L23.5562 41.8156L24.9449 34.4154L29.8456 35.2318L33.9877 39.374ZM25.8583 21.8948C28.8813 19.3511 32.3807 17.8154 35.975 17.4549L35.2861 23.686L30.8556 24.8237L25.8583 21.8948ZM27.9755 48.5293L35.2844 47.1579L35.9919 51.4055C32.742 52.7946 29.3029 53.6508 25.8339 53.9056L27.9755 48.5293ZM41.5599 37.3126L35.967 37.221L32.0158 33.2698L32.0837 27.5254L36.1835 26.4726L42.7359 33.0248L41.5599 37.3126ZM23.6711 23.9999L29.1649 27.2199L29.1066 32.1466L19.0651 30.4739C20.3302 28.1229 21.8779 25.9356 23.6711 23.9999ZM17.7489 33.2169L22.0617 33.9353L20.6891 41.2499L15.2437 43.4587C15.5016 39.9575 16.3658 36.4749 17.7489 33.2169ZM15.2196 46.6218L21.6295 44.0218L25.2023 47.5946L22.6793 53.9285C18.7767 53.48 15.6712 50.4374 15.2196 46.6218ZM47.4249 43.3006L44.2543 38.5367L45.5426 33.8388L51.8222 32.5202C51.6116 36.4217 50.0648 40.2141 47.4249 43.3006ZM68.8819 38.6714C68.5007 34.4385 66.8036 30.3592 63.974 26.8744C63.0077 25.6842 61.698 25.1036 60.0005 25.1166C59.6884 23.5045 59.3348 22.3103 59.1567 21.6895C59.0172 21.205 58.6443 20.83 58.1599 20.6904C58.0368 20.6548 57.9149 20.6168 57.7933 20.5778L58.1594 19.1501C59.4602 18.4175 60.6509 17.5143 61.7059 16.4592C64.946 13.2191 66.695 8.71956 66.5049 4.11456C66.4735 3.35498 65.865 2.74646 65.1056 2.71505C60.4991 2.52541 56.0009 4.27396 52.7608 7.51421C51.7057 8.56936 50.8026 9.7601 50.07 11.0606L48.6448 11.4261C48.6064 11.306 48.5687 11.1856 48.5336 11.0642C48.3941 10.5797 48.0191 10.2067 47.5346 10.0673C46.8849 9.88092 45.6066 9.50237 43.8791 9.18036C43.9355 7.39514 43.3578 6.0266 42.1262 5.02653C38.6408 2.19653 34.5615 0.499411 30.3287 0.11823C22.4129 -0.59504 14.468 1.94305 8.53029 7.08087C7.69444 7.80423 7.3698 8.95624 7.70335 10.0161C8.03559 11.0712 8.9572 11.8263 10.0512 11.9398C13.283 12.275 19.0606 12.5311 23.5465 12.7077C21.721 13.8526 19.9067 15.2905 18.1498 17.0909C10.9378 24.4813 8.16007 32.5322 7.08374 38.2072C7.08096 38.2063 7.07833 38.2052 7.07541 38.2043C6.03721 37.8618 4.92961 37.9531 3.95671 38.4613C-0.0270543 40.5421 -2.99366 43.609 -4.86099 47.577C-5.00505 47.8833 -5.03836 48.2301 -4.95522 48.5581C-4.46797 50.4798 -3.20375 52.1025 -1.14138 53.2855C1.86687 55.0113 4.44192 53.7839 5.48377 53.064C6.01865 52.6945 6.51978 52.2654 6.98716 51.7811C7.52599 54.6751 8.36359 57.2843 9.21858 59.2319C9.34671 59.5237 9.59333 59.8303 9.99131 60.0046C11.8551 60.821 14.3234 61.6236 17.0673 62.1637C16.6454 62.588 16.2658 63.038 15.9356 63.516C15.2159 64.5578 13.9885 67.1329 15.7141 70.1412C16.8971 72.2034 18.52 73.4678 20.4416 73.955C20.7697 74.0382 21.1164 74.0049 21.4226 73.8608C25.3905 71.9936 28.4575 69.0269 30.5384 65.0431C31.0071 64.1456 31.1202 63.1338 30.8664 62.1675C33.4625 61.6852 36.5677 60.8476 39.8876 59.385C41.6363 58.6171 40.4409 55.8948 38.6922 56.6625C33.9765 58.7725 28.9323 59.9092 23.9205 59.9086C19.6558 59.9086 15.5369 59.1121 11.6804 57.5428C10.1111 53.6863 9.31457 49.5672 9.31457 45.3027C9.31355 35.8922 13.322 26.3671 20.2551 19.1178C29.6553 9.28789 40.8934 11.381 45.9783 12.6681C46.3978 13.8913 47.5238 16.6456 50.0622 19.184C52.6004 21.7222 55.3321 22.8256 56.5552 23.245C57.8424 28.33 59.9354 39.568 50.1055 48.9681C49.8288 49.2327 49.5489 49.493 49.2658 49.749C47.8307 51.0475 49.7999 53.2236 51.2349 51.925C51.535 51.6483 51.8344 51.3644 52.1326 51.0735C53.8281 49.4189 55.203 47.7135 56.3137 45.9958C56.4895 50.3959 56.7383 55.8457 57.0602 58.9486C57.1737 60.0426 57.9287 60.9642 58.9839 61.2965C60.0437 61.63 61.1959 61.3055 61.9191 60.4695C67.0569 54.5321 69.5951 46.5872 68.8819 38.6714ZM23.9207 62.8304C24.5725 62.824 25.9777 62.8153 27.9066 62.6047C28.0872 62.8713 28.1851 63.2447 27.9486 63.6903C26.2135 66.9595 23.8557 69.3569 20.6854 70.969C19.7357 70.5915 18.9275 69.8275 18.2259 68.6476C17.5745 67.552 17.618 66.2219 18.34 65.1769C19.0064 64.2122 19.9268 63.4072 21.1382 62.7294C22.0573 62.8029 22.9881 62.8397 23.9207 62.8304ZM3.82288 50.6602C2.77796 51.3821 1.44785 51.4258 0.352227 50.7743C-0.827694 50.0726 -1.59152 49.2645 -1.96919 48.3148C-0.356953 45.1446 2.04029 42.7868 5.30947 41.0517C5.90119 40.7376 6.36564 41.0128 6.62147 41.2889C6.40757 43.2331 6.39939 44.6481 6.39296 45.3031C6.38566 46.0454 6.40772 46.7866 6.4536 47.522C5.73901 48.9029 4.87599 49.9328 3.82288 50.6602ZM29.2461 10.0156C24.9818 9.85331 14.5617 9.43999 10.7027 9.06845C16.0148 4.59597 23.0515 2.39655 30.0666 3.02859C33.7186 3.35731 37.2518 4.83265 40.284 7.29462C40.5101 7.47827 40.9135 7.80671 40.959 8.76982C37.6894 8.46008 33.5732 8.57784 29.2461 10.0156ZM49.8445 14.1347L51.4164 13.7316C51.8221 13.6276 52.1637 13.3542 52.3545 12.9812C52.9982 11.7212 53.8301 10.577 54.8268 9.58024C57.1968 7.21032 60.2614 5.84105 63.5732 5.64644C63.3786 8.95829 62.0094 12.0231 59.6394 14.393C58.6429 15.3897 57.4986 16.2216 56.2385 16.8653C55.8653 17.056 55.592 17.3976 55.4879 17.8035L55.0846 19.3767C53.9996 18.7502 53.003 17.9835 52.1232 17.1004C51.239 16.2194 50.4714 15.2214 49.8445 14.1347ZM59.9316 58.2974C59.5811 54.6576 59.1937 45.1808 59.0144 40.538C60.6679 35.9141 60.7818 31.4983 60.4332 28.0571C61.2407 28.1454 61.5353 28.5069 61.7053 28.7163C64.1674 31.7485 65.6426 35.2817 65.9714 38.9336C66.6035 45.9486 64.4043 52.9853 59.9316 58.2974ZM46.4948 54.8265C46.4948 55.6331 45.841 56.2869 45.0343 56.2869C44.2277 56.2869 43.5739 55.6331 43.5739 54.8265C43.5739 54.0198 44.2277 53.366 45.0343 53.366C45.841 53.366 46.4948 54.0198 46.4948 54.8265Z" fill="white"/>
</svg>
