<svg width="74" height="72" viewBox="0 0 74 72" fill="none" xmlns="http://www.w3.org/2000/svg">
<path d="M73.4978 62.4987C70.5086 55.1318 63.5944 50.0154 55.7293 49.2731C53.9907 46.0952 51.4701 43.4061 48.3971 41.4607C45.4057 39.5669 42.0019 38.4579 38.4744 38.2157V30.0992H44.3264C56.0655 30.0992 65.6157 20.5489 65.6157 8.80993V1.48364C65.6157 0.669352 64.9556 0.00927734 64.1413 0.00927734H56.8152C47.8227 0.00927734 40.1147 5.61348 37.0001 13.5127C33.8851 5.61348 26.1773 0.00927734 17.1848 0.00927734H9.8587C9.04441 0.00927734 8.38434 0.669352 8.38434 1.48364V8.80993C8.38434 20.549 17.9347 30.0992 29.6736 30.0992H35.5257V38.2157C31.9983 38.4579 28.5946 39.5671 25.6031 41.4607C22.53 43.4061 20.0091 46.0951 18.2709 49.2731C10.4056 50.0154 3.49138 55.1318 0.502181 62.4987C-0.35619 64.614 -0.103405 67.0131 1.17801 68.916C2.4746 70.8416 4.63274 71.9911 6.9503 71.9911H67.0496C69.3673 71.9911 71.5253 70.8416 72.8219 68.916C74.1034 67.013 74.3562 64.614 73.4978 62.4987ZM38.4743 21.2989C38.4743 11.1856 46.7019 2.95786 56.8152 2.95786H62.667V8.80979C62.667 18.9229 54.4394 27.1505 44.3262 27.1505H40.5594L56.6284 11.0815C57.2041 10.5059 57.2041 9.57233 56.6284 8.99638C56.0528 8.42071 55.1192 8.42085 54.5433 8.99638L38.4743 25.0657V21.2989ZM17.3714 11.0815L33.4404 27.1507H29.6736C19.5606 27.1507 11.3331 18.9231 11.3331 8.80979V2.95786H17.1848C27.2981 2.95786 35.5257 11.1854 35.5257 21.2987V25.0655L19.4566 8.99652C18.8809 8.42085 17.9475 8.421 17.3714 8.99652C16.7958 9.57219 16.7958 10.5057 17.3714 11.0815ZM70.3761 67.2689C69.617 68.396 68.4046 69.0425 67.0496 69.0425H6.95044C5.59546 69.0425 4.38285 68.396 3.62377 67.2689C2.8803 66.1647 2.73837 64.83 3.2344 63.6072C5.90288 57.0308 12.2001 52.5353 19.2774 52.1546C19.8081 52.1259 20.2824 51.8141 20.5187 51.338C23.6499 45.0311 29.9652 41.1131 37.0001 41.1131C43.2129 41.1131 48.8628 44.1704 52.2555 49.2287C50.7266 49.3325 49.2174 49.598 47.7528 50.0236C46.9709 50.2508 46.5211 51.0689 46.7484 51.8508C46.9359 52.4954 47.5244 52.9141 48.1635 52.9141C48.2995 52.9141 48.4383 52.895 48.5756 52.8551C50.2381 52.3719 51.9683 52.127 53.7176 52.127L54.7225 52.1547C61.7998 52.5354 68.097 57.0309 70.7655 63.6074C71.2616 64.83 71.1199 66.1647 70.3761 67.2689Z" fill="white"/>
</svg>
