<svg width="74" height="74" viewBox="0 0 74 74" fill="none" xmlns="http://www.w3.org/2000/svg">
<path d="M72.544 26.99H68.2551C68.1052 26.7766 67.898 26.5994 67.6401 26.49C66.9054 26.1781 66.0568 26.5207 65.7449 27.2554C65.6636 27.447 65.58 27.6384 65.495 27.8295C65.4862 27.8484 65.4771 27.867 65.4692 27.8864C60.3816 39.2625 48.8416 49.4983 37.776 52.3722C31.826 53.9173 26.8928 53.1119 23.8851 50.1044C21.876 48.0952 20.8496 45.2271 20.85 41.7705C20.8501 40.0523 21.1041 38.1889 21.6172 36.2132C24.9661 23.3183 38.1813 10.1029 51.0763 6.75416C56.6614 5.30366 61.4109 5.93901 64.4497 8.543C66.766 10.5281 67.9964 13.6326 67.9961 17.4077C67.996 18.0156 67.964 18.6407 67.8996 19.2814C67.8948 19.3303 67.8922 19.3788 67.8922 19.4269C67.8918 20.1604 68.4476 20.7891 69.193 20.8641C69.9872 20.9439 70.6958 20.3649 70.7757 19.5707C70.8501 18.8312 70.887 18.1072 70.8871 17.4011C70.8876 13.7118 69.8824 10.5047 67.97 8.06359L73.5663 2.46726C74.1307 1.90288 74.1307 0.987715 73.5663 0.423472C73.0018 -0.140916 72.0869 -0.140916 71.5222 0.423472L65.9272 6.01821C62.1544 3.05507 56.649 2.32042 50.3498 3.95635C48.7608 4.36898 47.1577 4.92268 45.5572 5.60384V1.4453C45.5572 0.647059 44.91 0 44.1119 0C43.3138 0 42.6666 0.647059 42.6666 1.4453V6.975C38.8838 8.95592 35.1746 11.6312 31.7676 14.862L28.6507 11.7449C28.0862 11.1805 27.1713 11.1805 26.6066 11.7449C26.0422 12.3093 26.0422 13.2245 26.6066 13.789L29.7237 16.9061C26.4336 20.3759 23.7198 24.1588 21.7287 28.014H16.0732C15.2751 28.014 14.6279 28.6611 14.6279 29.4593C14.6279 30.2576 15.2751 30.9046 16.0732 30.9046H20.3778C19.7373 32.4353 19.2139 33.9676 18.8194 35.4871C18.2438 37.7031 17.9591 39.812 17.9588 41.7786C17.9588 42.1083 17.9695 42.4323 17.9854 42.7539C16.7477 44.2057 16.5127 45.6677 16.3229 46.8641C16.1393 48.022 16.0068 48.8585 15.1103 49.755C14.1827 50.6825 13.2469 50.8448 12.062 51.05C10.7639 51.2749 9.14845 51.5549 7.67757 53.0256C6.20077 54.5024 5.9055 56.1431 5.66847 57.4616C5.45572 58.6433 5.28792 59.5765 4.40802 60.4572C3.84393 61.0218 3.84436 61.9368 4.40889 62.5011C4.69116 62.7831 5.06086 62.924 5.43043 62.924C5.80057 62.924 6.17056 62.7826 6.45283 62.5002C7.97241 60.9793 8.27231 59.3128 8.5131 57.9736C8.72093 56.8182 8.88512 55.9058 9.72136 55.0697C10.5443 54.2467 11.3878 54.1006 12.5552 53.8984C13.9022 53.665 15.5786 53.3745 17.1539 51.7994C18.4773 50.4761 18.8624 49.1107 19.0749 47.9321C19.5526 49.1148 20.1798 50.1989 20.9598 51.1669C20.1366 52.4041 19.9408 53.6196 19.779 54.6411C19.5955 55.799 19.4629 56.6355 18.5664 57.5319C17.6388 58.4593 16.7029 58.6216 15.5182 58.8269C14.22 59.0517 12.6046 59.3317 11.1337 60.8024C9.6569 62.2792 9.36163 63.9199 9.1246 65.2385C8.91185 66.4202 8.74391 67.3534 7.86503 68.2331C6.98455 69.1129 6.05118 69.2808 4.86965 69.4934C3.55111 69.7308 1.91026 70.0259 0.433606 71.5027C-0.130782 72.0671 -0.130782 72.9822 0.433606 73.5465C0.715872 73.8287 1.08572 73.9698 1.45557 73.9698C1.82543 73.9698 2.19528 73.8286 2.47754 73.5465C3.31365 72.7104 4.22621 72.5462 5.38143 72.3383C6.72064 72.0974 8.38721 71.7975 9.90896 70.2772C11.4285 68.7563 11.7284 67.0898 11.9692 65.7505C12.1771 64.5952 12.3413 63.6828 13.1775 62.8467C14.0005 62.0237 14.8439 61.8774 16.0113 61.6752C17.3583 61.4418 19.0347 61.1513 20.6101 59.5762C22.1707 58.0156 22.4272 56.3956 22.6336 55.0938C22.7455 54.3875 22.84 53.7993 23.0977 53.2411C24.3603 54.2012 25.8064 54.9166 27.4077 55.382C26.9967 56.2957 26.8555 57.1733 26.7339 57.9407C26.5504 59.0986 26.4179 59.9351 25.5213 60.8315C24.5937 61.7589 23.6578 61.9212 22.4731 62.1265C21.1749 62.3514 19.5595 62.6313 18.0886 64.102C16.6118 65.5788 16.3165 67.2195 16.0795 68.5381C15.8668 69.7198 15.6988 70.653 14.8191 71.5336C14.255 72.0983 14.2554 73.0133 14.8199 73.5774C15.1022 73.8594 15.4719 74.0003 15.8415 74.0003C16.2116 74.0003 16.5816 73.8589 16.8639 73.5765C18.3835 72.0556 18.6834 70.3891 18.9243 69.0499C19.1321 67.8945 19.2963 66.9821 20.1326 66.146C20.9555 65.323 21.799 65.1768 22.9663 64.9746C24.3134 64.7411 25.9898 64.4506 27.5651 62.8756C29.1258 61.3149 29.3824 59.6949 29.5887 58.3931C29.7409 57.4326 29.8591 56.6898 30.4031 55.9448C30.9903 56.0004 31.5909 56.0318 32.2071 56.0318C34.1745 56.0318 36.285 55.7469 38.5018 55.1711C39.8871 54.8114 41.279 54.3433 42.6659 53.7797V57.4988C42.6659 58.297 43.3131 58.9441 44.1112 58.9441C44.9093 58.9441 45.5565 58.297 45.5565 57.4988V52.4634C49.6157 50.4162 53.5576 47.5916 57.0778 44.2616L60.2084 47.3923C60.4907 47.6745 60.8605 47.8156 61.2304 47.8156C61.6003 47.8156 61.9701 47.6745 62.2524 47.3923C62.8168 46.8279 62.8168 45.9127 62.2524 45.3482L59.123 42.2188C62.6511 38.5012 65.6399 34.2817 67.7311 29.8815H72.5435C73.3415 29.8815 73.9887 29.2344 73.9887 28.4362C73.9886 27.6378 73.3421 26.99 72.544 26.99Z" fill="white"/>
</svg>
