<svg width="74" height="62" viewBox="0 0 74 62" fill="none" xmlns="http://www.w3.org/2000/svg">
<path d="M5.3061 19.6986C4.49452 19.6986 3.83671 19.0408 3.83671 18.2292C3.83671 17.4176 4.49452 16.7598 5.3061 16.7598C6.11768 16.7598 6.7755 17.4176 6.7755 18.2292C6.7755 19.0408 6.11768 19.6986 5.3061 19.6986ZM68.6939 16.7598C67.8823 16.7598 67.2245 17.4176 67.2245 18.2292C67.2245 19.0408 67.8823 19.6986 68.6939 19.6986C69.5054 19.6986 70.1633 19.0408 70.1633 18.2292C70.1633 17.4176 69.5054 16.7598 68.6939 16.7598ZM73.0336 10.8734C72.6907 11.4319 72.3931 12.0263 72.1113 12.6138C71.2709 14.3654 68.6229 13.095 69.4633 11.3434C69.7789 10.6854 70.1459 10.0417 70.4943 9.3974C71.7883 7.00422 70.6597 5.18352 69.8437 4.42011C67.638 2.35665 65.4744 3.39939 64.7636 3.83852C60.5012 6.48666 56.487 9.57378 52.8022 13.0166C55.6232 12.613 58.4429 13.4809 60.5477 15.4074C62.6691 17.3494 63.7852 20.1098 63.6097 22.9806C63.4622 25.392 62.5061 27.6809 60.905 29.4779C63.6796 29.3579 65.3355 27.6562 65.733 25.6466L65.9724 24.4276C66.3509 22.514 69.2324 23.0838 68.8539 24.9975L68.6145 26.2165C67.894 29.6595 65.1368 32.0472 61.7824 32.3452L53.2559 33.0852C55.8501 34.0767 58.2634 35.4643 60.5203 37.2584C63.6781 39.7688 65.5026 43.5232 65.526 47.5587C65.549 51.561 63.7881 55.3003 60.6947 57.8182C59.2313 59.0093 57.6553 60.0796 55.9449 60.862C50.2701 63.4576 45.5515 59.9138 44.4676 55.9524L42.2855 47.8074V47.8072V47.8071L41.406 44.5246V53.5512C41.406 55.8821 39.6436 57.9542 36.8407 57.9542C34.458 57.9542 32.5941 55.9045 32.5941 53.4807V44.5248L31.7146 47.8072V47.8074V47.8075L29.5325 55.9526C28.4486 59.914 23.73 63.4577 18.0552 60.8621C16.3448 60.0798 14.7688 59.0094 13.3054 57.8183C10.212 55.3005 8.45109 51.5611 8.47415 47.5589C8.4975 43.5231 10.3219 39.7688 13.4798 37.2586C15.7368 35.4645 18.15 34.0769 20.7442 33.0854L12.2178 32.3452C8.86334 32.0472 6.10608 29.6595 5.38556 26.2165L5.14617 24.9975C4.76769 23.0838 7.6492 22.514 8.02767 24.4276L8.26707 25.6466C8.66463 27.6562 10.3204 29.3579 13.0951 29.4779C11.494 27.6809 10.5379 25.392 10.3905 22.9806C10.2149 20.1098 11.331 17.3494 13.4525 15.4074C15.557 13.4809 18.3767 12.613 21.1979 13.0166C17.5132 9.57378 13.4989 6.48666 9.23638 3.83852C8.52555 3.39939 6.36192 2.35665 4.15629 4.42011C3.3403 5.18352 2.21164 7.00422 3.50567 9.3974C3.85404 10.0417 4.22106 10.6854 4.53667 11.3434C5.37704 13.095 2.72905 14.3654 1.88868 12.6138C1.60684 12.0263 1.30929 11.4319 0.966363 10.8734C-0.597759 8.32601 -0.289781 4.65906 2.08401 2.33755C4.79031 -0.308969 8.26633 -0.201757 10.7858 1.34327C15.6559 4.32979 20.1823 7.90524 24.2901 11.8882C27.7977 15.2882 30.9963 19.0148 33.8256 22.9909C32.9214 19.3282 31.9092 15.8978 30.8073 12.7699C30.5378 12.0049 30.9395 11.1662 31.7045 10.8968C32.4697 10.6271 33.3081 11.0289 33.5776 11.794C34.8122 15.2982 36.0125 19.0149 36.9999 23.1501C37.9836 19.0386 39.1939 15.2805 40.4222 11.794C40.6917 11.0289 41.5301 10.6271 42.2953 10.8968C43.0603 11.1662 43.462 12.0049 43.1925 12.7699C42.0906 15.8978 41.0782 19.3282 40.1743 22.9909C43.0035 19.0148 46.2021 15.288 49.7097 11.8882C53.8175 7.90524 58.3439 4.32979 63.214 1.34327C65.7335 -0.201757 69.2095 -0.309116 71.9158 2.33755C74.2897 4.65906 74.5976 8.32601 73.0336 10.8734ZM31.419 31.0641V28.7308C31.419 27.6712 31.716 26.6795 32.231 25.8346C30.6972 23.5957 29.0395 21.4344 27.2706 19.3636C25.574 17.5156 23.3044 16.3019 20.8289 15.9294C18.8659 15.6345 16.9001 16.2334 15.4357 17.5739C13.9715 18.9143 13.201 20.8196 13.3222 22.8011C13.5548 26.6066 16.5756 29.7307 20.3621 30.1033L31.419 31.0641ZM27.1138 53.63C25.6172 54.457 22.9015 55.389 19.7335 54.4915C17.2419 53.7857 15.1927 52.1233 13.959 49.8255C12.7393 47.5534 12.2564 44.5085 13.7732 41.0646C12.2695 42.8799 11.4254 45.1622 11.4115 47.5756C11.3935 50.6837 12.7597 53.5867 15.1596 55.54C16.4507 56.5908 17.8596 57.496 19.3494 58.2252C22.8771 59.9517 26.1744 57.6019 26.6952 55.1924L27.1138 53.63ZM31.9363 35.6293C31.7663 35.1375 31.6387 34.6436 31.5527 34.1494C26.4795 34.1364 19.1303 34.8979 16.0633 43.3286C14.918 46.4768 16.7183 50.647 20.5402 51.667C23.6983 52.5099 27.8233 50.988 28.8791 47.0406V47.0403L31.9363 35.6293ZM38.4686 38.4692C38.4686 37.2768 38.6895 36.1769 39.1638 35.008C39.4956 34.1903 39.6435 33.4634 39.6435 32.6511V28.7308C39.6435 27.2732 38.4576 26.0872 36.9999 26.0872C35.5423 26.0872 34.3563 27.2732 34.3563 28.7308V32.651C34.3563 33.4395 34.5254 34.2508 34.8588 35.0625C35.3049 36.1487 35.5312 37.2949 35.5312 38.4691V53.4807C35.5312 54.301 36.1648 55.0188 36.945 55.0188C37.8147 55.0188 38.4686 54.3755 38.4686 53.5512V38.4692ZM54.2663 54.4915C51.0983 55.389 48.3826 54.457 46.886 53.63L47.3046 55.1922C47.8254 57.6017 51.1227 59.9516 54.6504 58.225C56.1404 57.4958 57.5491 56.5908 58.8402 55.5399C61.2401 53.5865 62.6063 50.6836 62.5884 47.5755C62.5744 45.1619 61.7304 42.8796 60.2266 41.0646C61.7434 44.5083 61.2605 47.5534 60.0408 49.8255C58.8071 52.1233 56.7579 53.7857 54.2663 54.4915ZM42.4532 34.1494C42.3683 34.6445 42.2411 35.1358 42.0653 35.6356L45.1207 47.0404V47.0407C46.1765 50.9882 50.3017 52.51 53.4596 51.6672C57.2815 50.647 59.0818 46.4768 57.9365 43.3287C54.8708 34.9011 47.5262 34.137 42.4532 34.1494ZM46.7293 19.3637C44.9605 21.4344 43.3028 23.5958 41.7689 25.8348C42.2838 26.6795 42.581 27.6712 42.581 28.731V31.0641L53.6379 30.1036C57.4244 29.731 60.4451 26.6068 60.6778 22.8014C60.7989 20.8199 60.0286 18.9146 58.5642 17.5742C57.0998 16.2337 55.134 15.6348 53.171 15.9297C50.6954 16.302 48.4258 17.5158 46.7293 19.3637Z" fill="white"/>
</svg>
