<svg width="74" height="52" viewBox="0 0 74 52" fill="none" xmlns="http://www.w3.org/2000/svg">
<path d="M38.9833 49.5618C38.9833 50.3644 38.3308 51.0184 37.5268 51.0184C36.7242 51.0184 36.0702 50.3644 36.0702 49.5618C36.0702 48.7593 36.7242 48.1053 37.5268 48.1053C38.3308 48.1053 38.9833 48.7593 38.9833 49.5618ZM73.9999 24.4322C73.9998 27.6341 71.7266 30.4672 68.283 30.8104C67.1344 30.9248 66.2104 31.4687 65.6103 32.3601C63.6309 35.3198 61.8172 38.4318 60.3755 41.6776C58.378 46.1742 53.2286 51.0184 45.8145 51.0184H44.0841C44.0827 51.0184 44.0827 51.0184 44.0812 51.0184C43.2787 51.0184 42.6247 50.3658 42.6247 49.5618C42.6247 48.7593 43.2787 48.1053 44.0812 48.1053H45.8145C50.8993 48.1053 55.5777 45.1019 57.7333 40.4526C59.2904 37.0939 61.1256 33.8268 63.1881 30.7419C64.2528 29.1426 66.0047 28.1337 67.9859 27.9118C69.9646 27.6903 71.0923 26.0693 71.0869 24.4322C71.0831 23.2828 70.5931 22.3479 69.6551 21.6502C68.5088 20.8083 67.2467 20.1405 65.8972 19.6839C63.5653 18.8947 60.4272 19.4138 58.5024 22.0944C50.0958 33.8024 38.4869 37.3636 34.6385 38.342C33.6253 39.5532 28.9466 44.5589 20.781 44.5589C15.718 44.5589 10.8984 45.7575 6.45737 48.1054H30.9724C31.7764 48.1054 32.4289 48.7594 32.4289 49.562C32.4289 50.3645 31.7764 51.0185 30.9724 51.0185H1.45562C0.135413 51.0185 -0.571882 49.2921 0.578783 48.3982C4.05976 45.6937 8.81259 43.5763 12.5228 42.6756C9.48784 41.2166 6.73659 38.9764 4.8476 35.9036C-2.85282 23.3772 3.21861 10.2467 11.4698 5.12635C23.3083 -2.22014 39.4337 0.0913847 47.7257 12.9274C50.0789 16.5702 51.6371 20.6688 52.3047 24.9238C53.6006 23.6038 54.8032 22.1978 55.8972 20.7187C55.9693 15.035 57.2678 9.58321 59.767 4.5079C60.1223 3.78618 60.9955 3.48934 61.7171 3.84474C62.4388 4.20013 62.7357 5.07333 62.3803 5.7949C60.6088 9.39211 59.4899 13.195 59.0358 17.1434C62.724 13.4505 67.1424 10.5473 72.0043 8.64738C72.7532 8.35462 73.5982 8.72443 73.8912 9.47382C74.1839 10.2231 73.8139 11.0677 73.0647 11.3606C69.8755 12.607 66.8942 14.3234 64.213 16.4351C65.11 16.4709 65.9941 16.6368 66.8454 16.9298C68.4695 17.4891 69.9999 18.28 71.3782 19.3011C73.4179 20.8117 73.9999 22.926 73.9999 24.4322ZM45.215 27.1541C42.9968 28.7269 40.6047 30.041 38.0966 31.0731C37.8587 32.2893 37.4812 33.4774 36.9715 34.6124C41.6128 33.0285 45.8679 30.605 49.6648 27.3803C49.2861 22.8141 47.8267 18.3457 45.2786 14.5075C40.0269 6.59672 32.3564 3.74263 25.507 3.85712C19.1923 3.96272 12.4612 6.17476 7.52501 12.9615C3.22604 18.8723 3.06699 28.0942 7.29444 34.3228C12.2548 41.6313 22.0648 43.9461 29.4421 39.0881C36.2197 34.625 36.8399 26.1395 33.3756 20.8063C30.1094 15.7779 23.3781 14.3181 18.3411 17.5714C14.2181 20.2344 13.0303 25.7553 15.6931 29.8783C17.6373 32.8885 21.6607 33.7441 24.6787 31.8116C27.5932 29.9453 27.4805 26.2524 26.2332 24.586C25.7513 23.9419 25.9907 23.0086 26.6665 22.5722C27.3422 22.1358 28.2326 22.3369 28.6804 23.0055C30.6659 25.9701 30.6378 31.4113 26.259 34.2587C21.9082 37.088 16.0618 35.8185 13.2459 31.4587C9.71142 25.9863 11.2881 18.6587 16.7605 15.1243C23.1467 11 31.698 12.8397 35.8225 19.2259C36.3687 20.0716 36.8246 20.9497 37.1944 21.8491C37.849 21.501 38.4903 21.1301 39.1084 20.7333C39.7854 20.2991 40.6865 20.4954 41.1209 21.1724C41.5554 21.8494 41.3588 22.7505 40.6818 23.1849C39.8402 23.725 38.9628 24.2264 38.0631 24.6837C38.2746 25.7027 38.3848 26.7332 38.3971 27.7608C40.1905 26.9227 41.9105 25.9256 43.5296 24.7777C44.1858 24.3124 45.095 24.4673 45.5603 25.1234C46.026 25.7798 45.8711 26.6888 45.215 27.1541Z" fill="white"/>
</svg>
