<svg width="74" height="74" viewBox="0 0 74 74" fill="none" xmlns="http://www.w3.org/2000/svg">
<path d="M33.6526 26.0256C33.6526 24.0078 32.0112 22.3672 29.9941 22.3672C27.9768 22.3672 26.3357 24.0078 26.3357 26.0256C26.3357 28.0424 27.9768 29.6841 29.9941 29.6841C32.0112 29.6841 33.6526 28.0424 33.6526 26.0256ZM28.3682 26.0256C28.3682 25.1289 29.0974 24.3997 29.9941 24.3997C30.8911 24.3997 31.6201 25.1289 31.6201 26.0256C31.6201 26.9215 30.8911 27.6516 29.9941 27.6516C29.0974 27.6516 28.3682 26.9215 28.3682 26.0256Z" fill="white"/>
<path d="M43.4669 34.7595C43.4669 36.7771 45.1081 38.418 47.1254 38.418C49.1418 38.418 50.7838 36.7771 50.7838 34.7595C50.7838 32.7422 49.1418 31.1011 47.1254 31.1011C45.1081 31.1011 43.4669 32.7422 43.4669 34.7595ZM47.1254 33.1335C48.0216 33.1335 48.7513 33.8625 48.7513 34.7595C48.7513 35.6557 48.0216 36.3855 47.1254 36.3855C46.2284 36.3855 45.4994 35.6557 45.4994 34.7595C45.4994 33.8625 46.2284 33.1335 47.1254 33.1335Z" fill="white"/>
<path d="M24.8105 44.802C24.8105 47.6607 27.136 49.9861 29.9942 49.9861C32.8524 49.9861 35.1778 47.6607 35.1778 44.802C35.1778 41.9438 32.8524 39.6189 29.9942 39.6189C27.136 39.6189 24.8105 41.9438 24.8105 44.802ZM29.9942 41.6514C31.7318 41.6514 33.1453 43.0649 33.1453 44.802C33.1453 46.5399 31.7318 47.9537 29.9942 47.9537C28.2563 47.9537 26.843 46.5399 26.843 44.802C26.843 43.0646 28.2563 41.6514 29.9942 41.6514Z" fill="white"/>
<path d="M67.8658 33.1782C66.2087 33.1782 64.8613 34.3064 64.4134 35.8204H59.9609C59.3867 33.9229 58.2745 33.0173 58.0425 31.9961C57.7374 30.6544 58.7596 28.4778 57.8981 26.6927C57.0322 24.8969 54.6675 24.3148 53.8396 23.2779C53.5735 22.9446 53.3865 22.4427 53.205 21.9056L61.0359 14.0749C61.6917 14.4692 62.4072 14.748 63.192 14.748C64.3321 14.748 65.403 14.3042 66.2092 13.4979C67.8726 11.8348 67.8726 9.12759 66.2092 7.46395C64.5421 5.79705 61.843 5.79678 60.1755 7.46395C58.7663 8.87285 58.6249 10.9964 59.6021 12.6343L52.3947 19.8417C51.7689 18.6379 50.9768 17.9748 49.1771 17.7146C48.6213 17.6344 48.1064 18.0195 48.0257 18.5748C47.9455 19.1303 48.3306 19.6455 48.8869 19.7262C50.3291 19.9349 50.544 20.3338 51.1345 22.1427C51.8773 24.4177 52.2998 24.9402 54.3391 26.1586C56.3054 27.3342 56.3919 27.5567 56.0965 29.7748C55.7754 32.1856 55.9455 32.8354 57.2252 34.7738C58.4921 36.696 58.4921 36.9781 57.2252 38.8992C55.9412 40.8461 55.777 41.497 56.0965 43.8991C56.3924 46.121 56.3014 46.3419 54.338 47.5153C52.3001 48.7329 51.8773 49.2553 51.1345 51.5314C50.4286 53.6934 50.2375 53.8365 47.9915 54.0449C45.6011 54.2661 44.9984 54.5647 43.3694 56.2679C41.7825 57.9269 41.5432 57.9622 39.4614 57.185C38.6246 56.873 37.7601 56.5508 36.8371 56.5508C35.0227 56.5508 33.1884 57.8958 32.0868 57.6456C31.4941 57.5112 30.9169 56.9072 30.3052 56.2679C28.6806 54.5693 28.0817 54.2671 25.6829 54.0444C23.436 53.8365 23.245 53.6926 22.5396 51.5306C21.796 49.2551 21.374 48.7329 19.3353 47.5147C17.3692 46.3394 17.2823 46.1177 17.5774 43.8988C17.8971 41.4994 17.7335 40.8466 16.4489 38.8992C15.182 36.9781 15.182 36.6952 16.4489 34.7736C17.7332 32.8273 17.8974 32.1755 17.5774 29.774C17.2823 27.5553 17.3692 27.3331 19.3359 26.1581C20.0873 25.709 20.8646 25.2448 21.4231 24.5451C21.9843 23.8419 22.2667 22.9779 22.5396 22.1419C22.8119 21.3086 23.0688 20.5214 23.5322 20.1514C23.9902 19.7851 24.8122 19.7092 25.6829 19.6284C28.076 19.4065 28.6774 19.1076 30.3052 17.4054C31.8889 15.7494 32.1261 15.7093 34.213 16.4881C36.4853 17.3361 37.1883 17.3361 39.4614 16.4881C42.0231 15.5323 41.8451 15.9551 43.9632 18.01C44.3653 18.4003 45.0089 18.3913 45.3995 17.9881C45.7908 17.5854 45.7813 16.9418 45.3778 16.5507C45.2003 16.3792 45.0252 16.1949 44.838 16.0001C42.6337 13.6966 41.5537 13.5386 38.7506 14.5844C38.4405 14.6995 38.1425 14.806 37.8533 14.8955V9.26038C39.3668 8.81188 40.4952 7.46503 40.4952 5.80762C40.4952 3.79032 38.8538 2.14917 36.8368 2.14917C34.8195 2.14917 33.1783 3.79032 33.1783 5.80762C33.1783 7.46503 34.3065 8.81188 35.8206 9.26038V14.8955C35.5319 14.806 35.2339 14.6995 34.923 14.5844C32.1206 13.5386 31.0402 13.6963 28.8359 16.0003C28.3375 16.5214 27.8668 17.0136 27.3994 17.2396C26.9148 17.4732 26.2251 17.5369 25.4948 17.6046C23.4504 17.7943 22.2049 18.0596 21.2792 19.8417L15.595 14.1575C16.6606 12.4232 16.5224 10.1539 15.0216 8.65253C13.2661 6.89648 10.4087 6.89648 8.65266 8.65253C5.01643 12.2893 9.45182 18.4854 14.1577 15.5949L20.4686 21.9056C19.9884 23.3253 19.8074 23.5085 18.2925 24.4134C15.5991 26.0231 15.1598 27.0179 15.5628 30.0428C15.6601 30.7734 15.7519 31.4642 15.6308 31.9961C15.3988 33.0173 14.2867 33.9226 13.7127 35.8204H9.2605C8.812 34.3064 7.46515 33.1782 5.80774 33.1782C3.79044 33.1782 2.14929 34.8194 2.14929 36.8367C2.14929 38.8537 3.79044 40.4951 5.80774 40.4951C7.46515 40.4951 8.812 39.3667 9.2605 37.8529H13.7127C14.2867 39.7507 15.3988 40.6555 15.6313 41.6769C15.9362 43.0184 14.914 45.1961 15.7752 46.9803C16.6416 48.7768 19.0061 49.3583 19.8345 50.3951C20.1003 50.7287 20.2871 51.2309 20.4686 51.7677L16.6186 55.6175C15.2316 54.8641 13.4805 55.0186 12.3092 56.1907C10.003 58.4974 11.6588 62.4339 14.8961 62.4339C17.611 62.4339 19.4253 59.5765 18.056 57.0549L21.2794 53.8314C22.7875 56.734 25.8132 55.6687 27.3994 56.434C28.5985 57.0126 29.6703 59.1811 31.6366 59.6277C33.1019 59.961 34.5106 59.1846 35.8206 58.7781V64.4132C34.3065 64.8612 33.1783 66.2086 33.1783 67.8657C33.1783 69.8827 34.8195 71.5242 36.8368 71.5242C38.8538 71.5242 40.4952 69.8827 40.4952 67.8657C40.4952 66.2086 39.3668 64.8612 37.853 64.4132V58.7781C39.1823 59.1898 40.5741 59.9608 42.0375 59.6277C43.9987 59.1819 45.0846 57.0083 46.2742 56.434C47.8799 55.659 50.8776 56.75 52.3947 53.8314L53.4616 54.8994C53.8589 55.2958 54.5022 55.2958 54.8995 54.8994C55.2962 54.5021 55.2962 53.8585 54.8995 53.4615L53.205 51.7672C53.6854 50.3461 53.8675 50.1643 55.3811 49.2597C58.0739 47.6502 58.514 46.6551 58.1108 43.6305C57.858 41.7317 57.91 41.5515 58.9211 40.0184C59.3457 39.3751 59.7224 38.6404 59.9603 37.8529H64.4125C64.8613 39.3667 66.2087 40.4951 67.8658 40.4951C69.8829 40.4951 71.5243 38.8537 71.5243 36.8367C71.5243 34.8194 69.8829 33.1782 67.8658 33.1782ZM63.192 8.24685C65.1778 8.24685 66.17 10.6633 64.7724 12.0611C63.8987 12.934 62.4858 12.9343 61.6121 12.0611C60.2137 10.6628 61.2069 8.24685 63.192 8.24685ZM35.2108 5.80762C35.2108 4.91089 35.9401 4.18164 36.8368 4.18164C37.7338 4.18164 38.4628 4.91089 38.4628 5.80762C38.4628 6.70461 37.7338 7.43359 36.8368 7.43359C35.9401 7.43359 35.2108 6.70461 35.2108 5.80762ZM10.0903 13.5844C9.12663 12.621 9.12663 11.0533 10.0903 10.0894C11.0534 9.12651 12.6211 9.12651 13.5845 10.0894C14.5482 11.0533 14.5482 12.621 13.5845 13.5844C12.6211 14.5481 11.0534 14.5475 10.0903 13.5844ZM5.80774 38.4626C4.91101 38.4626 4.18176 37.7337 4.18176 36.8367C4.18176 35.9399 4.91101 35.2107 5.80774 35.2107C6.70474 35.2107 7.43372 35.9399 7.43372 36.8367C7.43372 37.7337 6.70474 38.4626 5.80774 38.4626ZM16.046 59.9272C15.4113 60.5616 14.3799 60.5616 13.746 59.9272C12.7208 58.902 13.4569 57.1524 14.8956 57.1524C16.3338 57.1524 17.072 58.9012 16.046 59.9272ZM38.4628 67.8657C38.4628 68.7627 37.7338 69.4917 36.8368 69.4917C35.9401 69.4917 35.2108 68.7627 35.2108 67.8657C35.2108 66.969 35.9401 66.2397 36.8368 66.2397C37.7338 66.2397 38.4628 66.969 38.4628 67.8657ZM67.8658 38.4626C66.9691 38.4626 66.2399 37.7337 66.2399 36.8367C66.2399 35.9399 66.9691 35.2107 67.8658 35.2107C68.7628 35.2107 69.4918 35.9399 69.4918 36.8367C69.4918 37.7337 68.7628 38.4626 67.8658 38.4626Z" fill="white"/>
<path d="M59.5644 58.127L57.8298 56.3918C57.432 55.9954 56.7889 55.9954 56.3919 56.3918C55.9949 56.7888 55.9949 57.4325 56.3919 57.8297L58.1271 59.5644C57.094 61.2635 57.2328 63.4789 58.7002 64.946C60.4262 66.672 63.2202 66.6726 64.9461 64.946C66.6721 63.2201 66.6721 60.4264 64.9461 58.7002C63.479 57.2327 61.2638 57.094 59.5644 58.127ZM63.509 63.509C62.5774 64.4406 61.0698 64.4406 60.1376 63.509C59.2083 62.5795 59.2083 61.067 60.1376 60.1375C61.0671 59.2083 62.5793 59.2083 63.509 60.1375C64.4407 61.0692 64.441 62.5773 63.509 63.509Z" fill="white"/>
</svg>
