<svg width="134" height="134" viewBox="0 0 134 134" fill="none" xmlns="http://www.w3.org/2000/svg">
<circle cx="67" cy="67" r="67" fill="#7DDFC3"/>
<path d="M89.4023 92.1791L88.9764 91.9332C89.077 91.5664 89.1319 91.1808 89.1319 90.7823C89.1319 90.2124 89.0208 89.6683 88.8209 89.1691L89.3812 88.6087C89.9456 88.0443 89.9456 87.1291 89.3812 86.5646C88.8168 86.0001 87.9016 86.0002 87.3371 86.5646L86.9129 86.9888C86.281 86.6315 85.5523 86.4264 84.776 86.4264C84.3843 86.4264 84.0164 86.2741 83.7399 85.9976C83.4632 85.721 83.3109 85.3531 83.3109 84.9615C83.3109 84.4625 83.2255 83.9834 83.0704 83.5367L83.6899 82.9172C84.2543 82.3528 84.2543 81.4376 83.6899 80.8731C83.1255 80.3086 82.2103 80.3087 81.6458 80.8731L81.2545 81.2644C80.5866 80.8475 79.7988 80.6056 78.9552 80.6056C78.8249 80.6056 78.6965 80.6124 78.5691 80.6236L78.1915 79.9695C77.7924 79.2782 76.9083 79.0413 76.2172 79.4405C75.5259 79.8396 75.289 80.7235 75.6882 81.4148L75.9294 81.8325C75.5247 82.224 75.1956 82.6928 74.966 83.2151H74.2267C73.4284 83.2151 72.7814 83.8622 72.7814 84.6604C72.7814 85.4586 73.4284 86.1057 74.2267 86.1057H74.665C74.7538 86.9035 74.9334 87.6811 75.2023 88.4252L74.7259 88.7002C74.0346 89.0994 73.7979 89.9832 74.1969 90.6746C74.4647 91.1383 74.9503 91.3974 75.4498 91.3974C75.695 91.3974 75.9437 91.3349 76.1712 91.2035L76.5658 90.9757C76.8712 91.3906 77.2092 91.7859 77.5804 92.1571C77.7746 92.3513 77.977 92.5343 78.1837 92.7108L77.9008 93.2008C77.5016 93.8921 77.7385 94.776 78.4298 95.1751C78.6574 95.3066 78.9059 95.369 79.1512 95.369C79.6507 95.369 80.1364 95.1097 80.4041 94.6461L80.6287 94.2571C81.3529 94.5807 82.1142 94.8185 82.9006 94.9643V95.5109C82.9006 96.3092 83.5476 96.9563 84.3459 96.9563C85.1441 96.9563 85.7912 96.3092 85.7912 95.5109V95.0175C86.3504 94.8835 86.8677 94.6416 87.3202 94.3147L87.9572 94.6823C88.1848 94.8139 88.4332 94.8763 88.6785 94.8763C89.178 94.8763 89.6638 94.617 89.9314 94.1534C90.3305 93.4621 90.0935 92.5781 89.4023 92.1791ZM80.4203 84.9613C80.4203 86.1251 80.8732 87.219 81.6958 88.0416C82.5183 88.864 83.6123 89.3171 84.776 89.3171C85.5839 89.3171 86.2413 89.9744 86.2413 90.7823C86.2413 91.5902 85.5839 92.2474 84.776 92.2474C82.8302 92.2474 81.0006 91.4895 79.6242 90.1131C78.2478 88.7369 77.4899 86.9073 77.4899 84.9613C77.4899 84.1534 78.1472 83.4962 78.9552 83.4962C79.7631 83.4962 80.4203 84.1535 80.4203 84.9613Z" fill="white"/>
<path d="M82.8985 72.2697C82.8985 72.2657 82.8988 72.2615 82.8988 72.2573C82.8988 69.4927 82.2002 66.4353 80.8224 63.153C81.4555 62.8181 82.0457 62.3854 82.5728 61.8602C83.9577 60.4806 84.752 58.5865 84.752 56.6636C84.752 53.9712 83.0818 51.3184 82.0863 49.9766C81.2956 48.9108 79.2682 46.4321 77.5255 46.4321C75.7827 46.4321 73.7554 48.9108 72.9647 49.9766C72.8603 50.1173 72.7482 50.2731 72.6317 50.4412C70.4967 48.0695 66.7997 44.4536 64.11 44.4536C61.1438 44.4536 56.9009 48.9332 55.2144 50.8591C54.6886 51.4596 54.7492 52.3727 55.3497 52.8985C55.9502 53.4243 56.8634 53.3638 57.3892 52.7633C60.9745 48.6687 63.4655 47.3441 64.11 47.3441C64.9832 47.3441 67.7639 49.1808 71.1277 53.1058C70.651 54.2016 70.2991 55.4281 70.2991 56.6634C70.2991 58.5864 71.0934 60.4805 72.4783 61.86C73.8438 63.2203 75.6276 63.9683 77.4932 63.9683H77.5473C77.7057 63.9683 77.863 63.9611 78.0199 63.9504C79.3386 66.999 80.0087 69.7901 80.0087 72.257C80.0087 72.261 80.0084 72.2652 80.0084 72.2694C71.9168 73.002 65.5552 79.8223 65.5552 88.1014C65.5552 88.1762 65.557 88.2505 65.558 88.3249C65.0954 88.3674 64.6296 88.3908 64.1617 88.3908C64.1231 88.3908 64.0847 88.3908 64.0462 88.3908C59.9569 88.3908 56.053 86.7444 53.0482 83.7512C49.9746 80.6893 48.2118 76.4998 48.2118 72.257C48.2118 69.608 48.9825 66.5831 50.503 63.2665C50.8356 62.5408 50.517 61.683 49.7915 61.3504C49.0656 61.0177 48.2079 61.3365 47.8754 62.0619C46.1807 65.7592 45.3213 69.1892 45.3213 72.257C45.3213 77.2628 47.3941 82.1987 51.0083 85.7991C54.5591 89.3363 59.1863 91.2817 64.0353 91.2814C64.0581 91.2814 64.0819 91.2814 64.1048 91.2813C64.6896 91.2827 65.2759 91.2552 65.8594 91.2005C67.3053 98.4884 73.7474 104 81.4537 104C90.22 104 97.352 96.8678 97.352 88.1014C97.3515 79.8226 90.9899 73.0025 82.8985 72.2697ZM73.1894 56.6636C73.1894 53.8537 76.3272 50.0939 77.5253 49.3895C78.7235 50.0939 81.8612 53.8536 81.8612 56.6636C81.8612 57.8234 81.3769 58.9711 80.5326 59.8123C79.7129 60.6289 78.6531 61.078 77.5356 61.078C77.5304 61.078 77.525 61.078 77.5198 61.078C77.5146 61.078 77.5094 61.078 77.5042 61.078C76.3977 61.078 75.3377 60.6289 74.5181 59.8123C73.6737 58.9713 73.1894 57.8236 73.1894 56.6636ZM81.4531 101.11C74.2806 101.11 68.4453 95.2742 68.4453 88.1017C68.4453 80.9293 74.2806 75.094 81.4531 75.094C88.6256 75.094 94.4609 80.9293 94.4609 88.1017C94.4609 95.2742 88.6256 101.11 81.4531 101.11Z" fill="white"/>
<path d="M51.3746 48.6678C53.0381 47.0106 53.9923 44.7363 53.9923 42.428C53.9923 39.1665 51.9492 35.9259 50.7313 34.2845C49.9856 33.2794 47.3913 30 45.3204 30C43.2496 30 40.6553 33.2794 39.9095 34.2845C38.6917 35.9258 36.6486 39.1663 36.6486 42.428C36.6486 44.7363 37.6028 47.0106 39.2663 48.6678C40.9049 50.3001 43.0442 51.1978 45.2827 51.1978H45.3473C47.5965 51.1978 49.736 50.3001 51.3746 48.6678ZM45.3149 48.3073C45.3079 48.3073 45.3009 48.3073 45.2938 48.3073C43.8146 48.3073 42.399 47.7085 41.3062 46.6199C40.1832 45.5011 39.539 43.9731 39.539 42.428C39.539 40.7433 40.4425 38.5096 42.018 36.2995C43.4209 34.3316 44.7834 33.193 45.3203 32.9281C45.8572 33.193 47.2199 34.3315 48.6225 36.2994C50.1979 38.5094 51.1015 40.7432 51.1015 42.4278C51.1015 43.9731 50.4574 45.5011 49.3344 46.6198C48.2414 47.7084 46.8262 48.3072 45.3359 48.3072C45.329 48.3073 45.3219 48.3073 45.3149 48.3073Z" fill="white"/>
<path d="M52.3628 55.542C51.5646 55.542 50.9181 56.1891 50.9181 56.9873C50.9181 57.7856 51.5656 58.4326 52.3638 58.4326C53.1621 58.4326 53.8091 57.7856 53.8091 56.9873C53.8091 56.1891 53.1621 55.542 52.3638 55.542H52.3628Z" fill="white"/>
</svg>
