<svg width="292" height="251" viewBox="0 0 292 251" fill="none" xmlns="http://www.w3.org/2000/svg">
<path d="M291.327 3.3898H0.672873C0.296064 3.3898 0 3.09387 0 2.71724C0 2.3406 0.296064 2.04468 0.672873 2.04468H291.327C291.704 2.04468 292 2.3406 292 2.71724C292 3.09387 291.704 3.3898 291.327 3.3898Z" fill="#E6E7E8"/>
<path d="M291.327 32.6059H0.672873C0.296064 32.6059 0 32.3099 0 31.9333C0 31.5567 0.296064 31.2607 0.672873 31.2607H291.327C291.704 31.2607 292 31.5567 292 31.9333C292 32.3099 291.704 32.6059 291.327 32.6059Z" fill="#E6E7E8"/>
<path d="M291.327 61.8219H0.672873C0.296064 61.8219 0 61.4991 0 61.1494C0 60.7727 0.296064 60.4768 0.672873 60.4768H291.327C291.704 60.4768 292 60.7727 292 61.1494C292 61.4991 291.704 61.8219 291.327 61.8219Z" fill="#E6E7E8"/>
<path d="M291.327 91.0109H0.672873C0.296064 91.0109 0 90.715 0 90.3383C0 89.9617 0.296064 89.6658 0.672873 89.6658H291.327C291.704 89.6658 292 89.9617 292 90.3383C292 90.715 291.704 91.0109 291.327 91.0109Z" fill="#E6E7E8"/>
<path d="M291.327 120.227H0.672873C0.296064 120.227 0 119.932 0 119.555C0 119.178 0.296064 118.882 0.672873 118.882H291.327C291.704 118.882 292 119.178 292 119.555C292 119.932 291.704 120.227 291.327 120.227Z" fill="#E6E7E8"/>
<path d="M291.327 149.443H0.672873C0.296064 149.443 0 149.12 0 148.771C0 148.394 0.296064 148.098 0.672873 148.098H291.327C291.704 148.098 292 148.394 292 148.771C292 149.12 291.704 149.443 291.327 149.443Z" fill="#E6E7E8"/>
<path d="M291.327 178.632H0.672873C0.296064 178.632 0 178.337 0 177.96C0 177.583 0.296064 177.287 0.672873 177.287H291.327C291.704 177.287 292 177.583 292 177.96C292 178.337 291.704 178.632 291.327 178.632Z" fill="#E6E7E8"/>
<path d="M291.327 207.849H0.672873C0.296064 207.849 0 207.553 0 207.176C0 206.799 0.296064 206.503 0.672873 206.503H291.327C291.704 206.503 292 206.799 292 207.176C292 207.553 291.704 207.849 291.327 207.849Z" fill="#E6E7E8"/>
<path d="M50.6537 251C50.2769 251 49.9808 250.704 49.9808 250.327V3.55098C49.9808 3.17435 50.2769 2.87842 50.6537 2.87842C51.0305 2.87842 51.3266 3.17435 51.3266 3.55098V250.3C51.3266 250.677 51.0305 251 50.6537 251Z" fill="#E6E7E8"/>
<path d="M81.4176 251C81.0408 251 80.7448 250.704 80.7448 250.327V3.55098C80.7448 3.17435 81.0408 2.87842 81.4176 2.87842C81.7944 2.87842 82.0905 3.17435 82.0905 3.55098V250.3C82.0905 250.677 81.7944 251 81.4176 251Z" fill="#E6E7E8"/>
<path d="M112.181 251C111.804 251 111.508 250.704 111.508 250.327V3.55098C111.508 3.17435 111.804 2.87842 112.181 2.87842C112.558 2.87842 112.854 3.17435 112.854 3.55098V250.3C112.854 250.677 112.558 251 112.181 251Z" fill="#E6E7E8"/>
<path d="M142.918 251C142.541 251 142.245 250.704 142.245 250.327V3.55098C142.245 3.17435 142.541 2.87842 142.918 2.87842C143.295 2.87842 143.591 3.17435 143.591 3.55098V250.3C143.591 250.677 143.295 251 142.918 251Z" fill="#E6E7E8"/>
<path d="M173.682 251C173.305 251 173.009 250.704 173.009 250.327V3.55098C173.009 3.17435 173.305 2.87842 173.682 2.87842C174.059 2.87842 174.355 3.17435 174.355 3.55098V250.3C174.355 250.677 174.059 251 173.682 251Z" fill="#E6E7E8"/>
<path d="M204.446 251C204.069 251 203.773 250.704 203.773 250.327V3.55098C203.773 3.17435 204.069 2.87842 204.446 2.87842C204.823 2.87842 205.119 3.17435 205.119 3.55098V250.3C205.119 250.677 204.823 251 204.446 251Z" fill="#E6E7E8"/>
<path d="M235.182 251C234.805 251 234.509 250.704 234.509 250.327V3.55098C234.509 3.17435 234.805 2.87842 235.182 2.87842C235.559 2.87842 235.855 3.17435 235.855 3.55098V250.3C235.855 250.677 235.559 251 235.182 251Z" fill="#E6E7E8"/>
<path d="M265.946 251C265.569 251 265.273 250.704 265.273 250.327V3.55098C265.273 3.17435 265.569 2.87842 265.946 2.87842C266.323 2.87842 266.619 3.17435 266.619 3.55098V250.3C266.619 250.677 266.323 251 265.946 251Z" fill="#E6E7E8"/>
<path d="M70.9476 40.7842H35.9044V237.118H70.9476V40.7842Z" fill="#00C48C"/>
<path d="M105.991 82.2944H70.9478V237.118H105.991V82.2944Z" fill="#7DDFC3"/>
<path d="M155.703 78.1519H120.66V237.118H155.703V78.1519Z" fill="#FFCF5C"/>
<path d="M190.746 111.753H155.703V237.118H190.746V111.753Z" fill="#00C48C"/>
<path d="M245.868 78.1519H210.824V237.118H245.868V78.1519Z" fill="#7DDFC3"/>
<path d="M280.911 55.0422H245.868V237.118H280.911V55.0422Z" fill="#FFCF5C"/>
<path d="M291.381 241.154H10.147V0H18.2214V233.083H291.381V241.154Z" fill="#D1D3D4"/>
</svg>
