<?xml version="1.0" standalone="no"?>
<!DOCTYPE svg PUBLIC "-//W3C//DTD SVG 20010904//EN"
 "http://www.w3.org/TR/2001/REC-SVG-20010904/DTD/svg10.dtd">
<svg version="1.0" xmlns="http://www.w3.org/2000/svg"
 width="633.000000pt" height="636.000000pt" viewBox="0 0 633.000000 636.000000"
 preserveAspectRatio="xMidYMid meet">
<metadata>
Created by potrace 1.16, written by Peter Selinger 2001-2019
</metadata>
<g transform="translate(0.000000,636.000000) scale(0.100000,-0.100000)"
fill="#000000" stroke="none">
<path d="M2840 6345 c-8 -2 -32 -6 -53 -10 -66 -11 -83 -53 -206 -535 l-76
-294 -80 -34 c-203 -86 -400 -162 -422 -162 -14 0 -43 11 -66 24 -23 13 -140
81 -259 150 -119 69 -260 147 -313 173 -94 45 -97 46 -128 31 -80 -39 -455
-390 -547 -511 -68 -92 -67 -96 135 -442 68 -115 145 -254 171 -307 l48 -98
-83 -207 c-46 -115 -92 -223 -101 -242 l-17 -35 -289 -73 c-325 -82 -494 -135
-518 -162 -27 -30 -38 -195 -34 -510 3 -240 6 -292 20 -324 25 -56 68 -72 477
-177 248 -64 331 -92 353 -118 15 -17 198 -453 198 -470 0 -5 -68 -124 -152
-263 -262 -439 -276 -474 -221 -548 78 -105 482 -491 556 -530 24 -13 32 -11
89 14 80 36 179 90 446 244 183 105 219 123 246 118 30 -5 318 -116 437 -170
l56 -25 57 -228 c72 -290 131 -496 157 -546 11 -22 31 -43 47 -49 75 -29 674
-28 782 1 71 19 85 56 206 535 l76 300 131 49 c73 27 183 73 246 103 63 29
118 53 122 53 4 0 106 -59 226 -132 222 -134 489 -278 515 -278 54 0 546 477
604 586 l19 35 -59 114 c-32 63 -125 226 -207 362 -82 136 -149 254 -149 260
0 7 17 47 39 90 39 78 85 192 135 333 l26 75 288 72 c289 73 464 123 502 143
33 18 40 52 51 257 11 203 -1 555 -20 606 -6 14 -20 31 -32 37 -38 21 -267 86
-532 151 -219 54 -258 67 -263 84 -25 82 -114 306 -150 378 -24 48 -44 93 -44
100 0 7 64 118 141 247 160 266 269 467 269 496 0 42 -269 329 -478 510 -141
123 -121 120 -275 42 -73 -37 -237 -130 -365 -208 -129 -77 -238 -140 -243
-140 -5 0 -46 19 -92 41 -97 49 -269 120 -348 142 l-56 17 -57 226 c-74 291
-131 495 -157 554 -32 76 -27 75 -419 77 -190 1 -352 0 -360 -2z m593 -265 c4
-4 42 -139 83 -301 41 -162 86 -331 100 -377 29 -95 43 -109 154 -142 88 -26
222 -82 412 -170 l157 -72 153 88 c84 48 245 144 358 212 l205 124 177 -181
c98 -99 178 -188 178 -197 0 -14 -147 -278 -241 -430 -62 -102 -149 -270 -149
-288 0 -9 27 -77 61 -149 67 -145 105 -238 151 -367 17 -47 41 -106 54 -132
22 -44 28 -48 91 -68 38 -12 205 -55 373 -96 168 -41 313 -77 323 -80 16 -5
17 -27 17 -274 0 -247 -1 -269 -17 -274 -10 -3 -155 -39 -323 -80 -381 -94
-434 -110 -452 -139 -18 -29 -39 -78 -84 -202 -20 -55 -67 -167 -104 -250
-103 -230 -100 -214 -63 -288 17 -35 85 -155 150 -268 176 -299 213 -367 213
-384 0 -8 -80 -97 -178 -196 l-177 -181 -210 127 c-115 70 -276 166 -358 212
l-149 85 -164 -76 c-182 -84 -331 -145 -414 -170 -30 -8 -69 -24 -87 -35 -39
-24 -50 -57 -157 -480 -41 -162 -79 -297 -83 -301 -4 -4 -126 -10 -270 -14
l-262 -6 -10 38 c-5 20 -39 154 -75 297 -91 360 -110 418 -146 448 -16 14 -62
37 -102 52 -209 79 -313 123 -430 181 l-130 63 -70 -35 c-38 -19 -198 -112
-354 -205 -157 -94 -290 -169 -297 -167 -7 2 -94 86 -194 188 l-181 185 144
240 c80 132 174 290 210 352 l65 111 -40 80 c-61 122 -125 267 -165 377 -68
186 -87 225 -116 240 -42 22 -246 80 -511 146 -134 33 -247 65 -251 72 -10 15
-10 498 0 513 4 6 99 34 212 63 281 72 516 139 550 156 29 15 47 53 116 240
40 110 104 255 165 377 l40 80 -65 111 c-36 62 -130 220 -210 352 l-144 240
181 185 c100 102 187 186 194 188 7 2 139 -73 295 -166 156 -93 314 -185 352
-205 80 -41 51 -47 266 56 74 35 180 81 235 101 252 93 255 95 290 209 14 45
55 199 91 342 36 143 70 277 75 297 l10 37 262 -6 c144 -3 266 -9 270 -13z"/>
<path d="M2885 4606 c-291 -50 -618 -244 -825 -490 -228 -270 -361 -644 -347
-976 9 -215 56 -399 151 -595 71 -145 159 -267 281 -390 210 -210 475 -353
739 -400 118 -20 437 -20 562 0 187 30 411 128 578 253 391 290 613 749 593
1227 -16 380 -155 693 -431 971 -201 202 -401 317 -671 386 -105 26 -504 35
-630 14z m478 -231 c245 -37 462 -150 658 -345 165 -163 267 -337 326 -557 24
-89 27 -115 27 -288 1 -175 -1 -198 -26 -290 -63 -237 -169 -416 -347 -588
-231 -223 -516 -337 -841 -337 -321 0 -588 107 -824 330 -267 253 -390 563
-372 940 15 327 119 565 350 796 190 189 393 297 640 338 109 19 290 19 409 1z"/>
</g>
</svg>
