<svg width="18" height="18" viewBox="0 0 18 18" fill="none" xmlns="http://www.w3.org/2000/svg">
<path d="M7.272 7.974C7.317 7.677 7.416 7.416 7.542 7.191C7.668 6.966 7.848 6.777 8.073 6.633C8.289 6.498 8.559 6.435 8.892 6.426C9.099 6.435 9.288 6.471 9.459 6.543C9.639 6.624 9.801 6.732 9.927 6.867C10.053 7.002 10.152 7.164 10.233 7.344C10.314 7.524 10.35 7.722 10.359 7.92H11.97C11.952 7.497 11.871 7.11 11.718 6.759C11.565 6.408 11.358 6.102 11.088 5.85C10.818 5.598 10.494 5.4 10.116 5.256C9.738 5.112 9.324 5.049 8.865 5.049C8.28 5.049 7.767 5.148 7.335 5.355C6.903 5.562 6.543 5.832 6.255 6.183C5.967 6.534 5.751 6.939 5.616 7.407C5.481 7.875 5.4 8.361 5.4 8.883V9.126C5.4 9.648 5.472 10.134 5.607 10.602C5.742 11.07 5.958 11.475 6.246 11.817C6.534 12.159 6.894 12.438 7.326 12.636C7.758 12.834 8.271 12.942 8.856 12.942C9.279 12.942 9.675 12.87 10.044 12.735C10.413 12.6 10.737 12.411 11.016 12.168C11.295 11.925 11.52 11.646 11.682 11.322C11.844 10.998 11.943 10.656 11.952 10.287H10.341C10.332 10.476 10.287 10.647 10.206 10.809C10.125 10.971 10.017 11.106 9.882 11.223C9.747 11.34 9.594 11.43 9.414 11.493C9.243 11.556 9.063 11.574 8.874 11.583C8.55 11.574 8.28 11.511 8.073 11.376C7.848 11.232 7.668 11.043 7.542 10.818C7.416 10.593 7.317 10.323 7.272 10.026C7.227 9.729 7.2 9.423 7.2 9.126V8.883C7.2 8.568 7.227 8.271 7.272 7.974ZM9 0C4.032 0 0 4.032 0 9C0 13.968 4.032 18 9 18C13.968 18 18 13.968 18 9C18 4.032 13.968 0 9 0ZM9 16.2C5.031 16.2 1.8 12.969 1.8 9C1.8 5.031 5.031 1.8 9 1.8C12.969 1.8 16.2 5.031 16.2 9C16.2 12.969 12.969 16.2 9 16.2Z" fill="white"/>
</svg>
