<svg width="34" height="34" viewBox="0 0 34 34" fill="none" xmlns="http://www.w3.org/2000/svg">
<path d="M34 17C34 7.61259 26.3874 0 17 0C7.61259 0 0 7.61259 0 17C0 26.3874 7.61259 34 17 34C17.0999 34 17.1992 33.9979 17.2988 33.9961V20.7623H13.6465V16.5058H17.2988V13.3736C17.2988 9.74097 19.5164 7.76382 22.7569 7.76382C24.3086 7.76382 25.6424 7.87952 26.0312 7.93114V11.7277H23.7968C22.0339 11.7277 21.6925 12.5656 21.6925 13.7949V16.5058H25.9078L25.3584 20.7623H21.6925V33.3432C28.7983 31.3061 34 24.7597 34 17Z" fill="white"/>
</svg>
