<svg width="138" height="28" viewBox="0 0 138 28" fill="none" xmlns="http://www.w3.org/2000/svg">
<g clip-path="url(#clip0)">
<path d="M12.4702 13.6473C12.4702 8.17881 15.1586 3.448 23.1752 3.448C23.1752 8.93254 19.5313 13.6473 12.4702 13.6473Z" fill="white"/>
<path d="M25.2954 28C26.8016 28 27.9515 27.7915 29.1337 27.3585C29.1337 23.0286 26.5263 19.9496 21.9268 17.7205C18.4125 15.9725 14.0722 15.0584 10.1206 15.0584C11.8535 9.89462 10.5902 3.51203 8.90593 0C7.04348 3.67239 5.87743 9.99084 7.6751 15.1226C4.16074 15.3792 1.37517 16.8866 0.192925 18.8912C0.111949 19.0355 -0.0823928 19.3723 0.0309734 19.4204C0.111949 19.4685 0.257707 19.3242 0.338683 19.26C1.60191 18.0893 3.2862 17.5281 4.90572 17.5281C8.63061 17.5281 11.2704 20.5911 13.1329 22.4353C17.1169 26.3803 21.0361 28 25.2954 28Z" fill="white"/>
<path d="M40.6985 7.68162L38.7551 8.65986C38.6579 8.70797 38.5608 8.78816 38.4636 8.78816C38.3826 8.78816 38.3178 8.74005 38.2692 8.62779C37.832 7.60144 37.2004 7.21656 36.5526 7.21656H34.9492C34.0099 7.21656 33.2002 8.00236 33.2002 8.94852V16.0688C33.2002 16.9989 34.0099 17.8008 34.9492 17.8008H36.1315C37.1032 17.8008 37.8482 17.031 37.8482 16.0688V14.9462C37.8482 14.7859 37.7672 14.7057 37.6052 14.7057H35.3217C35.1598 14.7057 35.0788 14.6255 35.0788 14.4651V12.4285C35.0788 12.2681 35.1598 12.1879 35.3217 12.1879H40.407C40.569 12.1879 40.6499 12.2681 40.6499 12.4285V16.0848C40.6499 18.5866 38.8847 20.3345 36.1315 20.3345H34.9492C32.1799 20.3345 30.4308 18.5866 30.4308 16.0848V8.96455C30.4308 6.46284 32.1799 4.71484 34.9492 4.71484H36.5526C38.5608 4.71484 39.662 5.53271 40.3908 6.65528C40.6014 7.00808 40.8443 7.39296 40.8443 7.53729C40.8443 7.5854 40.7957 7.63351 40.6985 7.68162Z" fill="white"/>
<path d="M48.4236 20.078H42.9658C42.8039 20.078 42.7229 19.9978 42.7229 19.8374V5.16389C42.7229 4.98749 42.8039 4.92334 42.9658 4.92334H48.4236C51.193 4.92334 52.9421 6.67133 52.9421 9.39757V9.63812C52.9421 10.5201 52.359 11.5625 51.6464 12.2361C51.5655 12.2842 51.5493 12.3644 51.5493 12.3964C51.5493 12.4445 51.5655 12.5247 51.6464 12.5568C52.359 13.2303 52.9421 14.385 52.9421 15.267V15.6198C52.9421 18.3621 51.193 20.078 48.4236 20.078ZM50.1727 9.17305C50.1727 8.24293 49.3629 7.44109 48.4236 7.44109H45.7514C45.5894 7.44109 45.5085 7.50524 45.5085 7.68164V10.8729C45.5085 11.0493 45.5894 11.1135 45.7514 11.1135H48.4236C49.3629 11.1135 50.1727 10.3277 50.1727 9.38153V9.17305ZM50.1727 15.3632C50.1727 14.401 49.3953 13.6633 48.4236 13.6633H45.7514C45.5894 13.6633 45.5085 13.7435 45.5085 13.9039V17.3197C45.5085 17.4961 45.5894 17.5602 45.7514 17.5602H48.4236C49.3629 17.5602 50.1727 16.8225 50.1727 15.8283V15.3632Z" fill="white"/>
<path d="M57.8006 20.078H55.5009C55.3389 20.078 55.2579 19.9978 55.2579 19.8374V5.16389C55.2579 4.98749 55.3389 4.92334 55.5009 4.92334H57.8006C57.9625 4.92334 58.0435 4.98749 58.0435 5.16389V19.8374C58.0435 19.9978 57.9787 20.078 57.8006 20.078Z" fill="white"/>
<path d="M69.9308 7.44102H64.1491C63.9871 7.44102 63.9062 7.50516 63.9062 7.68157V10.8729C63.9062 11.0493 63.9871 11.1134 64.1491 11.1134H68.8781C69.0401 11.1134 69.121 11.1936 69.121 11.354V13.4067C69.121 13.567 69.0401 13.6472 68.8781 13.6472H64.1491C63.9871 13.6472 63.9062 13.7274 63.9062 13.8878V19.8213C63.9062 19.9817 63.8252 20.0619 63.6632 20.0619H61.3635C61.2016 20.0619 61.1206 19.9817 61.1206 19.8213V5.14778C61.1206 4.97137 61.2016 4.90723 61.3635 4.90723H69.9308C70.0927 4.90723 70.1737 4.97137 70.1737 5.14778V7.18443C70.1737 7.37687 70.0927 7.44102 69.9308 7.44102Z" fill="white"/>
<path d="M74.8055 2.229V22.339" stroke="white" stroke-miterlimit="10"/>
<path d="M81.656 10.1673H81.3969C80.5062 10.1673 79.9393 9.60598 79.9393 8.80415V6.22225C79.9393 5.42041 80.5062 4.85913 81.3969 4.85913H81.8018C82.2552 4.85913 82.563 4.98742 82.7897 5.17986C82.9354 5.29212 83.0326 5.43645 83.1136 5.58078C83.146 5.62889 83.1298 5.677 83.065 5.69304L82.6277 5.90151C82.5792 5.93359 82.5468 5.91755 82.5306 5.86944C82.3524 5.58078 82.0609 5.42041 81.8018 5.42041H81.3969C80.9434 5.42041 80.5871 5.77322 80.5871 6.22225V8.80415C80.5871 9.23714 80.9434 9.60598 81.3969 9.60598H81.656C82.0933 9.60598 82.4658 9.25317 82.4658 8.80415V8.21079C82.4658 8.14665 82.4334 8.13061 82.3848 8.13061H81.5427C81.4779 8.13061 81.4617 8.09854 81.4617 8.05043V7.64951C81.4617 7.58536 81.4941 7.56933 81.5427 7.56933H83.0326C83.0974 7.56933 83.1136 7.6014 83.1136 7.64951V8.80415C83.1136 9.60598 82.5468 10.1673 81.656 10.1673Z" fill="white"/>
<path d="M84.717 10.087H84.2311C84.1663 10.087 84.1501 10.0549 84.1501 10.0068V5.01939C84.1501 4.95525 84.1825 4.93921 84.2311 4.93921H84.717C84.7818 4.93921 84.798 4.97128 84.798 5.01939V10.0068C84.798 10.0709 84.7818 10.087 84.717 10.087Z" fill="white"/>
<path d="M87.2272 10.1673C86.3527 10.1673 85.7697 9.58999 85.7697 8.80419V7.7137C85.7697 6.94394 86.3365 6.35059 87.2272 6.35059C88.1018 6.35059 88.6848 6.92791 88.6848 7.7137V8.80419C88.701 9.58999 88.1342 10.1673 87.2272 10.1673ZM88.037 7.68163C88.037 7.26467 87.6969 6.92791 87.2272 6.92791C86.709 6.92791 86.4175 7.28071 86.4175 7.72974V8.86834C86.4175 9.2853 86.7576 9.62206 87.2272 9.62206C87.7455 9.62206 88.037 9.26926 88.037 8.82023V7.68163Z" fill="white"/>
<path d="M91.1302 10.087C90.9196 10.087 90.6119 9.9748 90.3852 9.73425C90.3204 9.6701 90.2394 9.68614 90.2394 9.79839V10.0229C90.2394 10.0871 90.207 10.1031 90.1585 10.1031H89.7536C89.6888 10.1031 89.6726 10.071 89.6726 10.0229V5.03551C89.6726 4.97136 89.705 4.95532 89.7536 4.95532H90.2394C90.3042 4.95532 90.3204 4.9874 90.3204 5.03551V6.75143C90.3204 6.84765 90.4014 6.87972 90.4662 6.81557C90.6929 6.57502 90.9844 6.4788 91.2111 6.4788C91.9723 6.4788 92.6039 7.04009 92.6039 7.84192V8.77205C92.5877 9.52577 92.0209 10.087 91.1302 10.087ZM91.9399 7.80985C91.9399 7.37686 91.5674 7.00801 91.1302 7.00801C90.6929 7.00801 90.3204 7.36082 90.3204 7.80985V8.73997C90.3204 9.17296 90.6767 9.5418 91.1302 9.5418C91.5674 9.5418 91.9399 9.189 91.9399 8.73997V7.80985Z" fill="white"/>
<path d="M96.1022 10.087H95.7135C95.6487 10.087 95.6325 10.055 95.6325 10.0069V9.78234C95.6325 9.68612 95.5515 9.65405 95.4867 9.71819C95.2438 9.95874 94.9523 10.087 94.7741 10.087H94.4502C93.851 10.087 93.3813 9.70216 93.3813 9.09276V9.04465C93.3813 8.4513 93.8672 8.06642 94.4502 8.06642H95.4705C95.5353 8.06642 95.5515 8.03435 95.5515 7.98624V7.71361C95.5515 7.26458 95.1952 6.92782 94.7418 6.92782C94.4664 6.92782 94.1911 7.07214 94.013 7.37684C93.9806 7.42495 93.9482 7.44099 93.8996 7.40892L93.4785 7.1844C93.4299 7.15233 93.4137 7.12025 93.4461 7.07214C93.5433 6.92782 93.6405 6.78349 93.7862 6.68727C94.013 6.49483 94.3369 6.38257 94.7418 6.38257C95.6325 6.38257 96.2155 6.91178 96.2155 7.72965V10.0229C96.1831 10.071 96.1669 10.087 96.1022 10.087ZM95.5353 8.6277C95.5353 8.56356 95.5029 8.54752 95.4544 8.54752H94.434C94.1911 8.54752 93.9968 8.73996 93.9968 8.98051V9.1088C93.9968 9.33332 94.1911 9.54179 94.434 9.54179H94.7579C95.1142 9.54179 95.4382 9.22106 95.5353 8.90032V8.6277Z" fill="white"/>
<path d="M97.8027 10.087H97.3168C97.252 10.087 97.2358 10.0549 97.2358 10.0068V5.01939C97.2358 4.95525 97.2682 4.93921 97.3168 4.93921H97.8027C97.8674 4.93921 97.8836 4.97128 97.8836 5.01939V10.0068C97.8836 10.0709 97.8674 10.087 97.8027 10.087Z" fill="white"/>
<path d="M102.224 10.087H100.604C100.54 10.087 100.523 10.0549 100.523 10.0068V5.01939C100.523 4.95525 100.556 4.93921 100.604 4.93921H102.224C103.115 4.93921 103.681 5.50049 103.681 6.38251V6.46269C103.681 6.78342 103.422 7.21642 103.115 7.40886C103.034 7.45696 103.034 7.50507 103.098 7.55318C103.374 7.72959 103.665 8.1305 103.665 8.53142V8.65971C103.681 9.54173 103.115 10.087 102.224 10.087ZM103.034 6.30232C103.034 5.86933 102.677 5.50049 102.224 5.50049H101.236C101.171 5.50049 101.155 5.53257 101.155 5.58068V7.10416C101.155 7.1683 101.187 7.18434 101.236 7.18434H102.224C102.677 7.18434 103.034 6.83153 103.034 6.38251V6.30232ZM103.034 8.54746C103.034 8.11447 102.677 7.76166 102.224 7.76166H101.236C101.171 7.76166 101.155 7.79373 101.155 7.84184V9.44551C101.155 9.50965 101.187 9.52569 101.236 9.52569H102.224C102.677 9.52569 103.034 9.17288 103.034 8.72386V8.54746Z" fill="white"/>
<path d="M104.961 5.66096C104.734 5.66096 104.556 5.48456 104.556 5.26005C104.556 5.03553 104.734 4.85913 104.961 4.85913C105.188 4.85913 105.366 5.03553 105.366 5.26005C105.382 5.48456 105.204 5.66096 104.961 5.66096ZM105.22 10.0871H104.734C104.669 10.0871 104.653 10.055 104.653 10.0069V6.52694C104.653 6.4628 104.686 6.44676 104.734 6.44676H105.22C105.285 6.44676 105.301 6.47883 105.301 6.52694V10.0069C105.301 10.071 105.269 10.0871 105.22 10.0871Z" fill="white"/>
<path d="M107.73 10.1673C106.856 10.1673 106.273 9.58999 106.273 8.80419V7.7137C106.273 6.94394 106.84 6.35059 107.73 6.35059C108.605 6.35059 109.188 6.92791 109.188 7.7137V8.80419C109.188 9.58999 108.621 10.1673 107.73 10.1673ZM108.54 7.68163C108.54 7.26467 108.2 6.92791 107.73 6.92791C107.212 6.92791 106.921 7.28071 106.921 7.72974V8.86834C106.921 9.2853 107.261 9.62206 107.73 9.62206C108.249 9.62206 108.54 9.26926 108.54 8.82023V7.68163Z" fill="white"/>
<path d="M112.864 10.0871H112.475C112.411 10.0871 112.394 10.0551 112.394 10.007V9.78245C112.394 9.68623 112.313 9.65415 112.249 9.7183C112.006 9.97489 111.698 10.0871 111.504 10.0871C110.613 10.0871 110.046 9.52586 110.046 8.72402V7.7939C110.046 6.99207 110.645 6.43078 111.423 6.43078C111.666 6.43078 111.957 6.527 112.168 6.78359C112.232 6.86377 112.313 6.8317 112.313 6.71944V5.00352C112.313 4.93938 112.346 4.92334 112.394 4.92334H112.88C112.945 4.92334 112.961 4.95541 112.961 5.00352V9.99092C112.961 10.0711 112.929 10.0871 112.864 10.0871ZM112.297 7.80994C112.297 7.37695 111.941 7.00811 111.488 7.00811C111.034 7.00811 110.678 7.36091 110.678 7.80994V8.74006C110.678 9.17305 111.034 9.5419 111.488 9.5419C111.925 9.5419 112.297 9.18909 112.297 8.74006V7.80994Z" fill="white"/>
<path d="M114.37 5.66096C114.143 5.66096 113.965 5.48456 113.965 5.26005C113.965 5.03553 114.143 4.85913 114.37 4.85913C114.597 4.85913 114.775 5.03553 114.775 5.26005C114.775 5.48456 114.597 5.66096 114.37 5.66096ZM114.613 10.0871H114.127C114.063 10.0871 114.046 10.055 114.046 10.0069V6.52694C114.046 6.4628 114.079 6.44676 114.127 6.44676H114.613C114.678 6.44676 114.694 6.47883 114.694 6.52694V10.0069C114.694 10.071 114.678 10.0871 114.613 10.0871Z" fill="white"/>
<path d="M117.269 10.039C117.253 10.0711 117.221 10.0871 117.188 10.0871H116.8C116.767 10.0871 116.735 10.0711 116.719 10.039L115.293 6.55903C115.261 6.47885 115.293 6.44678 115.374 6.44678H115.893C115.925 6.44678 115.957 6.46281 115.974 6.49489L116.913 8.83624C116.929 8.88435 116.994 9.07679 117.01 9.15697H117.042C117.059 9.07679 117.123 8.88435 117.14 8.83624L118.063 6.49489C118.079 6.46281 118.111 6.44678 118.144 6.44678H118.662C118.743 6.44678 118.775 6.49489 118.743 6.55903L117.269 10.039Z" fill="white"/>
<path d="M121.998 8.33896H119.893C119.828 8.33896 119.812 8.37104 119.812 8.41915V8.80402C119.812 9.23701 120.168 9.60586 120.622 9.60586C120.897 9.60586 121.188 9.44549 121.35 9.14079C121.383 9.09268 121.415 9.07665 121.464 9.10872L121.901 9.33324C121.95 9.36531 121.966 9.39738 121.933 9.44549C121.852 9.57378 121.771 9.70208 121.658 9.81434C121.431 10.0388 121.107 10.1832 120.622 10.1832C119.731 10.1832 119.164 9.62189 119.164 8.82006V7.72957C119.164 6.95981 119.731 6.36646 120.622 6.36646C121.496 6.36646 122.079 6.94377 122.079 7.72957V8.27482C122.079 8.32293 122.063 8.33896 121.998 8.33896ZM121.431 7.68146C121.431 7.2645 121.091 6.92774 120.622 6.92774C120.103 6.92774 119.812 7.28054 119.812 7.72957V7.82579C119.812 7.8739 119.86 7.8739 119.893 7.8739H121.35C121.415 7.8739 121.431 7.84183 121.431 7.79372V7.68146Z" fill="white"/>
<path d="M124.654 7.12032C124.606 7.10428 124.557 7.08824 124.508 7.08824C124.055 7.08824 123.699 7.39294 123.699 7.87404V10.0069C123.699 10.0711 123.666 10.0871 123.618 10.0871H123.132C123.067 10.0871 123.051 10.055 123.051 10.0069V6.52696C123.051 6.46281 123.083 6.44678 123.132 6.44678H123.537C123.602 6.44678 123.618 6.47885 123.618 6.52696V6.86373C123.618 6.95995 123.699 6.99202 123.763 6.92788C123.974 6.62318 124.266 6.44678 124.508 6.44678H124.687C124.751 6.44678 124.768 6.47885 124.768 6.543V7.05617C124.768 7.12032 124.719 7.15239 124.654 7.12032Z" fill="white"/>
<path d="M126.646 10.1671H126.403C125.934 10.1671 125.642 10.0388 125.415 9.84641C125.27 9.73415 125.173 9.58982 125.108 9.44549C125.075 9.39738 125.092 9.36531 125.156 9.33324L125.545 9.14079C125.594 9.10872 125.626 9.12476 125.658 9.17287C125.804 9.44549 126.112 9.63793 126.403 9.63793H126.646C127.116 9.63793 127.343 9.38134 127.343 9.07665C127.343 8.67573 126.808 8.61158 126.225 8.49933C125.675 8.38707 125.092 8.16256 125.092 7.47298C125.092 6.7353 125.658 6.36646 126.403 6.36646H126.646C127.084 6.36646 127.375 6.47871 127.602 6.65511C127.764 6.78341 127.861 6.92774 127.942 7.07207C127.974 7.12018 127.958 7.16829 127.893 7.18432L127.505 7.37676C127.456 7.40884 127.424 7.3928 127.391 7.34469C127.229 7.07207 126.954 6.89566 126.646 6.89566H126.403C125.918 6.89566 125.739 7.12018 125.739 7.3928C125.739 7.84183 126.274 7.88993 126.841 8.00219C127.472 8.13048 127.99 8.33896 127.99 8.99646C127.99 9.63793 127.537 10.1671 126.646 10.1671Z" fill="white"/>
<path d="M129.173 5.66096C128.946 5.66096 128.768 5.48456 128.768 5.26005C128.768 5.03553 128.946 4.85913 129.173 4.85913C129.399 4.85913 129.578 5.03553 129.578 5.26005C129.594 5.48456 129.399 5.66096 129.173 5.66096ZM129.416 10.0871H128.93C128.865 10.0871 128.849 10.055 128.849 10.0069V6.52694C128.849 6.4628 128.881 6.44676 128.93 6.44676H129.416C129.48 6.44676 129.497 6.47883 129.497 6.52694V10.0069C129.513 10.071 129.48 10.0871 129.416 10.0871Z" fill="white"/>
<path d="M132.007 10.1673C131.667 10.1353 131.391 10.023 131.165 9.86265C130.857 9.6221 130.679 9.25325 130.679 8.82026V7.08831C130.679 7.02416 130.646 7.00812 130.598 7.00812H130.128C130.063 7.00812 130.047 6.97605 130.047 6.92794V6.70343L130.987 5.72519C131.003 5.70915 131.035 5.69312 131.051 5.69312H131.246C131.31 5.69312 131.327 5.72519 131.327 5.7733V6.36666C131.327 6.4308 131.359 6.44684 131.408 6.44684H131.991C132.055 6.44684 132.072 6.47891 132.072 6.52702V6.9119C132.072 6.97605 132.039 6.99209 131.991 6.99209H131.424C131.359 6.99209 131.343 7.02416 131.343 7.07227V8.80423C131.343 9.17307 131.602 9.50984 132.023 9.59003C132.072 9.60606 132.088 9.6221 132.088 9.67021V10.0711C132.104 10.1353 132.072 10.1673 132.007 10.1673Z" fill="white"/>
<path d="M134.226 12.0115C133.74 12.0115 133.432 11.8672 133.189 11.6587C133.076 11.5464 132.979 11.4181 132.914 11.2898C132.881 11.2417 132.898 11.1936 132.946 11.1776L133.383 10.9691C133.432 10.937 133.464 10.9531 133.497 11.0012C133.659 11.2898 133.95 11.4662 134.226 11.4662C134.679 11.4662 135.035 11.1134 135.035 10.6644V9.83051C135.035 9.73429 134.938 9.70222 134.89 9.76636C134.711 9.99088 134.469 10.0871 134.226 10.0871C133.335 10.0871 132.768 9.52581 132.768 8.72398V6.52696C132.768 6.46281 132.8 6.44678 132.849 6.44678H133.335C133.4 6.44678 133.416 6.47885 133.416 6.52696V8.72398C133.416 9.15697 133.772 9.52581 134.226 9.52581C134.728 9.52581 135.035 9.10886 135.035 8.72398V6.52696C135.035 6.46281 135.068 6.44678 135.116 6.44678H135.602C135.667 6.44678 135.683 6.47885 135.683 6.52696V10.5522C135.683 11.3861 135.197 12.0115 134.226 12.0115Z" fill="white"/>
<path d="M80.6196 19.9014H80.1337C80.0689 19.9014 80.0527 19.8694 80.0527 19.8212V14.8338C80.0527 14.7697 80.0851 14.7537 80.1337 14.7537H80.6196C80.6844 14.7537 80.7006 14.7857 80.7006 14.8338V19.8212C80.7167 19.8854 80.6844 19.9014 80.6196 19.9014Z" fill="white"/>
<path d="M84.7331 19.9016H84.2472C84.1825 19.9016 84.1663 19.8695 84.1663 19.8214V17.6083C84.1663 17.1753 83.7938 16.8065 83.3565 16.8065C82.9192 16.8065 82.5467 17.1593 82.5467 17.6083V19.8214C82.5467 19.8855 82.5143 19.9016 82.4658 19.9016H81.9799C81.9151 19.9016 81.8989 19.8695 81.8989 19.8214V16.3414C81.8989 16.2773 81.9313 16.2612 81.9799 16.2612H82.3848C82.4496 16.2612 82.4658 16.2933 82.4658 16.3414V16.5499C82.4658 16.6461 82.5467 16.6782 82.6115 16.614C82.8382 16.3575 83.1136 16.2612 83.3565 16.2612C84.2472 16.2612 84.8303 16.8225 84.8303 17.6243V19.8214C84.8141 19.8855 84.7817 19.9016 84.7331 19.9016Z" fill="white"/>
<path d="M87.6806 15.1868C87.6644 15.2349 87.632 15.251 87.5996 15.251C87.5187 15.2349 87.4863 15.2349 87.4215 15.2349C86.968 15.2349 86.6117 15.5877 86.6117 16.0368V16.5499C86.6117 16.6141 86.6441 16.6301 86.6927 16.6301H87.2919C87.3567 16.6301 87.3729 16.6622 87.3729 16.7103V17.0952C87.3729 17.1593 87.3405 17.1754 87.2919 17.1754H86.6927C86.6279 17.1754 86.6117 17.2075 86.6117 17.2556V19.8214C86.6117 19.8856 86.5793 19.9016 86.5307 19.9016H86.0449C85.9801 19.9016 85.9639 19.8695 85.9639 19.8214V17.2716C85.9639 17.2075 85.9315 17.1914 85.8829 17.1914H85.6724C85.6076 17.1914 85.5914 17.1593 85.5914 17.1112V16.7264C85.5914 16.6622 85.6238 16.6462 85.6724 16.6462H85.8829C85.9477 16.6462 85.9639 16.6141 85.9639 16.566V16.133C85.9639 15.3312 86.6117 14.6897 87.4215 14.6897C87.5348 14.6897 87.6158 14.7057 87.7454 14.7057C87.8102 14.7218 87.8426 14.7538 87.8102 14.818L87.6806 15.1868Z" fill="white"/>
<path d="M89.3487 19.9818C88.4741 19.9818 87.8911 19.4044 87.8911 18.6186V17.5282C87.8911 16.7584 88.4579 16.165 89.3487 16.165C90.2232 16.165 90.8063 16.7424 90.8063 17.5282V18.6186C90.8225 19.4044 90.2556 19.9818 89.3487 19.9818ZM90.1584 17.4961C90.1584 17.0791 89.8183 16.7424 89.3487 16.7424C88.8304 16.7424 88.5389 17.0952 88.5389 17.5442V18.6828C88.5389 19.0997 88.879 19.4365 89.3487 19.4365C89.8669 19.4365 90.1584 19.0837 90.1584 18.6347V17.4961Z" fill="white"/>
<path d="M93.3975 16.9348C93.3489 16.9187 93.3003 16.9027 93.2518 16.9027C92.7983 16.9027 92.442 17.2074 92.442 17.6885V19.8214C92.442 19.8855 92.4096 19.9016 92.361 19.9016H91.8752C91.8104 19.9016 91.7942 19.8695 91.7942 19.8214V16.3414C91.7942 16.2773 91.8266 16.2612 91.8752 16.2612H92.28C92.3448 16.2612 92.361 16.2933 92.361 16.3414V16.6782C92.361 16.7744 92.442 16.8065 92.5068 16.7423C92.7173 16.4376 93.0088 16.2612 93.2518 16.2612H93.4299C93.4947 16.2612 93.5109 16.2933 93.5109 16.3575V16.8706C93.5109 16.9348 93.4623 16.9668 93.3975 16.9348Z" fill="white"/>
<path d="M98.8228 19.9016H98.337C98.2722 19.9016 98.256 19.8695 98.256 19.8214V17.6083C98.256 17.1593 97.8835 16.8065 97.5272 16.8065C97.2033 16.8065 96.7985 17.1593 96.7985 17.6083V19.8214C96.7985 19.8855 96.7661 19.9016 96.7175 19.9016H96.2316C96.1668 19.9016 96.1507 19.8695 96.1507 19.8214V17.6083C96.1507 17.1593 95.7782 16.8065 95.4219 16.8065C95.098 16.8065 94.6931 17.1593 94.6931 17.6083V19.8214C94.6931 19.8855 94.6607 19.9016 94.6121 19.9016H94.1263C94.0615 19.9016 94.0453 19.8695 94.0453 19.8214V16.3414C94.0453 16.2773 94.0777 16.2612 94.1263 16.2612H94.5311C94.5959 16.2612 94.6121 16.2933 94.6121 16.3414V16.5499C94.6121 16.6461 94.6769 16.6782 94.7417 16.614C94.9684 16.3575 95.2599 16.2612 95.5028 16.2612C95.7944 16.2612 96.1668 16.3895 96.4098 16.6942C96.4584 16.7584 96.5069 16.7423 96.5393 16.6942C96.7985 16.4056 97.1548 16.2612 97.5272 16.2612C98.3046 16.2612 98.9038 16.8225 98.9038 17.6243V19.8214C98.92 19.8855 98.8876 19.9016 98.8228 19.9016Z" fill="white"/>
<path d="M102.499 19.9015H102.111C102.046 19.9015 102.03 19.8694 102.03 19.8213V19.5968C102.03 19.5006 101.949 19.4685 101.884 19.5326C101.641 19.7732 101.349 19.9015 101.171 19.9015H100.847C100.248 19.9015 99.7784 19.5166 99.7784 18.9072V18.8591C99.7784 18.2657 100.264 17.8809 100.847 17.8809H101.868C101.932 17.8809 101.949 17.8488 101.949 17.8007V17.5281C101.949 17.079 101.592 16.7423 101.139 16.7423C100.864 16.7423 100.588 16.8866 100.41 17.1913C100.378 17.2394 100.345 17.2554 100.297 17.2234L99.8756 16.9989C99.827 16.9668 99.8108 16.9347 99.8432 16.8866C99.9404 16.7423 100.038 16.5979 100.183 16.5017C100.41 16.3093 100.734 16.197 101.139 16.197C102.03 16.197 102.613 16.7262 102.613 17.5441V19.8213C102.58 19.8855 102.564 19.9015 102.499 19.9015ZM101.932 18.4422C101.932 18.378 101.9 18.362 101.851 18.362H100.831C100.588 18.362 100.394 18.5544 100.394 18.795V18.9233C100.394 19.1478 100.588 19.3562 100.831 19.3562H101.155C101.511 19.3562 101.835 19.0355 101.932 18.7148V18.4422Z" fill="white"/>
<path d="M105.042 19.9818C104.702 19.9497 104.426 19.8375 104.2 19.6771C103.892 19.4366 103.714 19.0677 103.714 18.6347V16.9028C103.714 16.8386 103.682 16.8226 103.633 16.8226H103.163C103.098 16.8226 103.082 16.7905 103.082 16.7424V16.5179L104.022 15.5396C104.038 15.5236 104.07 15.5076 104.086 15.5076H104.281C104.346 15.5076 104.362 15.5396 104.362 15.5878V16.1811C104.362 16.2453 104.394 16.2613 104.443 16.2613H105.026C105.09 16.2613 105.107 16.2934 105.107 16.3415V16.7264C105.107 16.7905 105.074 16.8065 105.026 16.8065H104.443C104.378 16.8065 104.362 16.8386 104.362 16.8867V18.6187C104.362 18.9875 104.621 19.3243 105.042 19.4045C105.09 19.4205 105.107 19.4365 105.107 19.4847V19.8856C105.139 19.9497 105.107 19.9818 105.042 19.9818Z" fill="white"/>
<path d="M106.159 15.4754C105.933 15.4754 105.755 15.299 105.755 15.0745C105.755 14.85 105.933 14.6736 106.159 14.6736C106.386 14.6736 106.564 14.85 106.564 15.0745C106.58 15.299 106.402 15.4754 106.159 15.4754ZM106.419 19.9015H105.933C105.868 19.9015 105.852 19.8695 105.852 19.8213V16.3414C105.852 16.2772 105.884 16.2612 105.933 16.2612H106.419C106.483 16.2612 106.499 16.2933 106.499 16.3414V19.8213C106.499 19.8855 106.467 19.9015 106.419 19.9015Z" fill="white"/>
<path d="M108.929 19.9818C108.054 19.9818 107.471 19.4044 107.471 18.6186V17.5282C107.471 16.7584 108.038 16.165 108.929 16.165C109.803 16.165 110.386 16.7424 110.386 17.5282V18.6186C110.386 19.4044 109.819 19.9818 108.929 19.9818ZM109.739 17.4961C109.739 17.0791 109.398 16.7424 108.929 16.7424C108.411 16.7424 108.119 17.0952 108.119 17.5442V18.6828C108.119 19.0997 108.459 19.4365 108.929 19.4365C109.447 19.4365 109.739 19.0837 109.739 18.6347V17.4961Z" fill="white"/>
<path d="M114.208 19.9016H113.722C113.658 19.9016 113.641 19.8695 113.641 19.8214V17.6083C113.641 17.1753 113.269 16.8065 112.832 16.8065C112.394 16.8065 112.022 17.1593 112.022 17.6083V19.8214C112.022 19.8855 111.99 19.9016 111.941 19.9016H111.455C111.39 19.9016 111.374 19.8695 111.374 19.8214V16.3414C111.374 16.2773 111.407 16.2612 111.455 16.2612H111.86C111.925 16.2612 111.941 16.2933 111.941 16.3414V16.5499C111.941 16.6461 112.022 16.6782 112.087 16.614C112.313 16.3575 112.589 16.2612 112.832 16.2612C113.722 16.2612 114.305 16.8225 114.305 17.6243V19.8214C114.289 19.8855 114.257 19.9016 114.208 19.9016Z" fill="white"/>
<path d="M119.699 15.3149H117.577C117.512 15.3149 117.496 15.347 117.496 15.3951V16.9186C117.496 16.9828 117.528 16.9988 117.577 16.9988H119.31C119.375 16.9988 119.391 17.0309 119.391 17.079V17.4799C119.391 17.544 119.359 17.5601 119.31 17.5601H117.577C117.512 17.5601 117.496 17.5921 117.496 17.6403V19.8212C117.496 19.8854 117.464 19.9014 117.415 19.9014H116.929C116.864 19.9014 116.848 19.8694 116.848 19.8212V14.8338C116.848 14.7697 116.881 14.7537 116.929 14.7537H119.682C119.747 14.7537 119.763 14.7857 119.763 14.8338V15.2348C119.78 15.2989 119.763 15.3149 119.699 15.3149Z" fill="white"/>
<path d="M122.63 19.9015H122.241C122.176 19.9015 122.16 19.8694 122.16 19.8213V19.5968C122.16 19.5006 122.079 19.4685 122.014 19.5326C121.772 19.7732 121.48 19.9015 121.302 19.9015H120.978C120.379 19.9015 119.909 19.5166 119.909 18.9072V18.8591C119.909 18.2657 120.395 17.8809 120.978 17.8809H121.998C122.063 17.8809 122.079 17.8488 122.079 17.8007V17.5281C122.079 17.079 121.723 16.7423 121.269 16.7423C120.994 16.7423 120.719 16.8866 120.541 17.1913C120.508 17.2394 120.476 17.2554 120.427 17.2234L120.006 16.9989C119.958 16.9668 119.941 16.9347 119.974 16.8866C120.071 16.7423 120.168 16.5979 120.314 16.5017C120.541 16.3093 120.865 16.197 121.269 16.197C122.16 16.197 122.743 16.7262 122.743 17.5441V19.8213C122.711 19.8855 122.695 19.9015 122.63 19.9015ZM122.063 18.4422C122.063 18.378 122.031 18.362 121.982 18.362H120.962C120.719 18.362 120.524 18.5544 120.524 18.795V18.9233C120.524 19.1478 120.719 19.3562 120.962 19.3562H121.286C121.642 19.3562 121.966 19.0355 122.063 18.7148V18.4422Z" fill="white"/>
<path d="M126.096 19.661C125.869 19.8535 125.561 19.9818 125.091 19.9818C124.201 19.9818 123.634 19.3884 123.634 18.6186V17.5282C123.634 16.7584 124.201 16.165 125.091 16.165C125.561 16.165 125.869 16.2933 126.096 16.4858C126.225 16.598 126.322 16.7263 126.403 16.8707C126.436 16.9188 126.419 16.9669 126.355 16.9829L125.917 17.2074C125.869 17.2395 125.836 17.2235 125.82 17.1753C125.642 16.8867 125.367 16.7103 125.091 16.7103C124.573 16.7103 124.282 17.0631 124.282 17.5121V18.6026C124.282 19.0516 124.573 19.4044 125.091 19.4044C125.367 19.4044 125.658 19.2441 125.82 18.9394C125.853 18.8913 125.885 18.8752 125.934 18.9073L126.371 19.1318C126.419 19.1639 126.436 19.196 126.403 19.2441C126.338 19.4044 126.241 19.5327 126.096 19.661Z" fill="white"/>
<path d="M127.537 15.4754C127.31 15.4754 127.132 15.299 127.132 15.0745C127.132 14.85 127.31 14.6736 127.537 14.6736C127.764 14.6736 127.942 14.85 127.942 15.0745C127.958 15.299 127.764 15.4754 127.537 15.4754ZM127.78 19.9015H127.294C127.229 19.9015 127.213 19.8695 127.213 19.8213V16.3414C127.213 16.2772 127.245 16.2612 127.294 16.2612H127.78C127.845 16.2612 127.861 16.2933 127.861 16.3414V19.8213C127.877 19.8855 127.845 19.9015 127.78 19.9015Z" fill="white"/>
<path d="M129.529 19.9014H129.043C128.978 19.9014 128.962 19.8694 128.962 19.8212V14.8338C128.962 14.7697 128.995 14.7537 129.043 14.7537H129.529C129.594 14.7537 129.61 14.7857 129.61 14.8338V19.8212C129.61 19.8854 129.594 19.9014 129.529 19.9014Z" fill="white"/>
<path d="M131.019 15.4754C130.792 15.4754 130.614 15.299 130.614 15.0745C130.614 14.85 130.792 14.6736 131.019 14.6736C131.246 14.6736 131.424 14.85 131.424 15.0745C131.44 15.299 131.262 15.4754 131.019 15.4754ZM131.278 19.9015H130.792C130.727 19.9015 130.711 19.8695 130.711 19.8213V16.3414C130.711 16.2772 130.744 16.2612 130.792 16.2612H131.278C131.343 16.2612 131.359 16.2933 131.359 16.3414V19.8213C131.359 19.8855 131.327 19.9015 131.278 19.9015Z" fill="white"/>
<path d="M133.853 19.9818C133.513 19.9497 133.238 19.8375 133.011 19.6771C132.703 19.4366 132.525 19.0677 132.525 18.6347V16.9028C132.525 16.8386 132.493 16.8226 132.444 16.8226H131.975C131.91 16.8226 131.894 16.7905 131.894 16.7424V16.5179L132.833 15.5396C132.849 15.5236 132.881 15.5076 132.898 15.5076H133.092C133.157 15.5076 133.173 15.5396 133.173 15.5878V16.1811C133.173 16.2453 133.205 16.2613 133.254 16.2613H133.837C133.902 16.2613 133.918 16.2934 133.918 16.3415V16.7264C133.918 16.7905 133.886 16.8065 133.837 16.8065H133.254C133.189 16.8065 133.173 16.8386 133.173 16.8867V18.6187C133.173 18.9875 133.432 19.3243 133.853 19.4045C133.902 19.4205 133.918 19.4365 133.918 19.4847V19.8856C133.95 19.9497 133.918 19.9818 133.853 19.9818Z" fill="white"/>
<path d="M136.072 21.826C135.586 21.826 135.278 21.6816 135.035 21.4731C134.922 21.3609 134.825 21.2326 134.76 21.1043C134.727 21.0562 134.744 21.0081 134.792 20.992L135.23 20.7836C135.278 20.7515 135.311 20.7675 135.343 20.8156C135.505 21.1043 135.796 21.2807 136.072 21.2807C136.525 21.2807 136.881 20.9279 136.881 20.4789V19.645C136.881 19.5487 136.784 19.5167 136.736 19.5808C136.558 19.8053 136.315 19.9016 136.072 19.9016C135.181 19.9016 134.614 19.3403 134.614 18.5384V16.3414C134.614 16.2773 134.647 16.2612 134.695 16.2612H135.181C135.246 16.2612 135.262 16.2933 135.262 16.3414V18.5384C135.262 18.9714 135.618 19.3403 136.072 19.3403C136.574 19.3403 136.881 18.9233 136.881 18.5384V16.3414C136.881 16.2773 136.914 16.2612 136.962 16.2612H137.448C137.513 16.2612 137.529 16.2933 137.529 16.3414V20.3666C137.529 21.2005 137.043 21.826 136.072 21.826Z" fill="white"/>
</g>
<defs>
<clipPath id="clip0">
<rect width="137.529" height="28" fill="white"/>
</clipPath>
</defs>
</svg>
