<svg width="24" height="23" viewBox="0 0 24 23" fill="none" xmlns="http://www.w3.org/2000/svg">
<path d="M15.7857 13.5143H15.0409L14.7769 13.2597C15.7009 12.1849 16.2571 10.7894 16.2571 9.27142C16.2571 5.88657 13.5134 3.14285 10.1286 3.14285C6.74371 3.14285 4 5.88657 4 9.27142C4 12.6563 6.74371 15.4 10.1286 15.4C11.6466 15.4 13.042 14.8437 14.1169 13.9197L14.3714 14.1837V14.9286L19.0857 19.6334L20.4906 18.2286L15.7857 13.5143ZM10.1286 13.5143C7.78086 13.5143 5.88571 11.6191 5.88571 9.27142C5.88571 6.92371 7.78086 5.02857 10.1286 5.02857C12.4763 5.02857 14.3714 6.92371 14.3714 9.27142C14.3714 11.6191 12.4763 13.5143 10.1286 13.5143Z" fill="#00C48C"/>
</svg>
