<svg width="17" height="17" viewBox="0 0 17 17" fill="none" xmlns="http://www.w3.org/2000/svg">
<path d="M11.7857 10.5143H11.0409L10.7769 10.2597C11.7009 9.18485 12.2571 7.78942 12.2571 6.27142C12.2571 2.88657 9.51343 0.142853 6.12857 0.142853C2.74371 0.142853 0 2.88657 0 6.27142C0 9.65628 2.74371 12.4 6.12857 12.4C7.64657 12.4 9.042 11.8437 10.1169 10.9197L10.3714 11.1837V11.9286L15.0857 16.6334L16.4906 15.2286L11.7857 10.5143ZM6.12857 10.5143C3.78086 10.5143 1.88571 8.61914 1.88571 6.27142C1.88571 3.92371 3.78086 2.02857 6.12857 2.02857C8.47628 2.02857 10.3714 3.92371 10.3714 6.27142C10.3714 8.61914 8.47628 10.5143 6.12857 10.5143Z" fill="#00C48C"/>
</svg>
