<svg width="217" height="225" viewBox="0 0 217 225" fill="none" xmlns="http://www.w3.org/2000/svg">
<path d="M187.688 189.779C205.366 170.521 216.158 144.86 216.158 116.679C216.158 107.154 214.91 97.9295 212.622 89.1445L116.768 118.829L187.688 189.779Z" fill="#7DDFC3"/>
<path d="M109.119 124.261L59.4817 213.244C74.0863 220.619 90.5858 224.803 108.056 224.803C136.225 224.803 161.899 214.007 181.125 196.321L109.119 124.261Z" fill="#00C48C"/>
<path d="M116.768 0V96.8429L185.215 28.3662C167.029 11.6517 143.111 1.10968 116.768 0Z" fill="#FFA26B"/>
<path d="M209.872 80.3132C204.973 66.5578 197.37 54.097 187.688 43.5781L124.532 106.738L209.872 80.3132Z" fill="#CF4223"/>
<path d="M51.4166 208.736L103.457 115.476V8.66943C45.9168 11.0969 0 58.5127 0 116.678C0 155.587 20.5666 189.709 51.4166 208.736Z" fill="#FFCF5C"/>
</svg>
