<svg width="34" height="34" viewBox="0 0 34 34" fill="none" xmlns="http://www.w3.org/2000/svg">
<path d="M14.8826 20.1849L20.4124 17L14.8826 13.8151V20.1849Z" fill="white"/>
<path d="M17 0C7.61259 0 0 7.61259 0 17C0 26.3874 7.61259 34 17 34C26.3874 34 34 26.3874 34 17C34 7.61259 26.3874 0 17 0ZM27.6224 17.0174C27.6224 17.0174 27.6224 20.4651 27.1851 22.1275C26.9399 23.0375 26.2224 23.755 25.3125 23.9999C23.65 24.4375 17 24.4375 17 24.4375C17 24.4375 10.3674 24.4375 8.68755 23.9825C7.77757 23.7376 7.06007 23.0199 6.81494 22.1099C6.37733 20.4651 6.37733 17 6.37733 17C6.37733 17 6.37733 13.5526 6.81494 11.8901C7.05981 10.9801 7.79495 10.245 8.68755 10.0001C10.35 9.5625 17 9.5625 17 9.5625C17 9.5625 23.65 9.5625 25.3125 10.0175C26.2224 10.2624 26.9399 10.9801 27.1851 11.8901C27.64 13.5526 27.6224 17.0174 27.6224 17.0174Z" fill="white"/>
</svg>
