<svg width="329" height="370" viewBox="0 0 329 370" fill="none" xmlns="http://www.w3.org/2000/svg">
<path d="M228.375 245.754C220.492 245.704 213.076 242.97 205.811 240.17C203.158 239.147 200.522 238.088 197.781 237.317C195.406 236.645 192.986 236.047 190.712 235.064C188.712 234.201 186.428 232.925 185.828 230.665C185.098 227.936 186.772 225.161 189.017 223.717C193.522 220.814 199.889 221.118 205.021 221.528C216.698 222.464 228.143 225.743 239.912 225.624C244.976 225.573 250.368 224.886 254.911 222.519C258.875 220.455 261.789 216.655 264.068 212.925C267.223 207.768 269.5 202.022 271.038 196.184C272.306 191.356 273.246 186.145 272.548 181.151C272.492 180.754 272.052 180.507 271.693 180.588C258.574 183.604 246.928 190.913 233.954 194.414C227.524 196.152 220.724 196.888 214.181 195.294C211.414 194.62 208.61 193.811 205.954 192.779C203.503 191.826 200.361 190.487 199.214 187.928C197.974 185.182 199.838 182.339 201.948 180.673C204.548 178.615 207.836 177.457 211.006 176.595C217.249 174.905 223.669 174.683 230.112 174.803C243.482 175.04 258.438 175.928 268.81 165.761C274.203 160.477 274.99 152.837 273.947 145.694C272.821 137.957 269.853 130.623 267.102 123.345C267.005 123.09 266.577 122.79 266.302 122.942C262.649 124.901 259.874 128.135 257.289 131.301C254.189 135.105 251.312 139.115 247.863 142.621C244.656 145.878 240.78 148.841 236.13 149.54C231.778 150.187 225.824 148.957 222.963 145.329C220.568 142.286 221.556 138.176 223.124 135.003C225.02 131.165 227.9 127.791 231.083 124.943C234.761 121.646 239.071 119.782 243.317 117.327C248.908 114.096 254.103 109.991 257.084 104.136C264.755 89.0919 256.114 73.6856 253.618 58.57C253.541 58.1114 252.857 57.7439 252.542 58.1862C248.313 64.1557 241.064 65.7846 234.166 66.376C230.782 66.667 227.387 66.739 224 66.9619C220.316 67.2008 216.661 67.7415 212.986 68.081C205.282 68.7909 197.384 69.3388 190.092 72.1046C182.915 74.8316 176.415 79.8859 173.337 87.0589C170.411 93.8641 170.807 101.521 172.007 108.675C173.305 116.379 175.488 123.923 177.186 131.552C177.953 134.986 179.134 138.81 178.341 142.33C177.41 146.46 173.051 147.391 169.611 145.669C162.865 142.284 158.12 134.759 155.854 127.831C153.253 119.889 153.11 111.36 153.864 103.113C154.263 98.7416 154.47 94.4896 154.356 90.0937C154.235 85.5469 154.019 80.9235 154.773 76.4178C155.14 74.2375 155.754 72.1273 156.754 70.149C156.977 69.7129 156.498 68.9006 155.953 69.1484C147.585 72.9989 139.22 76.8582 130.851 80.7087C130.372 80.9296 129.813 81.1034 129.37 81.3864C128.587 81.8926 128.395 83.0449 128.089 83.9046C126.784 87.5775 125.997 91.4321 125.767 95.3259C125.309 102.96 127.007 110.529 129.629 117.663C132.427 125.281 136.227 132.473 140.036 139.632C141.918 143.174 143.818 146.711 145.611 150.298C147.419 153.915 149.335 157.629 150.578 161.491C151.351 163.88 151.977 167.673 148.633 168.212C145.884 168.655 142.837 167.186 140.555 165.815C135.998 163.076 132.974 158.342 129.793 154.194C125.187 148.199 120.445 142.314 116.72 135.72C111.913 127.212 107.85 118.156 104.927 108.83C104.218 106.568 103.591 104.273 103.053 101.963C102.968 101.581 102.447 101.169 102.069 101.469C97.2585 105.366 93.2656 110.168 90.888 115.923C88.6917 121.236 88.0221 127.053 88.4103 132.765C89.2738 145.406 94.5692 157.477 100.227 168.649C102.851 173.835 105.475 179.139 108.746 183.958C111.299 187.714 114.496 191.486 115.968 195.844C116.474 197.349 116.766 199.198 115.361 200.305C113.295 201.926 109.705 201.466 107.311 201.191C100.452 200.399 94.0663 196.794 88.5765 192.782C75.7213 183.375 68.0871 169.3 60.0034 155.955C59.8389 155.689 59.2018 155.227 58.9852 155.725C54.174 166.78 52.6355 178.817 54.334 190.756C56.0421 202.825 60.7981 214.401 67.101 224.792C74.3974 236.825 86.1776 244.336 99.4937 248.244C103.034 249.285 106.64 250.085 110.27 250.72C111.938 251.012 113.614 251.273 115.294 251.497C116.175 251.615 117.189 251.6 118.026 251.895C119.586 252.437 119.702 254.118 118.644 255.212C117.359 256.54 115.744 257.668 114.31 258.834C112.698 260.149 111.066 261.446 109.416 262.719C106.408 265.048 103.35 267.316 100.255 269.536C93.0269 274.717 85.6192 279.633 78.1607 284.472C74.5009 286.848 70.8291 289.203 67.1544 291.565C63.651 293.819 60.2847 296.2 56.44 297.858C55.9608 298.064 56.1508 298.623 56.4429 298.9C59.2866 301.604 62.1864 304.254 65.1481 306.839C65.3537 307.022 65.6265 307.039 65.8511 306.899C69.8927 304.409 73.8147 301.741 77.7666 299.104C81.2665 296.766 84.928 294.686 88.425 292.34C96.6357 286.833 104.294 280.557 111.659 273.975C117.727 268.552 123.406 262.657 129.59 257.373C130.794 256.344 132.072 255.3 133.596 254.806C134.718 254.438 136.713 253.889 136.944 255.427C137.209 257.211 136.967 259.048 137.262 260.847C138.457 268.205 141.25 275.533 146.109 281.27C150.7 286.682 156.908 290.318 163.632 292.43C171.455 294.879 180.13 295.844 188.221 294.365C195.916 292.957 202.996 289.467 209.435 285.12C216.756 280.169 223.608 274.388 230.305 268.635C237.524 262.438 244.538 255.955 250.937 248.917C252.313 247.405 253.662 245.858 254.967 244.281C255.329 243.847 254.706 243.296 254.306 243.253C245.594 242.469 237.067 245.68 228.375 245.754C227.59 245.757 228.003 246.987 228.673 246.979C237.365 246.905 245.9 243.69 254.609 244.495C254.388 244.15 254.169 243.813 253.948 243.467C247.982 250.645 241.239 257.166 234.289 263.385C227.452 269.498 220.364 275.339 213.06 280.882C206.598 285.785 199.528 290.078 191.651 292.274C183.387 294.582 174.656 294.106 166.384 292.011C159.024 290.153 152.06 286.579 147.064 280.76C144.653 277.945 142.764 274.731 141.345 271.314C139.728 267.43 138.371 262.974 138.193 258.753C138.095 256.542 138.654 253.18 135.493 253.197C133.786 253.21 132.185 253.829 130.782 254.766C128.907 256.017 127.268 257.642 125.628 259.179C122.47 262.143 119.341 265.136 116.162 268.081C108.898 274.802 101.428 281.326 93.4447 287.197C86.3825 292.386 78.8063 296.865 71.502 301.706C69.3606 303.12 67.2072 304.514 65.0239 305.863C65.2583 305.883 65.4926 305.903 65.7269 305.923C62.7712 303.34 59.8685 300.696 57.0218 297.983C57.0208 298.329 57.0257 298.678 57.0247 299.025C60.1982 297.663 62.9539 295.844 65.8517 293.977C69.1926 291.827 72.5395 289.679 75.8774 287.521C82.4617 283.268 89.019 278.98 95.4658 274.527C102.039 269.982 108.5 265.262 114.709 260.227C116.17 259.037 117.642 257.853 119.055 256.611C120.005 255.781 120.67 254.884 120.526 253.559C120.197 250.451 116.868 250.526 114.498 250.189C100.045 248.132 85.16 243.7 74.6987 232.967C69.8288 227.97 66.3519 221.846 63.328 215.614C60.5951 209.975 58.3766 204.09 56.8834 198.008C53.4841 184.151 54.3001 169.669 60.0127 156.55C59.6743 156.472 59.3329 156.399 58.9945 156.32C66.2133 168.241 73.0608 181.094 83.7656 190.331C88.911 194.77 94.8094 198.689 101.247 200.962C104.316 202.043 107.536 202.623 110.794 202.631C112.715 202.636 115.137 202.481 116.566 201.011C119.139 198.378 116.397 193.761 114.928 191.301C112.407 187.074 109.288 183.252 106.912 178.941C100.316 166.988 93.7106 154.543 90.7733 141.114C89.303 134.387 88.8685 127.302 90.6448 120.593C92.5778 113.297 97.0823 107.22 102.908 102.511C102.581 102.35 102.257 102.182 101.924 102.018C104.176 111.802 108.055 121.246 112.561 130.197C114.418 133.881 116.404 137.512 118.632 140.982C120.888 144.488 123.533 147.743 126.057 151.064C127.706 153.237 129.358 155.404 131.036 157.547C132.637 159.592 134.167 161.795 135.995 163.636C138.169 165.824 140.9 167.558 143.791 168.624C145.844 169.38 148.668 170.119 150.68 168.847C152.942 167.412 152.509 164.231 151.877 162.036C150.767 158.159 148.828 154.419 147.049 150.817C143.363 143.349 139.207 136.13 135.556 128.651C131.999 121.372 128.839 113.767 127.504 105.734C126.844 101.77 126.661 97.7087 127.092 93.7075C127.323 91.5633 127.735 89.442 128.307 87.3705C128.574 86.3955 128.88 85.4322 129.218 84.4777C129.367 84.0567 129.665 82.7796 129.813 82.631C130.066 82.3725 130.703 82.2221 131.022 82.0699C131.912 81.661 132.802 81.2521 133.686 80.8402C136.283 79.6433 138.888 78.4433 141.484 77.2464C146.215 75.0675 150.941 72.8856 155.669 70.7126C155.956 70.5812 156.237 70.4469 156.52 70.3215C156.255 69.991 155.983 69.6575 155.72 69.321C151.622 77.4362 153.414 87.1043 153.232 95.8413C153.144 100.196 152.431 104.515 152.313 108.871C152.204 113.045 152.414 117.231 153.116 121.349C154.438 129.109 157.676 136.466 163.264 142.105C165.59 144.45 168.489 146.982 171.834 147.668C174.77 148.27 177.943 146.864 179.101 144.041C180.408 140.842 179.526 136.967 178.814 133.722C177.989 129.956 177.147 126.197 176.218 122.461C174.216 114.387 171.954 106.088 172.297 97.6967C172.648 89.0509 176.588 81.6763 183.786 76.797C190.832 72.0278 199.39 70.6545 207.698 69.815C215.319 69.0492 222.91 68.2539 230.56 67.8491C237.235 67.5012 244.649 66.9286 250.11 62.6598C251.444 61.6216 252.578 60.3739 253.555 58.9966C253.195 58.8706 252.839 58.7387 252.479 58.6128C254.874 73.11 263.218 87.949 256.45 102.502C253.506 108.833 248.01 113.129 242.07 116.511C239.567 117.939 236.884 119.071 234.462 120.634C232.734 121.751 231.126 123.06 229.622 124.457C224.806 128.948 217.532 137.59 221.287 144.678C223.352 148.57 228.272 150.366 232.41 150.809C237.014 151.298 241.331 149.689 244.968 146.94C249.357 143.625 252.732 139.131 256.109 134.843C259.182 130.944 262.397 126.488 266.875 124.088C266.607 123.956 266.343 123.818 266.075 123.686C268.631 130.462 271.346 137.258 272.597 144.429C273.844 151.592 273.37 159.542 267.815 164.856C256.672 175.52 240.879 173.525 226.8 173.528C220.467 173.528 214.14 174.085 208.104 176.106C203.547 177.633 196.354 181.186 197.814 187.199C199.061 192.31 206.045 194.152 210.384 195.417C213.365 196.285 216.322 197.053 219.437 197.293C222.723 197.544 226.036 197.306 229.283 196.741C242.824 194.383 254.718 187.035 267.716 182.978C269.223 182.504 270.744 182.09 272.281 181.735C271.995 181.55 271.713 181.358 271.427 181.173C272.097 185.954 271.127 190.988 269.914 195.599C268.463 201.111 266.347 206.516 263.443 211.435C261.041 215.503 257.925 219.727 253.498 221.725C248.273 224.08 242.408 224.54 236.747 224.334C224.833 223.908 213.235 220.399 201.321 220.091C196.435 219.965 190.014 220.217 186.482 224.102C183.3 227.593 184.228 232.421 188.046 234.89C190.254 236.321 192.838 237.096 195.344 237.817C198.376 238.688 201.314 239.631 204.261 240.762C212.138 243.791 220.119 246.908 228.682 246.961C229.453 246.988 229.039 245.758 228.375 245.754Z" fill="#AAD9B7"/>
<path d="M130.825 189.701C129.542 188.389 128.531 186.812 127.857 185.106C127.304 183.696 126.921 181.986 127.47 180.516C128.065 178.921 129.776 178.408 131.335 178.367C132.213 178.343 132.966 178.39 133.701 178.79C134.334 179.14 134.942 179.676 135.467 180.216C136.863 181.673 137.999 183.371 139.002 185.114C139.852 186.597 140.701 188.249 141.223 189.798C141.771 191.427 142.334 193.477 141.778 195.172C141.434 196.213 140.58 196.669 139.48 196.635C138.169 196.592 136.739 195.849 135.616 195.065C134.072 193.985 132.745 192.613 131.668 191.063C131.396 190.67 131.148 190.26 130.917 189.843C130.77 189.571 130.443 189.321 130.117 189.44C129.813 189.548 129.756 189.948 129.899 190.211C130.963 192.116 132.369 193.837 134.049 195.228C135.407 196.357 137.02 197.36 138.765 197.736C140.077 198.015 141.529 197.861 142.403 196.736C143.504 195.317 143.204 193.139 142.845 191.515C142.416 189.584 141.629 187.763 140.715 186.02C139.681 184.04 138.484 182.105 137.039 180.388C135.941 179.078 134.473 177.511 132.696 177.216C130.746 176.895 128.305 177.179 126.977 178.789C125.846 180.149 125.908 182.135 126.293 183.765C126.764 185.747 127.762 187.635 129.019 189.237C129.321 189.63 129.649 189.999 129.998 190.356C130.21 190.571 130.546 190.759 130.823 190.542C131.071 190.355 131.024 189.911 130.825 189.701Z" fill="#AAD9B7"/>
<path d="M198.319 113.875C198.331 113.94 198.35 114.008 198.365 114.068C198.601 113.874 198.84 113.69 199.076 113.497C195.614 112.103 191.949 109.923 190.544 106.329C189.66 104.047 190.042 101.387 191.45 99.315C192.32 98.0328 193.572 97.1163 194.937 96.3C194.61 96.1384 194.286 95.9708 193.953 95.8063C193.962 95.8625 193.98 95.9157 193.99 95.972C194.072 96.3151 194.471 96.6747 194.844 96.5342C196.364 95.9571 198.055 96.0099 199.435 96.9432C201.474 98.327 202.354 100.843 202.948 103.114C203.518 105.3 204 107.634 203.746 109.9C203.61 111.117 203.19 112.341 202.204 113.02C202.012 113.154 201.817 113.249 201.524 113.348C201.222 113.45 201.086 113.471 200.757 113.493C200.09 113.54 199.547 113.441 198.876 113.243C198.564 113.155 198.299 113.408 198.289 113.713C198.279 114.062 198.565 114.351 198.874 114.445C200.071 114.792 201.453 114.9 202.591 114.318C203.886 113.659 204.554 112.321 204.81 110.935C205.238 108.586 204.821 106.106 204.269 103.811C203.619 101.084 202.665 98.1626 200.407 96.3238C198.656 94.8975 196.365 94.5627 194.271 95.3581C194.556 95.5435 194.839 95.7349 195.125 95.9203C195.116 95.8641 195.098 95.8109 195.088 95.7547C194.982 95.3258 194.509 95.0256 194.104 95.261C192.792 96.0446 191.582 96.9373 190.658 98.1634C189.869 99.2203 189.304 100.469 189.051 101.76C188.42 105.013 189.769 108.138 192.071 110.426C193.952 112.293 196.331 113.602 198.771 114.578C199.19 114.748 199.6 114.486 199.482 114.007C199.47 113.942 199.452 113.874 199.437 113.815C199.281 113.126 198.113 113.035 198.319 113.875Z" fill="#AAD9B7"/>
<path d="M180.089 199.94C180.411 198.719 181.033 197.565 182.308 197.169C182.643 197.061 182.888 196.821 183.186 196.636C183.304 196.561 183.207 196.624 183.28 196.579C183.34 196.549 183.399 196.52 183.458 196.49C183.594 196.424 183.742 196.364 183.884 196.316C185.029 195.901 186.366 195.919 187.571 196.116C190.443 196.576 193.235 197.904 195.377 199.811C195.496 199.914 195.613 200.023 195.729 200.132C195.759 200.162 195.914 200.312 195.815 200.212C195.884 200.283 195.947 200.351 196.015 200.421C196.227 200.651 196.427 200.891 196.615 201.138C196.699 201.254 196.777 201.366 196.854 201.478C196.771 201.348 196.866 201.499 196.896 201.543C196.935 201.614 196.98 201.688 197.019 201.759C197.082 201.871 197.136 201.986 197.187 202.107C197.211 202.164 197.235 202.22 197.256 202.282C197.271 202.311 197.301 202.4 197.247 202.255C197.262 202.3 197.277 202.344 197.292 202.388C197.326 202.501 197.359 202.613 197.386 202.737C197.401 202.796 197.411 202.853 197.42 202.909C197.45 203.071 197.422 202.844 197.429 203.009C197.439 203.125 197.442 203.237 197.44 203.347C197.44 203.406 197.435 203.462 197.429 203.519C197.424 203.59 197.452 203.442 197.418 203.602C197.389 203.72 197.369 203.836 197.334 203.951C197.313 204.008 197.296 204.058 197.275 204.114C197.264 204.138 197.235 204.212 197.281 204.102C197.264 204.138 197.249 204.168 197.232 204.203C197.105 204.443 196.961 204.66 196.788 204.862C196.732 204.93 196.841 204.8 196.785 204.868C196.755 204.898 196.726 204.927 196.693 204.963C196.64 205.011 196.593 205.061 196.54 205.109C196.422 205.213 196.298 205.314 196.174 205.415C195.902 205.62 195.604 205.805 195.317 205.951C194.484 206.381 193.584 206.674 192.684 206.908C192.225 207.029 192.042 207.086 191.612 207.117C191.268 207.139 190.921 207.137 190.574 207.106C189.797 207.047 188.91 206.866 188.114 206.65C186.282 206.166 184.451 205.424 182.865 204.367C182.124 203.875 181.433 203.327 180.899 202.687C180.433 202.132 180.101 201.577 180.011 200.846C179.992 200.63 180.019 200.23 180.089 199.94C180.245 199.294 179.138 198.614 178.953 199.378C178.498 201.257 179.543 202.946 180.878 204.182C182.41 205.603 184.378 206.576 186.33 207.282C188.056 207.906 189.971 208.446 191.827 208.345C192.763 208.291 193.713 207.985 194.592 207.674C195.417 207.381 196.239 207.005 196.948 206.484C197.949 205.746 198.675 204.636 198.605 203.354C198.536 202.043 197.805 200.841 196.946 199.885C194.813 197.51 191.702 195.884 188.627 195.132C187.169 194.774 185.617 194.62 184.134 194.912C183.479 195.039 182.867 195.275 182.3 195.63C182.182 195.704 182.06 195.785 181.951 195.871C181.771 196.011 181.567 196.035 181.354 196.137C180.765 196.399 180.281 196.795 179.89 197.303C179.419 197.911 179.142 198.652 178.947 199.39C178.782 200.024 179.891 200.698 180.089 199.94Z" fill="#AAD9B7"/>
<path d="M252.443 61.6207C251.694 67.0441 248.749 72.0762 246.146 76.7902C243.261 81.9996 240.644 87.3264 237.884 92.5976C231.446 104.878 224.303 116.655 216.19 127.909C208.148 139.064 199.603 149.846 191.426 160.899C183.083 172.186 174.932 183.62 166.832 195.087C159.394 205.619 152.941 216.718 145.967 227.553C138.373 239.358 129.705 250.345 119.555 260.075C104.467 274.547 86.9649 286.357 68.9396 296.86C65.9994 298.574 63.0323 300.251 60.0562 301.903C59.4651 302.231 60.2596 303.273 60.8685 302.939C80.4158 292.11 99.5172 280.013 116.156 265.023C126.978 255.278 136.418 244.244 144.496 232.147C151.313 221.943 157.259 211.183 164.213 201.062C179.544 178.748 195.963 157.258 212.157 135.577C220.493 124.411 228.228 112.934 234.957 100.723C238.217 94.8137 241.162 88.7485 244.306 82.7743C246.776 78.0904 249.576 73.577 251.623 68.6845C252.542 66.4962 253.267 64.2495 253.595 61.8947C253.692 61.2193 252.551 60.8032 252.443 61.6207Z" fill="#AAD9B7"/>
<path d="M140.727 76.9828C141.812 80.2352 141.773 83.7287 141.641 87.1101C141.512 90.5299 141.191 93.98 141.557 97.4009C142.017 101.71 142.184 106.043 142.731 110.343C143.252 114.468 144.014 118.571 144.95 122.62C146.801 130.642 149.464 138.519 153.35 145.805C157.27 153.158 162.209 159.887 166.95 166.716C168.639 169.152 170.156 171.636 171.405 174.335C172.074 175.78 172.679 177.267 173.132 178.804C173.528 180.144 173.838 181.537 173.834 182.937C173.832 183.512 173.773 184.066 173.619 184.617C173.438 185.251 174.527 185.937 174.737 185.184C175.51 182.437 174.549 179.35 173.595 176.775C172.529 173.901 171.111 171.156 169.475 168.569C168.541 167.089 167.516 165.675 166.512 164.249C165.328 162.557 164.142 160.871 162.973 159.179C160.611 155.769 158.3 152.317 156.201 148.734C154.094 145.124 152.225 141.389 150.676 137.502C149.143 133.659 147.89 129.711 146.847 125.713C145.807 121.708 144.981 117.646 144.335 113.563C144 111.442 143.721 109.312 143.537 107.169C143.346 104.979 143.218 102.783 143.022 100.59C142.857 98.7075 142.598 96.8375 142.563 94.9459C142.535 93.1904 142.617 91.4375 142.699 89.6846C142.86 86.244 143.066 82.7439 142.454 79.3269C142.31 78.5252 142.112 77.7266 141.853 76.9489C141.75 76.6474 141.503 76.3404 141.147 76.3565C140.839 76.3666 140.627 76.6901 140.727 76.9828Z" fill="#AAD9B7"/>
<path d="M94.598 110.9C95.426 115.752 96.2215 120.61 97.1621 125.444C98.0874 130.189 99.1578 134.91 100.548 139.538C101.947 144.207 103.669 148.792 105.826 153.171C108.147 157.891 110.983 162.347 114.147 166.545C117.394 170.858 120.992 174.894 124.765 178.758C125.242 179.245 125.725 179.735 126.205 180.216C126.417 180.431 126.82 180.438 126.999 180.18C127.202 179.889 127.001 179.532 126.79 179.316C123.003 175.526 119.384 171.561 116.084 167.34C112.868 163.234 109.964 158.884 107.563 154.251C105.342 149.958 103.546 145.462 102.094 140.855C100.663 136.31 99.5515 131.672 98.6089 127.007C97.642 122.242 96.838 117.446 96.028 112.647C95.9298 112.052 95.8256 111.455 95.7273 110.86C95.5958 110.153 94.4538 110.054 94.598 110.9Z" fill="#AAD9B7"/>
<path d="M141.561 197.663C144.634 202.089 147.01 207.042 150.895 210.858C151.962 211.902 153.141 212.824 154.438 213.568C154.709 213.724 155.055 213.608 155.148 213.314C155.25 212.988 155.011 212.648 154.74 212.493C150.204 209.875 147.455 205.033 144.777 200.721C144.002 199.474 143.221 198.225 142.381 197.02C142.214 196.775 141.819 196.632 141.562 196.822C141.287 197.033 141.39 197.424 141.561 197.663Z" fill="#AAD9B7"/>
<path d="M166.238 199.944C170.519 199.934 174.764 199.995 179.005 200.636C179.824 200.761 179.689 199.55 179.016 199.446C174.681 198.788 170.331 198.712 165.955 198.72C165.175 198.726 165.57 199.947 166.238 199.944Z" fill="#AAD9B7"/>
<path d="M199.341 205.489C204.166 206.353 209.07 206.79 213.968 206.982C219.045 207.188 224.135 207.127 229.207 206.925C234.03 206.732 238.839 206.4 243.655 206.027C248.032 205.688 252.415 205.292 256.714 204.376C260.972 203.469 265.1 201.988 268.805 199.685C269.283 199.391 269.747 199.081 270.211 198.756C270.775 198.364 269.971 197.325 269.398 197.72C265.816 200.209 261.761 201.858 257.533 202.884C253.347 203.9 249.047 204.337 244.759 204.69C235.108 205.479 225.416 206.078 215.726 205.821C210.243 205.673 204.759 205.258 199.355 204.293C198.536 204.154 198.673 205.373 199.341 205.489Z" fill="#AAD9B7"/>
<path d="M271.137 140.645C268.95 146 264.913 150.278 260.032 153.313C255.033 156.423 249.31 158.274 243.556 159.409C237.888 160.52 232.07 160.929 226.291 160.797C220.477 160.662 214.699 159.807 208.885 159.658C202.889 159.5 196.613 160.03 191.296 163.019C190.649 163.385 190.02 163.79 189.411 164.228C188.85 164.63 189.66 165.672 190.224 165.264C195.199 161.678 201.479 160.84 207.474 160.85C213.416 160.863 219.3 161.741 225.231 161.97C230.972 162.195 236.763 161.868 242.426 160.887C248.314 159.87 254.127 158.152 259.352 155.228C264.359 152.433 268.712 148.414 271.324 143.261C271.661 142.594 271.971 141.906 272.255 141.212C272.507 140.598 271.435 139.922 271.137 140.645Z" fill="#AAD9B7"/>
<path d="M135.989 243.376C138.943 241.574 142.365 241.117 145.734 241.829C149.115 242.548 152.24 244.188 155.171 245.968C158.259 247.848 161.174 250.004 164.27 251.866C168.474 254.394 172.986 256.357 177.655 257.838C182.3 259.306 187.088 260.292 191.915 260.958C196.535 261.594 201.21 262.015 205.877 262.137C213.675 262.344 221.459 261.474 228.838 258.876C232.717 257.509 236.636 255.821 240.05 253.523C243.665 251.088 246.829 248.039 250.558 245.778C251.465 245.229 252.408 244.743 253.384 244.325C254.058 244.038 253.438 242.898 252.823 243.155C248.794 244.855 245.493 247.777 242.072 250.419C240.339 251.755 238.559 253.052 236.614 254.069C234.752 255.038 232.842 255.925 230.898 256.713C223.625 259.666 215.921 260.944 208.082 260.953C203.581 260.958 199.079 260.623 194.611 260.113C189.725 259.551 184.87 258.702 180.128 257.384C175.374 256.061 170.765 254.249 166.444 251.87C163.089 250.021 160.002 247.75 156.767 245.701C151.197 242.167 144.239 238.581 137.568 241.152C136.737 241.472 135.942 241.884 135.18 242.349C134.598 242.703 135.395 243.739 135.989 243.376Z" fill="#AAD9B7"/>
<path d="M59.609 158.011C62.2383 165.251 62.8041 172.985 64.4091 180.472C65.2191 184.238 66.334 187.91 67.9193 191.424C69.5317 194.988 71.4812 198.409 73.7053 201.634C78.1685 208.112 83.8465 213.944 90.6909 217.909C98.6062 222.491 107.321 225.38 115.746 228.842C119.565 230.412 123.325 232.129 126.979 234.046C129.76 235.501 132.326 237.3 133.735 240.196C134.122 241 134.412 241.836 134.645 242.697C134.83 243.386 135.99 243.494 135.771 242.663C134.899 239.398 133.072 236.687 130.292 234.753C128.965 233.831 127.54 233.076 126.098 232.356C124.264 231.442 122.423 230.54 120.563 229.694C112.228 225.93 103.458 223.183 95.2546 219.108C91.5203 217.248 87.9831 215.124 84.7866 212.43C81.7451 209.872 79.0246 206.949 76.5964 203.808C71.7967 197.591 68.0119 190.488 66.1007 182.858C64.2321 175.425 63.7406 167.706 61.5227 160.352C61.2507 159.45 60.9521 158.557 60.6269 157.673C60.3559 156.934 59.3168 157.21 59.609 158.011Z" fill="#AAD9B7"/>
<path d="M209.062 70.4227C210.359 71.1817 211.268 72.5312 211.978 73.8192C212.901 75.5003 213.59 77.3095 214.17 79.131C214.734 80.8933 215.195 82.6856 215.611 84.4928C216.049 86.377 216.448 88.2199 216.417 90.168C216.38 92.4299 215.948 94.6519 215.534 96.8679C215.148 98.9505 214.887 101.036 214.62 103.133C214.118 107.025 213.523 110.923 213.409 114.852C213.298 118.701 213.649 122.675 215.244 126.231C215.433 126.656 215.646 127.064 215.868 127.469C216.017 127.735 216.327 127.991 216.656 127.88C216.957 127.779 217.023 127.376 216.883 127.122C215.001 123.742 214.517 119.827 214.548 116.02C214.582 112.014 215.164 108.036 215.69 104.067C215.957 102.029 216.18 99.9917 216.551 97.9683C216.968 95.702 217.435 93.4236 217.549 91.1111C217.653 89.0443 217.325 87.0738 216.875 85.0654C216.473 83.2876 216.033 81.513 215.502 79.7595C214.924 77.8581 214.261 75.9659 213.371 74.19C212.603 72.6446 211.649 71.1028 210.305 69.9888C210.01 69.7471 209.698 69.5263 209.365 69.3321C209.094 69.1763 208.748 69.293 208.654 69.5865C208.544 69.9303 208.792 70.2669 209.062 70.4227Z" fill="#AAD9B7"/>
</svg>
