<svg width="151" height="146" viewBox="0 0 151 146" fill="none" xmlns="http://www.w3.org/2000/svg">
<g clip-path="url(#clip0)">
<path d="M0.298584 32.7896C10.7473 34.7986 20.5585 39.0683 29.8048 44.2433C39.1855 49.493 48.0326 55.618 57.0286 61.4853C66.4833 67.6512 76.152 73.456 86.5609 77.8765C92.1768 80.2622 97.9474 82.2922 103.825 83.947C109.373 85.5077 115.027 86.69 120.509 88.4828C125.995 90.2748 131.203 92.7662 135.604 96.5494C140.075 100.396 143.647 105.155 146.972 109.991C147.786 111.173 148.587 112.366 149.389 113.559C149.464 113.424 149.539 113.29 149.614 113.156C143.248 112.386 136.883 111.619 130.518 110.849C124.921 110.173 119.175 109.744 113.766 108.063C111.132 107.244 108.633 106.077 106.366 104.498C104.066 102.899 102.025 100.963 100.105 98.9304C96.4665 95.0716 93.0461 90.9864 89.5396 87.0066C85.5552 82.4831 81.5715 77.9487 77.8016 73.2391C77.6135 73.0037 77.3546 73.4375 77.5153 73.6373C80.8867 77.8464 84.4273 81.9136 87.9843 85.9621C91.5363 90.0048 95.0495 94.0901 98.665 98.0765C102.367 102.161 106.458 105.867 111.671 107.871C116.837 109.856 122.416 110.383 127.865 111.041C135.083 111.912 142.298 112.787 149.516 113.657C149.708 113.681 149.842 113.409 149.74 113.254C146.494 108.418 143.214 103.552 139.195 99.3133C135.222 95.1261 130.556 91.8965 125.227 89.6767C119.984 87.4947 114.439 86.1725 108.948 84.7749C102.963 83.2525 97.0655 81.4674 91.3009 79.2465C80.4768 75.0767 70.3962 69.4679 60.6464 63.2275C51.5304 57.3924 42.6565 51.1673 33.3229 45.68C24.2226 40.3301 14.6017 35.6771 4.31155 33.1398C3.01456 32.8192 1.70982 32.5365 0.395564 32.2849C0.128536 32.2349 0.0315536 32.7397 0.298584 32.7896Z" fill="#AAD9B7"/>
<path d="M149.614 113.156C147.53 112.792 145.557 111.921 143.693 110.952C141.543 109.834 139.49 108.534 137.474 107.195C133.553 104.587 129.796 101.632 125.542 99.5706C120.545 97.1476 115.154 95.6696 110.098 93.3732C105.262 91.1752 100.608 88.5815 96.0839 85.8032C91.5512 83.02 87.1323 80.0348 82.9298 76.7773C82.465 76.416 82.0035 76.0538 81.5436 75.684C81.3069 75.4938 81.0562 75.9182 81.2573 76.0822C85.3414 79.3643 89.6583 82.3554 94.0874 85.1521C98.6672 88.0441 103.382 90.7464 108.269 93.0808C110.647 94.2195 113.074 95.2266 115.547 96.1468C118.198 97.1335 120.875 98.0595 123.474 99.1852C125.782 100.185 127.966 101.379 130.066 102.76C132.013 104.042 133.918 105.39 135.848 106.702C137.897 108.093 139.967 109.46 142.126 110.678C144.041 111.759 146.044 112.754 148.166 113.354C148.611 113.478 149.06 113.583 149.518 113.664C149.786 113.706 149.88 113.202 149.614 113.156Z" fill="#AAD9B7"/>
<path d="M28.5149 44.6283C33.7968 50.9941 39.944 56.5493 45.7088 62.4642C49.9464 66.8127 53.8613 71.437 57.47 76.3184C61.2869 81.4833 64.7931 86.8888 67.8846 92.5197C71.0322 98.2534 73.7833 104.254 75.6743 110.525C77.3648 116.127 78.426 122.088 77.788 127.946C77.7161 128.598 77.6215 129.245 77.5084 129.89C77.6086 129.824 77.7097 129.761 77.8098 129.695C72.5276 126.741 70.0999 120.707 66.3707 116.229C64.0444 113.441 61.4544 110.895 58.9056 108.316C56.4036 105.778 53.9833 103.172 51.7815 100.368C47.3882 94.7713 43.7704 88.6027 40.7175 82.1826C37.9406 76.3388 35.5255 70.3123 33.82 64.0672C32.1984 58.1353 30.9553 52.1092 29.3637 46.1693C29.1993 45.556 29.0283 44.9444 28.8531 44.3304C28.7598 44.0089 28.378 44.2505 28.457 44.5188C30.1431 50.3583 31.3526 56.3255 32.8813 62.2037C33.6142 65.019 34.3898 67.8336 35.38 70.5693C36.5607 73.8291 37.8905 77.0453 39.3156 80.2039C42.2189 86.6391 45.6549 92.8493 49.8274 98.5549C51.9531 101.461 54.2787 104.207 56.7683 106.806C59.298 109.447 61.9429 111.971 64.3985 114.682C65.5252 115.927 66.614 117.204 67.6037 118.564C68.5034 119.802 69.3379 121.09 70.1954 122.357C71.8068 124.744 73.5095 127.139 75.7881 128.936C76.3633 129.389 76.9728 129.797 77.615 130.154C77.7578 130.234 77.8943 130.09 77.9164 129.959C78.9239 124.266 78.2107 118.391 76.7778 112.83C75.15 106.528 72.5764 100.483 69.5839 94.7152C66.5803 88.9322 63.1153 83.3871 59.3354 78.08C55.9507 73.3279 52.3028 68.7536 48.3193 64.4871C42.6216 58.3827 36.3598 52.826 30.8219 46.5717C30.1359 45.798 29.4656 45.0166 28.8061 44.2216C28.6073 43.9998 28.3484 44.4335 28.5149 44.6283Z" fill="#AAD9B7"/>
<path d="M77.8866 129.781C75.6644 124.421 73.3391 119.103 70.9225 113.831C69.6747 111.107 68.3986 108.398 67.0776 105.708C65.8251 103.153 64.5696 100.575 63.1238 98.1253C59.8359 92.5613 55.4125 87.8125 51.715 82.5334C48.0056 77.236 44.7776 71.6023 41.4864 66.0393C38.2003 60.482 34.8925 54.9233 31.1401 49.666C30.6823 49.0242 30.2188 48.3874 29.7461 47.7567C29.5671 47.5152 29.3082 47.949 29.4598 48.1549C33.3434 53.3556 36.7191 58.9139 40.0348 64.4883C43.3342 70.042 46.5559 75.6523 50.1336 81.0315C53.6831 86.3717 58.047 91.1115 61.5534 96.4776C63.1574 98.9308 64.493 101.542 65.8052 104.159C67.1243 106.789 68.3927 109.443 69.6321 112.108C72.1186 117.454 74.498 122.855 76.7834 128.291C77.0362 128.887 77.2865 129.488 77.5326 130.087C77.6573 130.379 77.9869 130.022 77.8866 129.781Z" fill="#AAD9B7"/>
<path d="M56.6609 60.5262C61.432 57.8795 66.3453 55.4697 71.4175 53.4533C76.5122 51.4272 81.7789 49.7767 87.1839 48.8286C91.4896 48.0714 95.8179 47.4118 100.165 46.9545C104.781 46.4641 109.438 46.2025 114.08 46.4199C118.489 46.6244 122.927 47.2538 127.108 48.7094C127.608 48.8827 128.105 49.071 128.598 49.2711C128.595 49.1255 128.592 48.98 128.588 48.8344C124.376 51.7923 119.091 52.7367 114.161 53.8182C111.715 54.3558 109.287 54.9349 106.914 55.7424C104.19 56.6688 101.429 57.4728 98.6292 58.1301C93.8524 59.2493 88.9881 59.8953 84.1126 60.4193C79.6741 60.8941 75.2134 61.2462 70.7496 61.3205C66.4893 61.3938 62.1405 61.2836 57.9648 60.3661C57.5246 60.2698 57.085 60.1625 56.6527 60.0425C56.3946 59.9723 56.2934 60.4746 56.5558 60.5472C60.5654 61.645 64.8109 61.8364 68.9495 61.8421C73.5167 61.8473 78.0843 61.5344 82.6287 61.0813C87.3854 60.607 92.1437 60.0322 96.823 59.0428C99.5723 58.4633 102.286 57.7396 104.965 56.8968C106.309 56.4724 107.633 55.9856 108.989 55.5936C110.206 55.2425 111.437 54.9447 112.673 54.6636C117.623 53.5373 122.868 52.7393 127.339 50.1838C127.843 49.8949 128.335 49.5811 128.809 49.2467C128.929 49.1609 128.959 48.8708 128.8 48.8099C124.715 47.1534 120.339 46.3539 115.957 46.0275C111.309 45.6796 106.632 45.8504 101.996 46.2707C97.5567 46.6744 93.147 47.3237 88.753 48.058C83.4909 48.9392 78.377 50.3202 73.3775 52.1814C68.1967 54.1127 63.1771 56.4723 58.3092 59.0913C57.7194 59.4101 57.1305 59.7323 56.5458 60.0569C56.3168 60.1754 56.3963 60.6721 56.6609 60.5262Z" fill="#AAD9B7"/>
<path d="M126.317 48.8785C121.768 49.0864 117.239 49.6389 112.746 50.3607C108.269 51.0814 103.822 51.9623 99.3685 52.809C94.8268 53.6723 90.271 54.4428 85.7105 55.1825C81.1258 55.9251 76.5348 56.6444 71.951 57.3903C67.3905 58.13 62.8329 58.8939 58.2899 59.7254C57.7249 59.8303 57.1591 59.9319 56.5984 60.0393C56.3431 60.0863 56.3341 60.5995 56.6128 60.5463C61.148 59.6991 65.6987 58.9227 70.2508 58.1782C74.8337 57.4289 79.4205 56.7072 84.007 55.9712C88.5826 55.2347 93.1531 54.4923 97.7083 53.6397C102.168 52.8021 106.615 51.907 111.089 51.1512C115.57 50.3936 120.08 49.7744 124.618 49.4838C125.191 49.4482 125.765 49.416 126.337 49.3913C126.593 49.3727 126.607 48.8652 126.317 48.8785Z" fill="#AAD9B7"/>
<path d="M26.0561 42.0789C32.1723 41.8119 38.1596 40.4506 44.0439 38.8381C46.976 38.0346 49.8954 37.1702 52.8204 36.34C55.7621 35.5053 58.723 34.7691 61.689 34.0387C67.4035 32.6325 73.0382 30.8619 78.431 28.4952C81.1324 27.3105 83.7694 25.9787 86.3244 24.501C88.4749 23.2603 90.6011 21.9689 92.7438 20.7124C96.7971 18.333 101.032 15.7656 103.937 11.9792C104.276 11.5382 104.59 11.0826 104.881 10.6081C104.948 10.5007 104.979 10.203 104.777 10.1964C101.671 10.0963 98.6694 10.9076 95.7044 11.7486C92.7528 12.5859 89.8348 13.3356 86.7535 13.436C83.853 13.5308 80.9526 13.2398 78.0529 13.2844C75.231 13.326 72.4032 13.6121 69.6141 14.0165C63.9116 14.8406 58.2005 16.2459 52.9359 18.6247C47.8782 20.9088 43.2797 24.2131 39.0691 27.7921C34.7191 31.4906 30.7069 35.6096 27.1398 40.0701C26.7201 40.597 26.3046 41.1263 25.8984 41.6638C25.7297 41.8877 25.9954 42.2523 26.1984 41.9836C29.6174 37.477 33.5103 33.3257 37.7286 29.5624C41.8835 25.8555 46.4114 22.4343 51.3879 19.9005C56.4681 17.3139 62.076 15.7898 67.675 14.8326C70.4486 14.3574 73.2524 14.0348 76.063 13.8712C78.9339 13.7057 81.7917 13.9045 84.6637 13.9567C86.0855 13.983 87.5097 13.9515 88.9226 13.798C90.4358 13.6319 91.9185 13.2989 93.3894 12.9084C96.3511 12.1219 99.2781 11.1125 102.34 10.7923C103.119 10.7123 103.902 10.6773 104.688 10.7026C104.655 10.565 104.621 10.4275 104.585 10.2908C102.081 14.3484 97.8953 17.0849 93.8918 19.4902C91.8913 20.6907 89.8572 21.8324 87.8636 23.0454C85.3447 24.5777 82.7464 25.9742 80.0762 27.222C74.7425 29.7158 69.149 31.6004 63.4551 33.0832C60.5564 33.8384 57.6352 34.4961 54.7473 35.2914C51.8161 36.0982 48.9009 36.9651 45.975 37.792C40.179 39.4272 34.3019 40.9198 28.2869 41.4311C27.5396 41.4956 26.7912 41.5425 26.0426 41.5752C25.7798 41.5813 25.77 42.0912 26.0561 42.0789Z" fill="#AAD9B7"/>
<path d="M104.196 10.2948C104.005 10.889 103.55 11.3612 103.088 11.7599C102.407 12.3498 101.64 12.834 100.859 13.279C98.8555 14.416 96.716 15.3108 94.5727 16.1387C90.4194 17.7446 86.1532 19.0092 81.9048 20.3405C78.0387 21.5515 74.1934 22.814 70.3273 24.025C66.9715 25.0743 63.5925 26.0368 60.2136 26.9994C54.7569 28.5544 49.3415 30.2769 44.041 32.3081C38.3354 34.4943 32.6496 37.0074 27.5804 40.4485C27.0243 40.8262 26.4783 41.2154 25.9435 41.6195C25.7328 41.7795 25.9018 42.2237 26.1605 42.0293C31.0407 38.3495 36.7158 35.7428 42.3666 33.4856C47.8103 31.3088 53.3956 29.4872 59.0242 27.8539C62.1305 26.9537 65.2493 26.1002 68.3431 25.1533C72.2322 23.9612 76.1026 22.6991 79.98 21.4636C84.4937 20.0291 89.0513 18.7186 93.4935 17.071C95.723 16.245 97.9388 15.3547 100.05 14.2603C101.509 13.505 103.214 12.6158 104.184 11.2375C104.342 11.0131 104.48 10.7688 104.563 10.5037C104.649 10.2236 104.296 9.97502 104.196 10.2948Z" fill="#AAD9B7"/>
</g>
<defs>
<clipPath id="clip0">
<rect x="30.4658" y="145.789" width="117.688" height="123.848" transform="rotate(-105 30.4658 145.789)" fill="white"/>
</clipPath>
</defs>
</svg>
